{"glyphs":{"0":{"ha":1105,"x_min":41,"x_max":1064,"o":"m 41 486 q 79 720 41 623 q 186 873 117 818 q 529 978 317 978 l 576 978 q 920 873 788 978 q 1064 486 1064 758 q 920 99 1064 214 q 576 -5 788 -5 l 529 -5 q 186 99 317 -5 q 41 486 41 214 m 553 786 q 425 786 553 786 q 297 486 297 786 q 553 186 297 186 q 808 486 808 186 q 553 786 808 786 z "},"1":{"ha":551,"x_min":1,"x_max":454,"o":"m 9 736 q 1 763 1 747 q 24 798 1 779 l 189 940 q 289 972 225 972 l 389 972 q 435 954 416 972 q 454 908 454 935 l 454 64 q 435 19 454 37 q 389 0 415 0 l 262 0 q 217 18 236 0 q 199 62 199 36 l 199 718 l 121 661 q 90 655 107 652 q 61 671 72 659 l 9 736 z "},"2":{"ha":975,"x_min":41,"x_max":933,"o":"m 41 64 l 41 163 q 77 312 41 249 q 168 411 113 375 q 292 473 224 447 q 428 514 359 498 q 551 547 496 530 q 677 654 677 585 q 638 758 677 730 q 505 786 599 786 l 457 786 q 285 703 326 786 q 193 639 254 639 l 113 639 q 61 663 79 639 q 43 714 43 686 q 102 853 43 791 q 250 947 161 916 q 433 978 338 978 l 525 978 q 902 812 823 978 q 933 661 933 747 q 898 515 933 575 q 807 419 863 454 q 683 357 751 383 q 547 315 615 332 q 424 283 479 298 q 297 192 297 248 l 860 192 q 906 173 888 192 q 925 127 925 154 l 925 64 q 906 19 925 37 q 860 0 886 0 l 107 0 q 61 19 81 0 q 41 64 41 37 z "},"3":{"ha":1004,"x_min":35,"x_max":962,"o":"m 35 265 q 58 323 35 306 q 104 340 82 340 l 184 340 q 283 263 248 340 q 449 186 319 186 l 546 186 q 668 210 629 186 q 707 290 707 233 q 668 371 707 347 q 546 395 629 395 l 424 395 q 378 413 397 395 q 359 458 359 432 l 359 514 q 378 558 359 539 q 421 578 396 578 l 521 578 q 652 602 611 578 q 693 682 693 625 q 652 763 693 739 q 521 786 611 786 l 471 786 q 298 703 340 786 q 207 639 268 639 l 126 639 q 75 663 94 639 q 57 714 57 686 q 116 853 57 791 q 263 947 175 916 q 447 978 351 978 l 541 978 q 949 681 949 978 q 856 486 949 557 q 962 290 962 419 q 862 64 962 134 q 570 -5 762 -5 l 425 -5 q 154 70 273 -5 q 35 265 35 144 z "},"4":{"ha":1042,"x_min":14,"x_max":1028,"o":"m 14 235 l 14 315 q 56 421 14 375 l 504 930 q 610 972 541 972 l 822 972 q 869 954 850 972 q 888 908 888 935 l 888 363 l 962 363 q 1009 344 990 363 q 1028 298 1028 325 l 1028 235 q 1008 190 1028 208 q 962 171 989 171 l 888 171 l 888 64 q 868 19 888 37 q 822 0 848 0 l 696 0 q 651 18 669 0 q 632 62 632 36 l 632 171 l 79 171 q 33 190 53 171 q 14 235 14 208 m 286 363 l 632 363 l 632 755 l 286 363 z "},"5":{"ha":1007,"x_min":56,"x_max":965,"o":"m 56 235 q 79 293 56 275 q 125 310 103 310 l 205 310 q 296 248 262 310 q 441 186 330 186 l 549 186 q 671 212 632 186 q 710 303 710 239 q 671 393 710 367 q 549 419 632 419 l 154 419 q 109 437 127 419 q 90 482 90 456 l 90 908 q 109 954 90 936 q 154 972 127 972 l 852 972 q 899 954 880 972 q 917 908 917 936 l 917 844 q 899 799 917 817 q 852 781 880 781 l 346 781 l 346 611 l 572 611 q 865 539 765 611 q 965 303 965 467 q 865 67 965 139 q 572 -5 765 -5 l 418 -5 q 160 63 265 -5 q 56 235 56 132 z "},"6":{"ha":1032,"x_min":56,"x_max":990,"o":"m 56 328 l 56 628 q 154 899 56 821 q 446 978 252 978 l 618 978 q 873 910 771 978 q 975 742 975 843 q 951 684 975 701 q 905 667 928 667 l 825 667 q 736 726 772 667 q 595 786 700 786 l 469 786 q 349 753 386 786 q 311 628 311 720 l 311 603 l 597 603 q 890 533 790 603 q 990 299 990 463 q 890 65 990 135 q 597 -5 790 -5 l 449 -5 q 154 70 253 -5 q 56 328 56 144 m 311 328 q 349 215 311 244 q 472 186 386 186 l 574 186 q 696 210 657 186 q 734 299 734 235 q 696 387 734 363 q 574 411 657 411 l 311 411 l 311 328 z "},"7":{"ha":885,"x_min":14,"x_max":871,"o":"m 14 844 l 14 908 q 33 954 14 935 q 79 972 53 972 l 806 972 q 851 954 832 972 q 871 908 871 935 l 871 846 q 829 722 871 799 l 473 64 q 385 0 439 0 l 245 0 q 207 18 218 0 q 207 57 196 36 l 599 781 l 79 781 q 33 799 52 781 q 14 844 14 818 z "},"8":{"ha":1050,"x_min":41,"x_max":1008,"o":"m 429 -5 q 150 72 258 -5 q 41 298 41 149 q 172 517 41 447 q 81 696 81 592 q 111 827 81 771 q 196 916 142 884 q 461 978 302 978 l 589 978 q 854 916 749 978 q 939 827 908 884 q 970 696 970 771 q 878 517 970 591 q 1008 298 1008 448 q 900 72 1008 149 q 621 -5 791 -5 l 429 -5 m 336 376 q 317 365 336 376 q 297 293 297 353 q 336 210 297 233 q 458 186 375 186 l 591 186 q 714 210 675 186 q 753 293 753 233 q 714 376 753 353 q 591 400 675 400 l 458 400 q 336 376 375 400 m 367 763 q 347 752 367 763 q 328 686 328 741 q 367 609 328 632 q 489 586 406 586 l 558 586 q 681 609 642 586 q 720 686 720 632 q 681 763 720 741 q 558 786 642 786 l 489 786 q 367 763 406 786 z "},"9":{"ha":1032,"x_min":41,"x_max":977,"o":"m 435 978 l 583 978 q 878 903 779 978 q 977 644 977 828 l 977 345 q 879 73 977 151 q 586 -5 781 -5 l 414 -5 q 159 62 261 -5 q 57 231 57 129 q 81 288 57 271 q 126 306 104 306 l 207 306 q 296 246 260 306 q 437 186 332 186 l 562 186 q 683 219 646 186 q 721 345 721 253 l 721 370 l 435 370 q 141 440 241 370 q 41 674 41 510 q 141 908 41 838 q 435 978 241 978 m 458 561 l 721 561 l 721 644 q 683 757 721 728 q 559 786 646 786 l 458 786 q 336 762 375 786 q 297 673 297 737 q 336 585 297 610 q 458 561 375 561 z "}," ":{"ha":486,"x_min":0,"x_max":0,"o":""},"!":{"ha":443,"x_min":85,"x_max":358,"o":"m 85 908 q 103 954 83 935 q 149 972 122 972 l 294 972 q 340 954 321 972 q 358 908 359 935 l 339 351 q 319 307 338 325 q 275 289 301 289 l 168 289 q 124 307 142 289 q 104 351 106 325 l 85 908 m 264 220 q 355 127 355 220 l 355 85 q 332 18 355 42 q 264 -7 309 -7 l 180 -7 q 112 18 136 -7 q 89 85 89 42 l 89 127 q 113 196 89 172 q 180 220 136 220 l 264 220 z "},"\"":{"ha":547,"x_min":43,"x_max":504,"o":"m 43 917 q 57 956 41 940 q 97 972 72 972 l 186 972 q 226 956 211 972 q 240 917 241 940 l 220 628 q 201 588 216 603 q 163 572 186 572 l 121 572 q 82 588 97 572 q 64 628 66 603 l 43 917 m 307 917 q 321 956 306 940 q 361 972 336 972 l 450 972 q 490 956 475 972 q 504 917 505 940 l 484 628 q 466 588 481 603 q 427 572 450 572 l 385 572 q 346 588 361 572 q 328 628 330 603 l 307 917 z "},"#":{"ha":1162,"x_min":28,"x_max":1135,"o":"m 164 0 q 123 43 123 0 q 126 64 123 53 l 171 222 l 69 222 q 39 234 51 222 q 28 264 28 245 l 28 345 q 40 374 29 363 q 69 386 52 386 l 216 386 l 273 586 l 131 586 q 101 598 113 586 q 89 628 89 610 l 89 708 q 101 738 89 726 q 131 750 113 750 l 319 750 l 366 908 q 476 972 384 972 l 554 972 q 595 930 593 972 q 591 908 595 920 l 546 750 l 747 750 l 793 908 q 904 972 811 972 l 982 972 q 1023 930 1021 972 q 1019 908 1023 920 l 974 750 l 1093 750 q 1122 738 1112 750 q 1135 708 1133 726 l 1135 628 q 1122 598 1133 610 q 1093 586 1111 586 l 928 586 l 871 386 l 1014 386 q 1044 374 1032 386 q 1055 345 1055 363 l 1055 264 q 1044 234 1055 245 q 1015 222 1034 222 l 825 222 l 781 64 q 669 0 762 0 l 591 0 q 551 43 551 0 q 554 64 551 53 l 599 222 l 397 222 l 353 64 q 241 0 334 0 l 164 0 m 437 382 l 647 382 l 705 590 l 496 590 l 437 382 z "},"$":{"ha":1082,"x_min":41,"x_max":1040,"o":"m 41 244 q 65 302 41 284 q 111 319 89 319 l 192 319 q 285 253 253 319 q 428 186 317 186 l 433 186 l 433 401 q 130 523 216 448 q 50 694 50 592 q 137 896 50 823 q 433 977 224 968 l 433 1040 q 445 1070 433 1059 q 475 1082 457 1082 l 525 1082 l 525 978 l 562 978 l 562 1082 l 612 1082 q 643 1070 631 1082 q 654 1040 654 1059 l 654 978 q 904 905 792 977 q 1015 728 1015 833 q 991 670 1015 688 q 946 653 968 653 l 865 653 q 774 715 804 653 q 654 785 745 778 l 654 572 q 916 480 816 536 q 1040 280 1040 412 q 953 76 1040 149 q 654 -4 865 3 l 654 -68 q 643 -98 654 -86 q 612 -110 631 -110 l 562 -110 l 562 -5 l 525 -5 l 525 -110 l 475 -110 q 445 -98 456 -110 q 433 -68 433 -86 l 433 -5 l 404 -5 q 153 66 265 -5 q 41 244 41 137 m 306 708 q 433 619 306 654 l 433 786 l 425 786 q 306 708 306 786 m 525 186 l 562 186 l 562 374 l 525 380 l 525 186 m 525 599 l 562 591 l 562 786 l 525 786 l 525 599 m 654 186 l 665 186 q 785 264 785 186 q 654 353 785 318 l 654 186 z "},"%":{"ha":1135,"x_min":41,"x_max":1093,"o":"m 109 597 q 75 627 109 597 q 41 761 41 657 q 109 926 41 865 q 278 986 176 986 q 447 926 379 986 q 514 761 514 865 q 447 597 514 657 q 278 536 379 536 q 109 597 176 536 m 92 38 q 104 64 92 48 l 781 908 q 899 972 831 972 l 1007 972 q 1041 951 1034 972 q 1043 935 1043 945 q 1031 908 1043 924 l 354 64 q 236 0 304 0 l 127 0 q 92 38 92 0 m 221 833 q 210 820 221 833 q 200 761 200 807 q 221 689 200 715 q 278 663 241 663 q 335 689 314 663 q 355 761 355 715 q 335 833 355 807 q 278 860 314 860 q 221 833 241 860 m 688 48 q 654 78 688 48 q 621 213 621 109 q 688 377 621 317 q 857 437 755 437 q 1026 377 958 437 q 1093 213 1093 317 q 1026 48 1093 109 q 857 -12 958 -12 q 688 48 755 -12 m 800 285 q 790 272 800 285 q 779 213 779 258 q 800 140 779 167 q 857 114 821 114 q 914 140 893 114 q 935 213 935 167 q 914 285 935 258 q 857 311 893 311 q 800 285 821 311 z "},"&":{"ha":1044,"x_min":41,"x_max":1044,"o":"m 41 288 q 204 551 41 477 q 143 710 143 618 q 237 907 143 828 q 503 986 332 986 q 773 926 675 986 q 872 750 872 867 q 860 720 872 732 q 831 708 848 708 l 741 708 q 663 758 694 708 q 505 822 623 822 q 412 796 446 822 q 379 722 379 770 q 409 632 379 673 q 496 542 439 590 l 730 338 l 798 433 q 852 444 821 465 l 926 395 q 947 365 947 380 q 937 336 947 349 l 856 220 l 1029 64 q 1044 39 1044 50 q 1006 0 1044 0 l 851 0 q 754 34 798 0 q 713 71 739 46 q 409 -14 581 -14 q 139 67 237 -14 q 41 288 41 147 m 269 288 q 436 150 269 150 q 579 191 519 150 l 338 408 q 269 288 269 375 z "},"'":{"ha":283,"x_min":43,"x_max":240,"o":"m 43 917 q 57 956 41 940 q 97 972 72 972 l 186 972 q 226 956 211 972 q 240 917 241 940 l 220 628 q 201 588 216 603 q 163 572 186 572 l 121 572 q 82 588 97 572 q 64 628 66 603 l 43 917 z "},"(":{"ha":452,"x_min":41,"x_max":436,"o":"m 338 1023 q 355 1031 347 1031 q 373 1027 363 1031 q 393 1008 383 1023 l 432 945 q 436 925 436 937 q 415 889 436 913 q 253 424 253 690 q 415 -41 253 157 q 436 -78 436 -65 q 432 -97 436 -90 l 393 -161 q 373 -179 383 -176 q 355 -182 363 -182 q 338 -176 347 -183 q 116 81 191 -79 q 41 424 41 241 q 116 766 41 606 q 338 1023 191 926 z "},")":{"ha":452,"x_min":16,"x_max":410,"o":"m 20 -97 q 16 -78 16 -90 q 36 -41 16 -65 q 199 424 199 157 q 36 889 199 690 q 16 925 16 913 q 20 945 16 937 l 58 1008 q 89 1031 73 1031 q 114 1023 104 1031 q 335 766 261 926 q 410 424 410 606 q 335 81 410 241 q 114 -176 261 -79 q 97 -183 104 -183 q 85 -180 89 -183 q 58 -161 68 -176 l 20 -97 z "},"*":{"ha":591,"x_min":43,"x_max":549,"o":"m 43 620 q 64 657 46 648 l 161 708 l 64 760 q 46 780 48 768 q 43 800 43 791 q 49 817 43 808 l 77 868 q 101 888 85 884 q 134 884 117 893 l 224 828 l 222 935 q 234 962 222 951 q 264 972 245 972 l 328 972 q 358 962 346 972 q 370 935 370 951 l 368 828 l 458 884 q 491 888 475 893 q 515 868 507 884 l 543 817 q 549 799 549 807 q 528 760 549 770 l 431 708 l 528 657 q 549 628 549 646 q 543 600 549 609 l 515 549 q 491 528 507 533 q 458 533 475 524 l 368 589 l 370 482 q 358 455 370 465 q 328 444 346 444 l 264 444 q 234 455 245 444 q 222 482 222 465 l 224 589 l 134 533 q 101 528 117 524 q 77 549 85 533 l 49 600 q 43 620 43 610 z "},"+":{"ha":650,"x_min":28,"x_max":623,"o":"m 28 386 l 28 467 q 40 497 28 485 q 69 509 52 509 l 239 509 l 239 677 q 251 708 239 696 q 281 720 262 720 l 361 720 q 391 708 379 720 q 403 677 403 696 l 403 509 l 581 509 q 611 497 599 509 q 623 467 623 485 l 623 386 q 611 356 623 368 q 581 345 599 345 l 403 345 l 403 167 q 391 137 403 149 q 361 125 379 125 l 281 125 q 251 137 262 125 q 239 167 239 149 l 239 345 l 69 345 q 39 356 51 345 q 28 386 28 368 z "},",":{"ha":374,"x_min":29,"x_max":318,"o":"m 231 220 q 318 155 318 220 q 309 114 318 138 l 228 -90 q 185 -146 214 -123 q 121 -168 157 -168 l 94 -168 q 40 -150 52 -168 q 29 -113 29 -132 q 32 -77 29 -94 l 72 142 q 109 197 78 174 q 175 220 140 220 l 231 220 z "},"-":{"ha":650,"x_min":28,"x_max":623,"o":"m 28 386 l 28 467 q 40 497 28 485 q 69 509 52 509 l 581 509 q 611 497 599 509 q 623 467 623 485 l 623 386 q 611 356 623 368 q 581 345 599 345 l 69 345 q 39 356 51 345 q 28 386 28 368 z "},".":{"ha":378,"x_min":56,"x_max":322,"o":"m 231 220 q 322 127 322 220 l 322 85 q 299 18 322 42 q 231 -7 275 -7 l 147 -7 q 79 18 102 -7 q 56 85 56 42 l 56 127 q 79 196 56 172 q 147 220 103 220 l 231 220 z "},"/":{"ha":715,"x_min":0,"x_max":715,"o":"m 33 0 q 0 32 0 0 q 9 64 0 47 l 450 908 q 568 972 482 972 l 682 972 q 715 940 715 972 q 705 908 715 925 l 265 64 q 147 0 233 0 l 33 0 z "},":":{"ha":378,"x_min":56,"x_max":322,"o":"m 231 220 q 322 127 322 220 l 322 85 q 299 18 322 42 q 231 -7 275 -7 l 147 -7 q 79 18 102 -7 q 56 85 56 42 l 56 127 q 79 196 56 172 q 147 220 103 220 l 231 220 m 147 530 q 56 623 56 530 l 56 665 q 79 732 56 708 q 147 757 103 757 l 231 757 q 299 732 275 757 q 322 665 322 708 l 322 623 q 231 530 322 530 l 147 530 z "},";":{"ha":380,"x_min":28,"x_max":325,"o":"m 32 -77 l 72 142 q 109 197 77 174 q 175 220 140 220 l 231 220 q 307 191 285 220 q 309 114 328 164 l 228 -90 q 185 -146 214 -123 q 121 -168 157 -168 l 94 -168 q 40 -150 52 -168 q 28 -113 28 -132 q 32 -77 28 -94 m 150 530 q 58 623 58 530 l 58 665 q 82 732 58 708 q 150 757 106 757 l 233 757 q 301 732 278 757 q 325 665 325 708 l 325 623 q 233 530 325 530 l 150 530 z "},"<":{"ha":555,"x_min":14,"x_max":500,"o":"m 14 354 l 14 387 q 54 461 14 432 l 440 734 q 482 741 464 750 q 500 707 500 732 l 500 590 q 440 498 500 540 l 260 371 l 440 243 q 500 151 500 201 l 500 35 q 482 1 500 9 q 440 7 464 -8 l 54 281 q 14 354 14 309 z "},"=":{"ha":677,"x_min":41,"x_max":636,"o":"m 41 240 l 41 321 q 53 351 41 339 q 83 363 65 363 l 595 363 q 625 351 613 363 q 636 321 636 339 l 636 240 q 624 210 636 222 q 595 199 612 199 l 83 199 q 53 210 65 199 q 41 240 41 222 m 41 526 l 41 607 q 53 637 41 625 q 83 648 65 648 l 595 648 q 625 637 613 648 q 636 607 636 625 l 636 526 q 624 496 636 508 q 595 485 612 485 l 83 485 q 53 496 65 485 q 41 526 41 508 z "},">":{"ha":555,"x_min":56,"x_max":542,"o":"m 56 35 l 56 151 q 115 243 56 201 l 296 371 l 115 498 q 56 590 56 540 l 56 707 q 74 741 56 732 q 91 745 81 745 q 115 734 100 745 l 501 461 q 542 387 541 432 l 542 354 q 501 281 542 309 l 115 7 q 90 -3 100 -3 q 74 1 80 -3 q 56 35 56 9 z "},"?":{"ha":896,"x_min":14,"x_max":854,"o":"m 14 714 q 131 904 14 829 q 386 978 248 978 l 464 978 q 854 675 854 978 q 822 557 854 607 q 742 481 789 507 q 647 433 694 454 q 567 388 600 412 q 534 338 534 363 q 493 289 534 289 l 340 289 q 310 301 322 289 q 298 330 298 313 q 321 433 298 389 q 376 504 343 478 q 449 551 410 529 q 521 589 488 574 q 599 679 599 625 q 562 760 599 733 q 444 786 525 786 l 410 786 q 256 703 297 786 q 164 639 225 639 l 83 639 q 32 663 50 639 q 14 714 14 686 m 285 85 l 285 127 q 309 196 285 172 q 376 220 334 220 l 460 220 q 527 196 503 220 q 551 127 551 172 l 551 85 q 527 17 551 41 q 460 -7 503 -7 l 376 -7 q 309 17 334 -7 q 285 85 285 41 z "},"@":{"ha":1153,"x_min":41,"x_max":1111,"o":"m 41 445 q 41 572 41 445 q 190 842 41 699 q 586 986 338 986 q 972 873 833 986 q 1111 519 1111 760 q 1031 279 1111 372 q 790 186 951 186 l 725 186 q 704 194 713 186 q 696 214 696 203 l 696 229 q 527 178 624 178 q 370 220 431 178 q 309 339 309 262 q 370 458 309 416 q 528 500 431 500 l 681 500 q 659 576 681 554 q 580 597 636 597 q 496 567 524 597 q 443 542 479 542 l 374 542 q 354 549 363 542 q 346 570 346 557 q 599 703 346 703 q 775 653 708 703 q 843 500 843 603 l 843 318 q 937 519 937 318 q 846 759 937 682 q 584 836 754 836 q 314 728 414 836 q 215 444 215 621 q 315 160 215 268 q 590 53 415 53 q 738 63 682 53 q 807 74 793 74 l 827 74 q 856 61 844 74 q 868 29 868 47 l 868 -35 q 856 -62 868 -50 q 827 -77 844 -74 q 590 -97 722 -97 q 190 47 338 -97 q 41 445 41 191 m 541 396 q 488 380 507 396 q 468 339 468 364 q 488 298 468 314 q 545 282 509 282 q 681 323 616 282 l 681 396 l 541 396 z "},"A":{"ha":1158,"x_min":14,"x_max":1061,"o":"m 17 62 l 187 708 q 637 972 256 972 l 1003 972 q 1045 954 1028 972 q 1061 909 1061 935 l 1061 62 q 1042 18 1061 36 q 997 0 1023 0 l 869 0 q 824 18 842 0 q 806 64 806 36 l 806 235 l 323 235 l 278 64 q 248 18 271 36 q 197 0 224 0 l 64 0 q 26 15 37 0 q 15 42 14 31 q 17 62 15 54 m 374 427 l 806 427 l 806 781 l 612 781 q 499 744 547 781 q 433 644 450 707 l 374 427 z "},"B":{"ha":1146,"x_min":97,"x_max":1104,"o":"m 97 908 q 116 954 97 935 q 161 972 135 972 l 713 972 q 1012 856 916 972 q 1065 691 1065 791 q 974 517 1065 591 q 1104 300 1104 447 q 1000 76 1104 153 q 745 0 896 0 l 161 0 q 116 19 135 0 q 97 64 97 37 l 97 908 m 353 183 l 741 183 q 821 214 793 183 q 848 300 848 245 q 821 385 848 354 q 741 416 793 416 l 353 416 l 353 183 m 353 595 l 715 595 q 784 620 758 595 q 810 691 810 646 q 784 763 810 737 q 715 789 758 789 l 353 789 l 353 595 z "},"C":{"ha":1135,"x_min":41,"x_max":1100,"o":"m 167 115 q 104 175 167 115 q 41 486 41 235 q 167 858 41 737 q 545 978 293 978 l 696 978 q 968 898 850 978 q 1086 679 1086 818 q 1063 622 1086 639 q 1017 604 1039 604 l 936 604 q 839 679 873 604 q 672 786 789 786 l 551 786 q 350 722 403 786 q 297 486 297 659 q 350 250 297 314 q 551 186 403 186 l 686 186 q 852 293 803 186 q 950 368 887 368 l 1031 368 q 1081 345 1063 368 q 1100 293 1100 321 q 982 74 1100 154 q 710 -5 864 -5 l 545 -5 q 167 115 293 -5 z "},"D":{"ha":1145,"x_min":97,"x_max":1103,"o":"m 97 62 l 97 907 q 116 954 97 935 q 161 972 135 972 l 541 972 q 969 855 835 972 q 1103 486 1103 737 q 969 117 1103 235 q 541 0 835 0 l 161 0 q 116 18 135 0 q 97 62 97 36 m 353 192 l 533 192 q 781 258 715 192 q 847 486 847 325 q 781 714 847 647 q 533 781 715 781 l 353 781 l 353 192 z "},"E":{"ha":1035,"x_min":97,"x_max":1007,"o":"m 97 65 l 97 909 q 116 954 97 936 q 161 972 135 972 l 943 972 q 988 954 970 972 q 1007 908 1007 935 l 1007 844 q 988 799 1007 818 q 943 781 970 781 l 353 781 l 353 583 l 861 583 q 906 565 888 583 q 925 519 925 546 l 925 456 q 906 411 925 429 q 861 392 888 392 l 353 392 l 353 192 l 942 192 q 986 174 968 192 q 1004 129 1004 155 l 1004 64 q 985 19 1004 37 q 940 0 966 0 l 161 0 q 116 19 135 0 q 97 65 97 37 z "},"F":{"ha":1021,"x_min":97,"x_max":1007,"o":"m 97 65 l 97 909 q 116 954 97 936 q 161 972 135 972 l 943 972 q 988 954 970 972 q 1007 908 1007 935 l 1007 844 q 988 799 1007 818 q 943 781 970 781 l 353 781 l 353 542 l 833 542 q 879 523 860 542 q 897 478 897 504 l 897 414 q 879 369 897 387 q 833 350 860 350 l 353 350 l 353 65 q 334 19 353 37 q 289 0 315 0 l 161 0 q 116 19 135 0 q 97 65 97 37 z "},"G":{"ha":1150,"x_min":41,"x_max":1108,"o":"m 507 -5 q 162 116 282 -5 q 41 487 41 237 q 167 858 41 737 q 545 978 293 978 l 696 978 q 966 906 846 978 q 1086 728 1086 835 q 1063 670 1086 688 q 1017 653 1039 653 l 936 653 q 843 720 878 653 q 672 786 808 786 l 551 786 q 350 722 403 786 q 297 488 297 659 q 345 251 297 317 q 514 186 392 186 l 653 186 q 809 228 762 186 q 857 347 856 269 l 704 347 q 659 366 677 347 q 640 411 640 385 l 640 464 q 659 509 640 490 q 704 528 677 528 l 1044 528 q 1089 509 1071 528 q 1108 464 1108 490 l 1108 389 q 994 97 1108 199 q 660 -5 880 -5 l 507 -5 z "},"H":{"ha":1173,"x_min":97,"x_max":1075,"o":"m 97 64 l 97 908 q 116 954 97 935 q 163 972 135 972 l 289 972 q 334 954 315 972 q 353 908 353 935 l 353 603 l 819 603 l 819 908 q 838 954 819 935 q 884 972 857 972 l 1010 972 q 1056 954 1038 972 q 1075 908 1075 935 l 1075 64 q 1056 19 1075 37 q 1010 0 1036 0 l 884 0 q 838 18 857 0 q 819 62 819 36 l 819 411 l 353 411 l 353 62 q 334 18 353 36 q 289 0 315 0 l 163 0 q 117 19 136 0 q 97 64 97 37 z "},"I":{"ha":450,"x_min":97,"x_max":353,"o":"m 97 62 l 97 908 q 116 954 97 935 q 161 972 135 972 l 288 972 q 334 954 315 972 q 353 908 353 935 l 353 64 q 333 19 353 37 q 288 0 314 0 l 161 0 q 116 18 135 0 q 97 62 97 36 z "},"J":{"ha":766,"x_min":0,"x_max":684,"o":"m 86 204 l 200 192 l 249 192 q 386 231 343 192 q 428 361 428 269 l 428 908 q 447 954 428 935 q 492 972 465 972 l 618 972 q 665 954 646 972 q 684 908 684 935 l 684 363 q 568 95 684 189 q 256 0 453 0 l 64 0 q 19 19 37 0 q 0 64 0 37 l 0 140 q 18 185 0 167 q 64 204 36 204 l 86 204 z "},"K":{"ha":1104,"x_min":97,"x_max":1103,"o":"m 1103 30 q 1068 0 1103 0 l 913 0 q 856 19 886 0 q 808 64 825 37 l 689 253 q 603 357 646 322 q 498 392 559 392 l 353 392 l 353 62 q 334 18 353 36 q 289 0 315 0 l 161 0 q 116 19 135 0 q 97 65 97 39 l 97 908 q 116 954 97 935 q 161 974 135 974 l 289 974 q 334 954 315 974 q 353 908 353 935 l 353 583 l 498 583 q 603 616 558 583 q 689 721 648 648 l 794 908 q 892 974 830 973 l 1048 974 q 1081 945 1081 974 q 1069 908 1081 930 l 922 642 q 851 545 890 583 q 747 492 811 507 q 839 435 792 482 q 922 334 886 389 l 1092 64 q 1103 30 1103 44 z "},"L":{"ha":1021,"x_min":97,"x_max":1007,"o":"m 97 62 l 97 907 q 116 954 97 935 q 161 972 135 972 l 289 972 q 334 954 315 972 q 353 907 353 935 l 353 192 l 943 192 q 988 173 970 192 q 1007 127 1007 154 l 1007 64 q 988 19 1007 37 q 943 0 970 0 l 161 0 q 116 18 135 0 q 97 62 97 36 z "},"M":{"ha":1436,"x_min":97,"x_max":1339,"o":"m 97 65 l 97 907 q 115 954 97 935 q 160 972 134 972 l 436 972 q 486 954 463 972 q 518 908 510 935 l 718 329 l 918 908 q 950 954 926 935 q 1000 972 974 972 l 1276 972 q 1321 954 1303 972 q 1339 907 1339 935 l 1339 65 q 1320 19 1339 37 q 1275 0 1301 0 l 1153 0 q 1108 19 1126 0 q 1089 65 1089 37 l 1089 728 l 850 61 q 817 18 840 36 q 766 0 793 0 l 669 0 q 620 18 643 0 q 586 61 596 36 l 347 728 l 347 65 q 329 19 347 37 q 283 0 310 0 l 161 0 q 116 19 135 0 q 97 65 97 37 z "},"N":{"ha":1204,"x_min":97,"x_max":1107,"o":"m 97 64 l 97 908 q 115 954 97 935 q 160 972 134 972 l 359 972 q 410 954 383 972 q 453 908 436 935 l 863 278 l 863 909 q 881 954 863 936 q 926 972 900 972 l 1043 972 q 1088 954 1069 972 q 1107 908 1107 936 l 1107 64 q 1088 19 1107 37 q 1043 0 1069 0 l 818 0 q 764 19 791 0 q 720 64 736 37 l 345 646 l 345 64 q 326 19 345 37 q 281 0 307 0 l 161 0 q 116 19 135 0 q 97 64 97 37 z "},"O":{"ha":1175,"x_min":41,"x_max":1133,"o":"m 995 101 q 925 40 995 101 q 588 -21 856 -21 q 180 101 319 -21 q 41 486 41 222 q 180 871 41 750 q 588 993 319 993 q 995 871 856 993 q 1133 486 1133 750 q 995 101 1133 222 m 809 728 q 775 769 809 728 q 588 810 741 810 q 366 728 435 810 q 297 486 297 647 q 366 244 297 325 q 588 163 435 163 q 809 244 741 163 q 878 486 878 325 q 809 728 878 647 z "},"P":{"ha":1116,"x_min":97,"x_max":1088,"o":"m 97 64 l 97 908 q 115 954 97 935 q 160 972 134 972 l 677 972 q 1088 594 1088 972 q 677 216 1088 216 l 353 216 l 353 64 q 334 19 353 37 q 289 0 315 0 l 161 0 q 116 19 135 0 q 97 64 97 37 m 353 408 l 600 408 q 773 447 714 408 q 832 594 832 485 q 773 742 832 704 q 600 781 714 781 l 353 781 l 353 408 z "},"Q":{"ha":1173,"x_min":41,"x_max":1173,"o":"m 41 493 q 41 622 41 493 q 180 872 41 751 q 589 993 319 993 q 996 878 859 993 q 1133 507 1133 764 q 1080 286 1133 372 q 1000 176 1043 224 l 1108 176 q 1154 158 1136 176 q 1173 113 1173 139 l 1173 57 q 1154 12 1173 31 q 1108 -7 1136 -7 l 587 -7 q 180 114 319 -7 q 41 493 41 235 m 587 176 q 878 507 878 176 q 809 735 878 661 q 588 810 741 810 q 367 729 436 810 q 297 493 297 648 q 367 257 297 338 q 587 176 436 176 z "},"R":{"ha":1122,"x_min":97,"x_max":1107,"o":"m 1107 29 q 1072 0 1107 0 l 909 0 q 853 19 884 0 q 806 64 822 37 l 690 244 q 518 355 619 355 l 353 355 l 353 64 q 334 19 353 37 q 289 0 315 0 l 161 0 q 116 19 135 0 q 97 64 97 37 l 97 908 q 115 954 97 935 q 160 972 134 972 l 720 972 q 974 889 875 972 q 1074 664 1074 806 q 818 416 1074 467 q 893 365 859 401 q 972 260 928 329 l 1096 64 q 1107 29 1107 45 m 353 547 l 642 547 q 765 575 711 547 q 818 664 818 603 q 765 753 818 725 q 642 781 711 781 l 353 781 l 353 547 z "},"S":{"ha":1082,"x_min":41,"x_max":1040,"o":"m 41 249 q 65 306 41 289 q 111 323 89 323 l 192 323 q 285 257 253 323 q 428 191 317 191 l 665 186 q 785 264 785 186 q 639 357 785 323 q 495 388 574 372 q 339 426 416 403 q 196 480 261 449 q 91 566 131 511 q 50 694 50 621 q 147 904 50 831 q 481 978 244 978 l 653 974 q 904 902 792 974 q 1015 724 1015 831 q 991 666 1015 684 q 946 648 968 648 l 865 648 q 772 715 804 648 q 629 782 741 782 l 425 786 q 306 708 306 786 q 381 638 306 665 q 565 590 457 611 q 781 541 672 570 q 965 445 889 511 q 1040 278 1040 378 q 943 68 1040 142 q 610 -5 846 -5 l 404 -1 q 153 70 265 -1 q 41 249 41 142 z "},"T":{"ha":1017,"x_min":14,"x_max":1003,"o":"m 14 844 l 14 908 q 32 954 14 936 q 78 972 50 972 l 939 972 q 985 954 966 972 q 1003 908 1003 936 l 1003 844 q 985 799 1003 817 q 939 781 966 781 l 636 781 l 636 62 q 617 18 636 36 q 572 0 599 0 l 444 0 q 399 18 418 0 q 380 62 380 36 l 380 781 l 78 781 q 32 799 50 781 q 14 844 14 817 z "},"U":{"ha":1145,"x_min":83,"x_max":1061,"o":"m 83 385 l 83 908 q 102 954 83 935 q 149 972 121 972 l 275 972 q 320 954 301 972 q 339 908 339 935 l 339 383 q 383 235 339 283 q 518 186 427 186 l 627 186 q 762 235 718 186 q 806 383 806 283 l 806 908 q 824 954 806 935 q 869 972 843 972 l 996 972 q 1042 954 1023 972 q 1061 908 1061 935 l 1061 385 q 952 97 1061 199 q 633 -5 843 -5 l 511 -5 q 192 97 301 -5 q 83 385 83 199 z "},"V":{"ha":1108,"x_min":14,"x_max":1094,"o":"m 18 916 q 14 933 14 924 q 27 958 14 943 q 62 972 39 972 l 211 972 q 292 908 264 972 l 554 323 l 817 908 q 897 972 844 972 l 1046 972 q 1082 958 1069 972 q 1094 933 1094 943 q 1090 916 1094 924 l 700 69 q 603 0 668 0 l 505 0 q 408 69 440 0 l 18 916 z "},"W":{"ha":1556,"x_min":14,"x_max":1541,"o":"m 17 916 q 14 934 14 924 q 25 959 14 945 q 61 972 37 972 l 210 972 q 258 954 236 972 q 290 908 281 936 l 469 371 l 635 908 q 715 972 654 972 l 840 972 q 921 908 901 972 l 1086 371 l 1265 908 q 1297 954 1275 936 q 1346 972 1320 972 l 1495 972 q 1530 959 1518 972 q 1541 934 1541 945 q 1539 916 1541 924 l 1236 69 q 1139 0 1211 0 l 1040 0 q 943 69 965 0 l 778 591 l 612 69 q 515 0 590 0 l 416 0 q 319 69 345 0 l 17 916 z "},"X":{"ha":1042,"x_min":14,"x_max":1028,"o":"m 52 0 q 14 31 18 0 q 28 64 14 45 l 370 500 l 47 908 q 33 941 33 926 q 71 972 33 972 l 216 972 q 335 908 284 972 l 521 672 l 707 908 q 825 972 757 972 l 971 972 q 1008 941 1008 972 q 994 908 1008 926 l 672 500 l 1014 64 q 1028 35 1028 46 q 1025 20 1028 24 q 990 0 1018 0 l 846 0 q 728 64 778 0 l 521 328 l 314 64 q 196 0 264 0 l 52 0 z "},"Y":{"ha":1031,"x_min":14,"x_max":1017,"o":"m 14 940 q 49 972 14 972 l 178 972 q 296 908 254 972 l 515 570 l 734 908 q 852 972 777 972 l 982 972 q 1017 940 1017 972 q 1006 908 1017 925 l 643 347 l 643 62 q 624 18 643 36 q 579 0 606 0 l 452 0 q 406 18 425 0 q 387 62 387 36 l 387 347 l 25 908 q 14 940 14 925 z "},"Z":{"ha":996,"x_min":35,"x_max":961,"o":"m 35 844 l 35 908 q 53 954 35 936 q 98 972 72 972 l 890 972 q 936 954 917 972 q 954 908 954 936 l 954 832 q 942 779 954 804 q 920 742 930 753 l 890 711 l 357 192 l 897 192 q 943 174 925 192 q 961 127 961 155 l 961 64 q 943 18 961 36 q 897 0 925 0 l 110 0 q 65 18 83 0 q 46 64 46 36 l 46 139 q 110 268 46 204 l 627 781 l 98 781 q 53 799 72 781 q 35 844 35 817 z "},"[":{"ha":541,"x_min":97,"x_max":526,"o":"m 97 -139 l 97 986 q 109 1016 97 1004 q 139 1028 121 1028 l 485 1028 q 514 1016 503 1028 q 526 986 526 1004 l 526 913 q 514 883 526 895 q 485 871 503 871 l 318 871 l 318 -24 l 485 -24 q 514 -36 503 -24 q 526 -65 526 -47 l 526 -139 q 514 -169 526 -157 q 485 -180 503 -180 l 139 -180 q 109 -169 121 -180 q 97 -139 97 -157 z "},"\\":{"ha":715,"x_min":0,"x_max":715,"o":"m 0 940 q 33 972 0 972 l 147 972 q 265 908 233 972 l 705 64 q 715 32 715 47 q 682 0 715 0 l 568 0 q 450 64 482 0 l 9 908 q 0 940 0 925 z "},"]":{"ha":541,"x_min":14,"x_max":443,"o":"m 14 -65 q 25 -36 14 -47 q 56 -24 37 -24 l 222 -24 l 222 871 l 56 871 q 25 883 37 871 q 14 913 14 895 l 14 986 q 25 1016 14 1004 q 56 1028 37 1028 l 401 1028 q 431 1016 419 1028 q 443 986 443 1004 l 443 -139 q 431 -169 443 -157 q 401 -180 419 -180 l 56 -180 q 25 -169 37 -180 q 14 -139 14 -157 l 14 -65 z "},"^":{"ha":739,"x_min":0,"x_max":739,"o":"m 0 560 q 9 583 0 570 l 228 913 q 319 972 268 972 l 419 972 q 511 913 471 972 l 729 583 q 739 560 739 570 q 734 543 739 550 q 701 524 726 524 l 595 524 q 504 581 542 524 l 370 783 l 235 581 q 144 524 197 524 l 37 524 q 0 560 0 524 z "},"_":{"ha":555,"x_min":0,"x_max":555,"o":"m 0 -41 q 12 -12 0 -23 q 41 0 24 0 l 514 0 q 544 -12 532 0 q 555 -41 555 -24 l 555 -122 q 544 -152 555 -140 q 514 -164 532 -164 l 41 -164 q 12 -152 23 -164 q 0 -122 0 -140 l 0 -41 z "},"`":{"ha":382,"x_min":28,"x_max":354,"o":"m 39 943 q 118 972 62 972 l 174 972 q 236 949 207 972 q 277 895 265 926 l 347 675 q 354 636 354 652 q 285 583 354 583 l 258 583 q 151 661 193 583 l 40 867 q 28 910 28 890 q 39 943 28 929 z "},"a":{"ha":905,"x_min":41,"x_max":822,"o":"m 131 49 q 86 80 131 49 q 41 225 41 111 q 131 400 41 339 q 363 461 221 461 l 587 461 q 554 572 587 541 q 438 603 521 603 q 321 562 355 603 q 239 521 288 521 l 138 521 q 107 533 119 521 q 96 562 96 545 q 465 757 96 757 q 724 685 627 757 q 822 461 822 612 l 822 41 q 810 12 822 23 q 781 0 799 0 l 650 0 q 620 12 631 0 q 608 41 608 24 l 608 62 q 361 -14 501 -14 q 131 49 221 -14 m 379 307 q 304 284 332 307 q 277 224 277 261 q 305 164 277 188 q 386 140 334 140 q 587 201 490 140 l 587 307 l 379 307 z "},"b":{"ha":920,"x_min":83,"x_max":878,"o":"m 83 930 q 95 961 83 949 q 125 972 107 972 l 277 972 q 306 961 294 972 q 318 930 318 949 l 318 722 q 514 757 428 757 q 779 657 681 757 q 878 371 878 558 q 447 -14 878 -14 q 243 8 349 -14 q 83 62 138 31 l 83 930 m 318 566 l 318 165 q 467 150 376 150 q 596 202 557 150 q 636 371 636 254 q 597 540 636 488 q 465 593 558 593 q 318 566 406 593 z "},"c":{"ha":863,"x_min":41,"x_max":835,"o":"m 443 -14 q 348 -14 443 -14 q 147 84 253 -14 q 41 371 41 182 q 146 659 41 561 q 439 757 252 757 q 727 697 627 757 q 828 521 828 637 q 816 491 828 503 q 786 479 804 479 l 685 479 q 607 529 639 479 q 466 593 567 593 q 324 541 364 593 q 283 372 283 489 q 325 202 283 254 q 470 150 367 150 q 614 214 574 150 q 692 264 646 264 l 793 264 q 823 252 811 264 q 835 222 835 240 q 734 46 835 106 q 443 -14 633 -14 z "},"d":{"ha":920,"x_min":41,"x_max":836,"o":"m 374 -14 q 303 -14 374 -14 q 137 86 232 -14 q 41 372 41 186 q 140 657 41 558 q 406 757 239 757 q 602 722 492 757 l 602 930 q 613 961 602 949 q 643 972 625 972 l 794 972 q 824 961 812 972 q 836 930 836 949 l 836 41 q 824 12 836 24 q 794 0 812 0 l 664 0 q 634 12 646 0 q 623 41 623 24 l 623 62 q 374 -14 515 -14 m 454 593 q 322 540 361 593 q 283 372 283 488 q 320 203 283 256 q 430 150 357 150 q 602 211 504 150 l 602 566 q 454 593 514 593 z "},"e":{"ha":875,"x_min":41,"x_max":833,"o":"m 146 85 q 94 135 146 85 q 41 371 41 184 q 146 657 41 557 q 438 757 252 757 q 729 660 625 757 q 833 380 833 562 l 833 342 q 822 312 833 323 q 791 300 810 300 l 281 300 q 329 178 288 216 q 460 140 370 140 q 583 181 550 140 q 665 222 616 222 l 766 222 q 797 211 785 222 q 808 180 808 199 q 437 -14 808 -14 q 146 85 250 -14 m 279 443 l 595 443 q 438 603 588 603 q 279 443 288 603 z "},"f":{"ha":667,"x_min":83,"x_max":694,"o":"m 628 814 l 534 825 q 359 789 399 825 q 318 639 318 753 l 318 628 l 564 628 q 594 616 582 628 q 606 586 606 604 l 606 505 q 594 475 606 487 q 564 464 582 464 l 318 464 l 318 41 q 306 12 318 23 q 277 0 294 0 l 125 0 q 95 12 106 0 q 83 41 83 23 l 83 639 q 170 907 83 828 q 472 986 256 986 q 627 978 583 986 q 683 958 671 970 q 694 930 694 946 l 694 856 q 683 826 694 838 q 653 814 671 814 l 628 814 z "},"g":{"ha":905,"x_min":41,"x_max":822,"o":"m 385 57 q 136 150 231 57 q 41 408 41 243 q 149 665 41 572 q 458 757 257 757 q 663 735 557 757 q 822 681 768 713 l 822 53 q 722 -171 822 -98 q 443 -243 623 -243 q 165 -198 262 -243 q 68 -49 68 -153 q 80 -19 68 -31 q 110 -7 92 -7 l 211 -7 q 289 -43 260 -7 q 421 -89 326 -89 q 552 -58 517 -89 q 587 53 587 -26 l 587 85 q 385 57 479 57 m 444 593 q 283 407 283 593 q 440 221 283 221 q 587 241 505 221 l 587 578 q 444 593 529 593 z "},"h":{"ha":947,"x_min":83,"x_max":864,"o":"m 83 41 l 83 930 q 95 961 83 949 q 125 972 107 972 l 277 972 q 306 961 294 972 q 318 930 318 949 l 318 659 q 567 757 435 757 q 781 676 699 757 q 864 431 864 596 l 864 41 q 852 12 864 24 q 822 0 840 0 l 671 0 q 641 12 653 0 q 629 41 629 24 l 629 431 q 500 593 629 593 q 318 496 415 593 l 318 41 q 306 12 318 24 q 277 0 294 0 l 125 0 q 95 12 107 0 q 83 41 83 24 z "},"i":{"ha":407,"x_min":83,"x_max":323,"o":"m 83 885 l 83 908 q 104 965 83 944 q 161 986 125 986 l 245 986 q 302 965 281 986 q 323 908 323 945 l 323 885 q 303 828 323 849 q 245 807 282 807 l 161 807 q 104 828 125 807 q 83 885 83 849 m 86 41 l 86 685 q 98 715 86 703 q 127 726 110 726 l 279 726 q 309 714 298 726 q 321 685 321 703 l 321 41 q 309 12 321 23 q 279 0 297 0 l 127 0 q 98 12 109 0 q 86 41 86 23 z "},"j":{"ha":418,"x_min":-125,"x_max":335,"o":"m -62 -72 l 7 -82 q 71 -44 44 -82 q 97 77 97 -7 l 97 685 q 109 715 97 703 q 139 726 121 726 l 290 726 q 320 714 309 726 q 332 685 332 703 l 332 77 q 69 -243 332 -243 q -83 -229 -24 -243 q -125 -187 -125 -220 l -125 -114 q -113 -84 -125 -96 q -83 -72 -102 -72 l -62 -72 m 94 885 l 94 908 q 115 965 94 944 q 172 986 136 986 l 257 986 q 314 965 293 986 q 335 908 335 945 l 335 885 q 314 828 335 849 q 257 807 293 807 l 172 807 q 115 828 136 807 q 94 885 94 849 z "},"k":{"ha":847,"x_min":83,"x_max":833,"o":"m 833 30 q 798 0 833 0 l 669 0 q 566 64 604 0 l 479 204 q 318 294 424 294 l 318 41 q 306 12 318 23 q 277 0 294 0 l 125 0 q 95 12 106 0 q 83 41 83 23 l 83 930 q 95 961 83 949 q 125 972 107 972 l 277 972 q 307 961 295 972 q 318 930 318 949 l 318 449 q 479 541 436 449 l 545 679 q 585 726 558 708 q 642 743 611 743 l 770 743 q 804 717 804 743 q 793 679 804 702 l 705 494 q 644 415 683 448 q 561 372 606 382 q 705 250 644 347 l 821 64 q 833 30 832 44 z "},"l":{"ha":401,"x_min":83,"x_max":318,"o":"m 83 41 l 83 930 q 95 961 83 949 q 125 972 107 972 l 277 972 q 306 961 294 972 q 318 930 318 949 l 318 41 q 306 12 318 24 q 277 0 294 0 l 125 0 q 95 12 107 0 q 83 41 83 24 z "},"m":{"ha":1396,"x_min":83,"x_max":1312,"o":"m 83 41 l 83 701 q 95 731 83 720 q 125 743 107 743 l 277 743 q 307 731 295 743 q 318 701 318 720 l 318 659 q 414 731 367 706 q 528 757 461 757 q 767 627 686 757 q 1026 757 893 758 q 1235 677 1158 757 q 1312 431 1312 597 l 1312 41 q 1301 12 1312 23 q 1271 0 1289 0 l 1120 0 q 1089 12 1101 0 q 1078 41 1078 24 l 1078 431 q 960 593 1078 593 q 811 489 888 593 q 815 431 815 460 l 815 41 q 803 12 815 23 q 774 0 791 0 l 623 0 q 592 12 604 0 q 581 41 581 24 l 581 431 q 463 593 581 593 q 318 496 387 593 l 318 41 q 306 12 318 23 q 277 0 294 0 l 125 0 q 95 12 106 0 q 83 41 83 23 z "},"n":{"ha":947,"x_min":83,"x_max":864,"o":"m 83 41 l 83 701 q 95 731 83 720 q 125 743 107 743 l 277 743 q 306 731 294 743 q 318 701 318 720 l 318 659 q 567 757 435 757 q 781 676 699 757 q 864 431 864 596 l 864 41 q 852 12 864 24 q 822 0 840 0 l 671 0 q 641 12 653 0 q 629 41 629 24 l 629 431 q 500 593 629 593 q 318 496 415 593 l 318 41 q 306 12 318 24 q 277 0 294 0 l 125 0 q 95 12 107 0 q 83 41 83 24 z "},"o":{"ha":903,"x_min":41,"x_max":861,"o":"m 147 84 q 94 133 147 84 q 41 372 41 182 q 147 660 41 562 q 451 757 253 757 q 755 660 650 757 q 861 372 861 562 q 755 84 861 182 q 451 -14 650 -14 q 147 84 253 -14 m 319 548 q 298 520 319 548 q 277 372 277 493 q 319 196 277 252 q 451 140 361 140 q 584 196 542 140 q 627 372 627 252 q 584 548 627 493 q 451 603 542 603 q 319 548 361 603 z "},"p":{"ha":920,"x_min":83,"x_max":878,"o":"m 83 -187 l 83 701 q 95 731 83 720 q 125 743 107 743 l 256 743 q 285 731 273 743 q 297 701 297 720 l 297 681 q 546 757 404 757 q 783 657 688 757 q 878 371 878 557 q 779 85 878 184 q 514 -14 681 -14 q 318 21 428 -14 l 318 -187 q 306 -217 318 -205 q 277 -229 294 -229 l 125 -229 q 95 -217 107 -229 q 83 -187 83 -205 m 318 178 q 465 150 406 150 q 597 203 558 150 q 636 372 636 256 q 599 540 636 488 q 489 593 562 593 q 318 532 415 593 l 318 178 z "},"q":{"ha":920,"x_min":41,"x_max":836,"o":"m 41 372 q 472 757 41 757 q 676 735 571 757 q 836 681 782 713 l 836 -187 q 824 -217 836 -205 q 794 -229 812 -229 l 643 -229 q 613 -217 625 -229 q 602 -187 602 -205 l 602 21 q 406 -14 492 -14 q 140 85 239 -14 q 41 372 41 184 m 454 150 q 602 178 514 150 l 602 578 q 453 593 543 593 q 323 541 363 593 q 283 372 283 489 q 322 203 283 256 q 454 150 361 150 z "},"r":{"ha":675,"x_min":83,"x_max":661,"o":"m 597 571 l 493 575 q 318 475 401 575 l 318 41 q 306 12 318 23 q 277 0 294 0 l 125 0 q 95 12 106 0 q 83 41 83 23 l 83 701 q 95 731 83 720 q 125 743 107 743 l 277 743 q 307 731 295 743 q 318 701 318 720 l 318 659 q 451 733 387 709 q 619 757 515 757 q 649 745 637 757 q 661 715 661 733 l 661 612 q 649 583 661 594 q 619 571 637 571 l 597 571 z "},"s":{"ha":831,"x_min":41,"x_max":789,"o":"m 41 538 q 395 757 41 757 q 766 562 766 757 q 755 533 766 545 q 725 521 743 521 l 624 521 q 542 562 575 521 q 411 603 509 603 q 277 538 277 603 q 329 487 277 507 q 457 451 382 467 q 608 412 533 436 q 736 337 684 389 q 789 205 789 285 q 416 -14 789 -14 q 43 180 43 -14 q 55 211 43 199 q 85 222 66 222 l 186 222 q 268 181 235 222 q 399 140 301 140 q 554 205 554 140 q 502 256 554 236 q 373 293 449 277 q 222 332 297 309 q 94 408 147 355 q 41 538 41 460 z "},"t":{"ha":625,"x_min":83,"x_max":597,"o":"m 437 147 l 530 155 l 555 155 q 586 144 574 155 q 597 114 597 132 l 597 41 q 586 15 597 26 q 555 0 574 3 q 375 -14 486 -14 q 83 292 83 -14 l 83 930 q 95 961 83 949 q 125 972 107 972 l 277 972 q 306 961 294 972 q 318 930 318 949 l 318 704 l 507 704 q 537 692 525 704 q 549 663 549 681 l 549 582 q 537 552 549 564 q 507 541 525 541 l 318 541 l 318 292 q 351 185 318 222 q 437 147 383 147 z "},"u":{"ha":947,"x_min":83,"x_max":864,"o":"m 83 313 l 83 701 q 95 731 83 720 q 125 743 107 743 l 277 743 q 306 731 294 743 q 318 701 318 720 l 318 313 q 447 150 318 150 q 629 248 532 150 l 629 701 q 641 731 629 720 q 671 743 653 743 l 822 743 q 852 731 840 743 q 864 701 864 720 l 864 41 q 852 12 864 24 q 822 0 840 0 l 671 0 q 641 12 653 0 q 629 41 629 24 l 629 85 q 381 -14 513 -14 q 166 67 249 -14 q 83 313 83 147 z "},"v":{"ha":911,"x_min":14,"x_max":897,"o":"m 49 743 l 179 743 q 234 727 208 743 q 271 684 260 710 l 456 261 l 640 684 q 677 727 651 710 q 732 743 703 743 l 863 743 q 894 726 886 743 q 897 708 897 719 q 890 684 897 698 l 597 60 q 559 17 585 33 q 505 0 533 0 l 406 0 q 352 17 378 0 q 314 60 326 33 l 21 684 q 14 709 14 699 q 49 743 14 743 z "},"w":{"ha":1247,"x_min":14,"x_max":1234,"o":"m 20 684 q 14 713 14 701 q 47 743 14 743 l 174 743 q 231 727 205 743 q 265 684 256 711 l 376 318 l 486 684 q 564 743 505 743 l 684 743 q 761 684 743 743 l 871 318 l 982 684 q 1017 727 991 711 q 1074 743 1042 743 l 1200 743 q 1234 713 1233 743 q 1227 684 1234 701 l 1022 60 q 988 16 1013 32 q 936 0 964 0 l 840 0 q 787 17 812 0 q 754 60 762 33 l 624 464 l 493 60 q 460 17 485 33 q 407 0 435 0 l 311 0 q 259 16 283 0 q 225 60 235 32 l 20 684 z "},"x":{"ha":867,"x_min":21,"x_max":846,"o":"m 24 21 q 21 38 21 28 q 32 60 21 47 l 268 372 l 47 684 q 45 734 26 712 q 68 743 53 743 l 215 743 q 321 684 281 743 l 433 513 l 546 684 q 652 743 586 743 l 799 743 q 822 734 814 743 q 819 684 841 712 l 599 372 l 835 60 q 846 37 846 47 q 843 21 846 26 q 814 0 838 0 l 669 0 q 564 60 607 0 l 433 236 l 302 60 q 197 0 260 0 l 53 0 q 24 21 29 0 z "},"y":{"ha":878,"x_min":22,"x_max":864,"o":"m 228 -71 l 317 -82 q 450 58 412 -82 q 258 128 335 58 q 125 375 180 197 l 24 703 q 22 715 22 708 q 30 732 22 722 q 56 743 39 743 l 197 743 q 235 730 217 743 q 258 697 253 717 l 347 410 q 415 263 380 304 q 496 222 449 222 l 631 697 q 652 730 636 717 q 688 743 668 743 l 831 743 q 856 732 848 743 q 864 714 864 722 q 863 703 864 707 l 685 69 q 567 -171 637 -99 q 387 -243 497 -243 q 230 -235 276 -243 q 173 -215 184 -227 q 161 -187 161 -203 l 161 -113 q 173 -82 161 -94 q 203 -71 184 -71 l 228 -71 z "},"z":{"ha":777,"x_min":35,"x_max":742,"o":"m 35 621 l 35 701 q 46 731 35 720 q 77 743 58 743 l 694 743 q 724 731 713 743 q 736 701 736 720 l 736 636 q 688 538 736 586 l 318 164 l 700 164 q 730 152 718 164 q 742 122 742 140 l 742 41 q 730 12 742 24 q 700 0 718 0 l 77 0 q 46 12 58 0 q 35 41 35 24 l 35 107 q 83 205 35 157 l 440 579 l 77 579 q 46 591 58 579 q 35 621 35 603 z "},"{":{"ha":571,"x_min":14,"x_max":557,"o":"m 14 383 l 14 464 q 25 494 14 482 q 56 505 37 505 l 83 505 q 138 530 115 505 q 161 590 161 554 l 161 758 q 240 963 161 897 q 449 1028 319 1028 l 515 1028 q 545 1016 533 1028 q 557 986 557 1004 l 557 913 q 545 883 557 895 q 515 871 533 871 l 488 871 q 411 836 443 871 q 379 743 379 802 l 379 611 q 337 485 379 533 q 227 424 294 436 q 337 362 294 411 q 379 236 379 314 l 379 104 q 411 11 379 46 q 488 -24 443 -24 l 515 -24 q 545 -36 533 -24 q 557 -65 557 -47 l 557 -139 q 545 -169 557 -157 q 515 -180 533 -180 l 449 -180 q 240 -115 319 -180 q 161 89 161 -50 l 161 257 q 138 317 161 293 q 83 342 115 342 l 56 342 q 25 354 37 342 q 14 383 14 366 z "},"|":{"ha":429,"x_min":97,"x_max":332,"o":"m 97 -187 l 97 930 q 109 961 97 949 q 139 972 121 972 l 290 972 q 320 961 309 972 q 332 930 332 949 l 332 -187 q 320 -217 332 -205 q 290 -229 309 -229 l 139 -229 q 109 -217 121 -229 q 97 -187 97 -205 z "},"}":{"ha":571,"x_min":14,"x_max":557,"o":"m 14 -65 q 25 -36 14 -47 q 56 -24 37 -24 l 83 -24 q 160 11 127 -24 q 192 104 192 46 l 192 236 q 234 362 192 314 q 345 424 277 411 q 234 485 277 436 q 192 611 192 533 l 192 743 q 160 836 192 802 q 83 871 127 871 l 56 871 q 25 883 37 871 q 14 913 14 895 l 14 986 q 25 1016 14 1004 q 56 1028 37 1028 l 122 1028 q 331 963 252 1028 q 410 758 410 897 l 410 590 q 433 530 410 554 q 488 505 456 505 l 515 505 q 545 494 533 505 q 557 464 557 482 l 557 383 q 545 354 557 366 q 515 342 533 342 l 488 342 q 433 317 456 342 q 410 257 410 293 l 410 89 q 331 -115 410 -50 q 122 -180 252 -180 l 56 -180 q 25 -169 37 -180 q 14 -139 14 -157 l 14 -65 z "},"~":{"ha":825,"x_min":41,"x_max":783,"o":"m 41 376 q 96 519 41 468 q 238 570 150 570 q 406 535 326 570 q 537 500 486 500 q 618 526 587 500 q 682 551 648 551 l 749 551 q 773 541 764 551 q 783 517 783 530 q 729 374 783 425 q 587 323 675 323 q 419 358 498 323 q 288 393 339 393 q 207 368 237 393 q 143 342 176 342 l 77 342 q 51 351 61 342 q 41 376 41 361 z "}," ":{"ha":486,"x_min":0,"x_max":0,"o":""},"¡":{"ha":443,"x_min":85,"x_max":358,"o":"m 85 -165 l 104 392 q 124 436 106 418 q 168 454 142 454 l 275 454 q 319 436 301 454 q 339 392 338 418 l 358 -165 q 340 -211 359 -192 q 294 -229 321 -229 l 149 -229 q 103 -211 122 -229 q 85 -165 83 -192 m 89 615 l 89 659 q 113 727 89 703 q 180 750 136 750 l 264 750 q 332 726 309 750 q 355 659 355 703 l 355 615 q 332 548 355 572 q 264 524 309 524 l 180 524 q 112 548 136 524 q 89 615 89 572 z "},"¢":{"ha":863,"x_min":41,"x_max":835,"o":"m 41 371 q 113 622 41 526 q 319 745 184 717 l 319 806 q 331 835 319 823 q 361 847 343 847 l 513 847 q 542 835 530 847 q 554 806 554 823 l 554 750 q 757 676 686 734 q 828 521 828 618 q 816 491 828 503 q 786 479 804 479 l 685 479 q 607 529 639 479 q 466 593 567 593 q 324 541 364 593 q 283 372 283 489 q 325 202 283 254 q 470 150 367 150 q 614 214 574 150 q 692 264 646 264 l 793 264 q 823 252 811 264 q 835 222 835 240 q 762 64 835 122 q 554 -8 689 7 l 554 -62 q 542 -93 554 -81 q 513 -104 530 -104 l 361 -104 q 331 -93 343 -104 q 319 -62 319 -81 l 319 -1 q 41 371 41 58 z "},"£":{"ha":889,"x_min":14,"x_max":875,"o":"m 711 814 l 618 825 q 443 789 484 825 q 401 639 401 753 l 401 600 l 606 600 q 635 588 624 600 q 647 558 647 576 l 647 478 q 635 448 647 460 q 606 436 624 436 l 401 436 l 401 334 q 391 255 401 293 q 371 199 380 216 l 361 180 l 811 180 q 856 162 838 180 q 875 117 875 143 l 875 64 q 856 19 875 37 q 811 0 838 0 l 56 0 q 14 41 14 9 l 14 119 q 25 150 14 138 q 56 161 37 161 l 77 161 q 140 199 114 161 q 167 319 167 236 l 167 639 q 253 907 167 828 q 555 986 339 986 q 736 972 667 986 q 766 958 754 970 q 778 930 778 946 l 778 856 q 766 826 778 838 q 736 814 754 814 l 711 814 z "},"¤":{"ha":1141,"x_min":14,"x_max":1127,"o":"m 1127 30 q 1092 0 1127 0 l 929 0 q 872 19 903 0 q 825 64 842 37 l 710 244 q 538 355 640 355 l 372 355 l 372 64 q 354 19 372 37 q 309 0 335 0 l 180 0 q 135 19 154 0 q 117 64 117 37 l 117 358 l 56 358 q 25 370 37 358 q 14 400 14 382 l 14 424 l 838 424 q 915 365 878 408 q 1000 245 953 321 l 1116 64 q 1127 30 1127 44 m 14 456 l 14 479 q 25 509 14 498 q 56 521 37 521 l 117 521 l 117 908 q 135 954 117 935 q 179 972 153 972 l 739 972 q 993 895 893 972 q 1093 692 1093 818 q 1023 532 1093 590 q 838 456 953 475 l 14 456 m 372 547 l 661 547 q 784 575 730 547 q 838 664 838 603 q 784 753 838 725 q 661 781 730 781 l 372 781 l 372 547 z "},"¥":{"ha":1031,"x_min":14,"x_max":1017,"o":"m 14 940 q 49 972 14 972 l 178 972 q 296 908 254 972 l 515 570 l 734 908 q 852 972 777 972 l 982 972 q 1017 940 1017 972 q 1006 908 1017 925 l 714 458 l 800 458 q 830 447 818 458 q 842 416 842 435 l 842 385 l 667 385 l 643 347 l 842 347 l 842 315 q 830 285 842 297 q 800 273 818 273 l 643 273 l 643 62 q 624 18 643 36 q 579 0 606 0 l 452 0 q 406 18 425 0 q 387 62 387 36 l 387 273 l 231 273 q 201 285 212 273 q 189 315 189 297 l 189 347 l 387 347 l 363 385 l 189 385 l 189 416 q 201 447 189 435 q 231 458 212 458 l 315 458 l 25 908 q 14 940 14 925 z "},"¦":{"ha":401,"x_min":83,"x_max":318,"o":"m 83 -187 l 83 285 q 95 314 83 302 q 125 326 107 326 l 277 326 q 306 314 294 326 q 318 285 318 302 l 318 -187 q 306 -217 318 -205 q 277 -229 294 -229 l 125 -229 q 95 -217 107 -229 q 83 -187 83 -205 m 83 458 l 83 930 q 95 961 83 949 q 125 972 107 972 l 277 972 q 306 961 294 972 q 318 930 318 949 l 318 458 q 306 428 318 440 q 277 416 294 416 l 125 416 q 95 428 107 416 q 83 458 83 440 z "},"§":{"ha":872,"x_min":56,"x_max":817,"o":"m 56 399 q 138 578 56 513 q 69 732 70 642 q 435 986 69 986 q 802 791 802 986 q 790 762 802 773 q 760 750 778 750 l 659 750 q 576 791 610 750 q 457 832 543 832 q 338 810 371 832 q 304 746 304 789 q 342 677 304 703 q 437 638 380 652 q 561 602 494 624 q 684 552 627 579 q 779 471 741 525 q 817 345 817 418 q 734 164 817 231 q 803 11 802 100 q 437 -243 803 -243 q 71 -49 71 -243 q 82 -19 71 -31 q 113 -7 94 -7 l 214 -7 q 296 -48 262 -7 q 415 -89 329 -89 q 535 -67 501 -89 q 568 -3 568 -46 q 530 66 568 40 q 435 105 492 92 q 312 142 378 119 q 189 191 245 164 q 94 272 132 218 q 56 399 56 325 m 290 399 q 345 334 290 360 q 470 287 395 310 l 543 264 q 582 345 582 285 q 561 388 582 372 q 524 411 539 403 q 435 445 486 430 l 328 479 q 290 399 290 456 z "},"¨":{"ha":561,"x_min":0,"x_max":561,"o":"m 0 882 l 0 908 q 21 965 0 944 q 78 986 41 986 l 143 986 q 200 965 179 986 q 221 908 221 945 l 221 882 q 200 825 221 846 q 143 804 179 804 l 78 804 q 21 825 42 804 q 0 882 0 846 m 340 882 l 340 908 q 361 965 340 944 q 418 986 382 986 l 484 986 q 540 965 519 986 q 561 908 561 945 l 561 882 q 540 825 561 846 q 484 804 519 804 l 418 804 q 361 825 382 804 q 340 882 340 846 z "},"©":{"ha":1181,"x_min":41,"x_max":1139,"o":"m 189 46 q 41 445 41 191 q 190 842 41 699 q 590 986 338 986 q 991 842 843 986 q 1139 445 1139 699 q 991 47 1139 191 q 590 -97 843 -97 q 189 46 338 -97 m 870 733 q 821 787 870 733 q 590 840 771 840 q 310 733 410 840 q 211 445 211 627 q 310 156 211 262 q 590 49 410 49 q 870 156 771 49 q 970 445 970 262 q 870 733 970 627 m 840 347 q 591 195 840 195 q 394 258 463 195 q 326 444 326 321 q 394 631 326 567 q 584 694 463 694 q 771 655 705 694 q 836 541 836 616 q 828 522 836 529 q 808 514 819 514 l 743 514 q 693 546 714 514 q 601 587 668 587 q 509 553 534 587 q 484 443 484 519 q 510 333 484 367 q 604 300 536 300 q 694 337 671 300 q 747 375 717 375 l 814 375 q 833 367 825 375 q 840 347 840 358 z "},"ª":{"ha":496,"x_min":28,"x_max":468,"o":"m 28 672 q 208 803 28 803 l 340 803 l 340 814 q 324 859 340 842 q 278 876 307 876 l 237 876 q 167 852 193 876 q 118 825 140 825 l 77 825 q 57 833 67 825 q 46 859 46 840 q 106 941 46 906 q 232 975 165 975 l 273 975 q 417 930 366 975 q 468 815 468 885 l 468 571 q 460 552 468 560 q 439 543 452 543 l 368 543 q 349 551 357 543 q 340 571 340 558 l 340 590 q 215 542 289 541 l 195 542 q 77 572 125 542 q 28 672 28 602 m 204 711 q 161 672 161 711 q 204 633 161 633 l 236 633 q 340 673 302 633 l 340 711 l 204 711 z "},"«":{"ha":692,"x_min":28,"x_max":664,"o":"m 28 364 l 28 397 q 54 460 28 425 l 193 637 q 249 668 216 668 l 332 668 q 357 652 353 668 q 346 612 361 636 l 204 380 l 346 149 q 357 109 361 125 q 332 93 353 93 l 249 93 q 193 123 216 93 l 54 301 q 28 364 28 336 m 637 668 q 664 644 664 668 q 652 612 664 632 l 510 380 l 652 149 q 664 122 664 131 q 663 110 664 113 q 637 93 659 93 l 554 93 q 498 123 522 93 l 359 301 q 334 364 334 336 l 334 397 q 359 460 334 425 l 498 637 q 554 668 522 668 l 637 668 z "},"¬":{"ha":785,"x_min":28,"x_max":757,"o":"m 28 539 l 28 575 q 46 620 28 602 q 92 639 65 639 l 693 639 q 738 621 720 639 q 757 576 757 603 l 757 340 q 738 294 757 313 q 693 275 720 275 l 635 275 q 590 294 608 275 q 571 340 571 313 l 571 475 l 92 475 q 46 494 65 475 q 28 539 28 513 z "},"­":{"ha":650,"x_min":28,"x_max":623,"o":"m 28 386 l 28 467 q 40 497 28 485 q 69 509 52 509 l 581 509 q 611 497 599 509 q 623 467 623 485 l 623 386 q 611 356 623 368 q 581 345 599 345 l 69 345 q 39 356 51 345 q 28 386 28 368 z "},"®":{"ha":1181,"x_min":41,"x_max":1139,"o":"m 189 46 q 41 445 41 191 q 190 842 41 699 q 590 986 338 986 q 991 842 843 986 q 1139 445 1139 699 q 991 47 1139 191 q 590 -97 843 -97 q 189 46 338 -97 m 870 733 q 821 787 870 733 q 590 840 771 840 q 310 733 410 840 q 211 445 211 627 q 310 156 211 262 q 590 49 410 49 q 870 156 771 49 q 970 445 970 262 q 870 733 970 627 m 349 228 l 349 664 q 358 687 349 677 q 382 696 368 696 l 675 696 q 808 653 755 696 q 860 538 860 610 q 726 410 860 435 q 807 329 762 396 l 872 228 q 879 207 879 215 q 860 195 879 195 l 775 195 q 720 228 741 195 l 660 321 q 570 378 623 378 l 482 378 l 482 228 q 472 204 482 214 q 449 195 463 195 l 382 195 q 358 204 368 195 q 349 228 349 214 m 482 476 l 633 476 q 699 491 671 476 q 726 537 726 505 q 699 584 726 570 q 633 597 671 597 l 482 597 l 482 476 z "},"°":{"ha":555,"x_min":41,"x_max":514,"o":"m 109 597 q 75 627 109 597 q 41 761 41 657 q 109 926 41 865 q 278 986 176 986 q 447 926 379 986 q 514 761 514 865 q 447 597 514 657 q 278 536 379 536 q 109 597 176 536 m 211 844 q 198 829 211 844 q 186 761 186 814 q 211 678 186 708 q 278 648 236 648 q 345 678 319 648 q 370 761 370 708 q 345 844 370 814 q 278 873 319 873 q 211 844 236 873 z "},"±":{"ha":650,"x_min":28,"x_max":623,"o":"m 28 446 l 28 526 q 40 556 28 545 q 69 568 52 568 l 239 568 l 239 737 q 251 767 239 755 q 281 779 262 779 l 361 779 q 391 767 379 779 q 403 737 403 755 l 403 568 l 581 568 q 611 556 599 568 q 623 526 623 545 l 623 446 q 611 416 623 427 q 581 404 599 404 l 403 404 l 403 281 l 581 281 q 611 269 599 281 q 623 239 623 257 l 623 158 q 611 128 623 140 q 581 117 599 117 l 69 117 q 39 129 51 117 q 28 158 28 140 l 28 239 q 40 269 28 257 q 69 281 52 281 l 239 281 l 239 404 l 69 404 q 39 416 51 404 q 28 446 28 427 z "},"²":{"ha":478,"x_min":28,"x_max":450,"o":"m 28 571 l 28 614 q 49 690 28 659 q 104 738 71 722 q 175 767 138 754 q 245 786 212 779 q 322 832 322 802 q 248 876 322 876 l 225 876 q 151 844 167 876 q 109 811 135 811 l 58 811 q 38 819 49 811 q 28 844 28 827 q 86 940 28 904 q 215 975 144 975 l 256 975 q 450 832 450 975 q 407 745 450 778 q 309 703 363 713 q 212 679 256 693 q 168 642 168 664 l 416 642 q 437 633 429 642 q 446 612 446 625 l 446 571 q 437 551 446 559 q 416 543 429 543 l 57 543 q 36 551 45 543 q 28 571 28 559 z "},"³":{"ha":486,"x_min":28,"x_max":458,"o":"m 28 664 q 38 690 28 682 q 58 697 49 697 l 100 697 q 133 681 119 697 q 149 663 147 664 q 220 639 170 639 l 268 639 q 332 671 332 639 q 315 703 332 696 q 260 710 298 710 l 205 710 q 186 718 195 710 q 178 739 178 726 l 178 775 q 186 795 178 786 q 205 804 195 804 l 262 804 q 325 840 325 804 q 262 876 325 876 l 222 876 q 151 852 172 876 q 138 838 143 844 q 126 826 132 831 q 103 818 115 818 l 61 818 q 41 826 52 818 q 31 851 31 833 q 90 939 31 903 q 216 975 150 975 l 258 975 q 453 843 453 975 q 403 757 453 789 q 458 671 458 729 q 264 541 458 541 l 214 541 q 87 576 147 541 q 28 664 28 612 z "},"´":{"ha":253,"x_min":0,"x_max":253,"o":"m 5 1126 l 39 1254 q 127 1332 65 1332 l 189 1332 q 248 1303 233 1332 q 253 1277 253 1293 q 239 1240 253 1261 l 165 1112 q 82 1048 127 1048 l 50 1048 q 0 1093 0 1048 q 5 1126 0 1107 z "},"µ":{"ha":947,"x_min":83,"x_max":864,"o":"m 83 -187 l 83 701 q 95 731 83 720 q 125 743 107 743 l 277 743 q 306 731 294 743 q 318 701 318 720 l 318 334 q 358 198 318 245 q 454 150 399 150 q 629 275 554 150 l 629 701 q 641 731 629 720 q 671 743 653 743 l 822 743 q 852 731 840 743 q 864 701 864 720 l 864 41 q 852 12 864 24 q 822 0 840 0 l 671 0 q 641 12 653 0 q 629 41 629 24 l 629 85 q 547 8 583 31 q 458 -14 510 -14 q 318 35 368 -14 l 318 -187 q 306 -217 318 -205 q 277 -229 294 -229 l 125 -229 q 95 -217 107 -229 q 83 -187 83 -205 z "},"¶":{"ha":975,"x_min":41,"x_max":947,"o":"m 334 972 l 905 972 q 936 961 924 972 q 947 930 947 949 l 947 860 q 936 830 947 842 q 905 818 924 818 l 844 818 l 844 -165 q 825 -211 844 -192 q 779 -229 806 -229 l 624 -229 l 624 818 l 554 818 l 554 -229 l 397 -229 q 352 -211 371 -229 q 334 -165 334 -192 l 334 469 q 125 537 208 469 q 41 722 41 604 q 125 906 41 840 q 334 972 208 972 z "},"·":{"ha":545,"x_min":139,"x_max":406,"o":"m 139 447 q 231 539 139 539 l 314 539 q 382 515 358 539 q 406 447 406 492 l 406 404 q 382 337 406 361 q 314 313 358 313 l 231 313 q 162 337 186 313 q 139 404 139 361 l 139 447 z "},"¸":{"ha":532,"x_min":28,"x_max":504,"o":"m 28 682 q 47 729 28 707 l 258 954 q 306 972 277 972 l 414 972 q 433 964 425 972 q 441 945 441 956 l 441 717 l 475 717 q 495 708 487 717 q 504 689 504 700 l 504 646 q 496 626 504 635 q 475 618 488 618 l 441 618 l 441 571 q 433 552 441 560 q 414 543 425 543 l 343 543 q 324 551 332 543 q 315 571 315 558 l 315 618 l 57 618 q 37 626 46 618 q 28 646 28 635 l 28 682 m 178 717 l 315 717 l 315 863 l 178 717 z "},"¹":{"ha":277,"x_min":29,"x_max":249,"o":"m 32 864 q 29 877 29 869 q 39 892 29 884 l 118 958 q 161 972 132 972 l 220 972 q 240 964 232 972 q 249 945 249 956 l 249 571 q 240 551 249 559 q 220 543 232 543 l 150 543 q 131 551 139 543 q 122 571 122 558 l 122 846 l 87 821 q 61 825 72 811 l 32 864 z "},"º":{"ha":507,"x_min":28,"x_max":479,"o":"m 243 541 q 28 758 28 541 q 243 975 28 975 l 264 975 q 479 758 479 975 q 264 541 479 541 l 243 541 m 183 847 q 154 757 154 818 q 183 667 154 696 q 254 639 212 639 q 324 667 296 639 q 353 757 353 696 q 324 847 353 818 q 254 876 296 876 q 183 847 212 876 z "},"»":{"ha":692,"x_min":28,"x_max":664,"o":"m 29 110 q 29 121 29 113 q 40 149 29 129 l 182 380 l 40 612 q 28 640 28 631 q 29 653 29 648 q 54 668 33 668 l 138 668 q 193 637 170 668 l 332 460 q 358 397 358 425 l 358 364 q 332 301 358 336 l 193 123 q 138 93 170 93 l 54 93 q 29 110 33 93 m 334 644 q 359 668 334 668 l 443 668 q 498 637 475 668 l 637 460 q 664 397 664 425 l 664 364 q 637 301 664 336 l 498 123 q 443 93 475 93 l 359 93 q 335 110 339 93 q 334 121 335 113 q 346 149 334 129 l 488 380 l 346 612 q 334 644 334 631 z "},"¼":{"ha":933,"x_min":42,"x_max":892,"o":"m 52 45 l 614 928 q 692 972 642 972 l 786 972 q 819 954 819 972 q 808 928 819 944 l 245 45 q 168 0 218 0 l 74 0 q 42 19 43 0 q 52 45 42 29 m 53 864 q 50 876 50 869 q 60 892 50 883 l 139 958 q 182 972 153 972 l 240 972 q 261 964 252 972 q 269 945 269 956 l 269 571 q 261 552 269 560 q 240 543 253 543 l 171 543 q 152 551 160 543 q 143 571 143 558 l 143 846 l 109 821 q 82 825 93 811 l 53 864 m 415 139 q 435 186 415 164 l 646 411 q 693 429 664 429 l 802 429 q 821 421 812 429 q 829 401 829 412 l 829 174 l 863 174 q 883 165 875 174 q 892 146 892 157 l 892 103 q 883 84 892 92 q 863 75 875 75 l 829 75 l 829 28 q 821 8 829 17 q 802 0 812 0 l 730 0 q 711 8 720 0 q 703 28 703 16 l 703 75 l 444 75 q 424 83 433 75 q 415 103 415 92 l 415 139 m 566 174 l 703 174 l 703 319 l 566 174 z "},"½":{"ha":945,"x_min":41,"x_max":903,"o":"m 52 45 l 614 928 q 692 972 642 972 l 786 972 q 819 954 818 972 q 808 928 819 945 l 245 45 q 168 0 218 0 l 74 0 q 41 20 43 0 q 52 45 41 29 m 53 864 q 50 877 50 869 q 60 892 50 884 l 139 958 q 182 972 153 972 l 240 972 q 261 964 253 972 q 269 945 269 956 l 269 571 q 261 551 269 559 q 240 543 253 543 l 171 543 q 152 551 160 543 q 143 571 143 558 l 143 846 l 109 821 q 82 825 93 811 l 53 864 m 481 28 l 481 71 q 502 147 481 115 q 557 195 524 179 q 628 223 590 211 q 699 243 665 236 q 775 289 775 260 q 700 334 775 334 l 677 334 q 602 296 619 334 q 561 268 587 268 l 511 268 q 491 276 501 268 q 481 301 481 283 q 539 396 481 361 q 668 432 597 432 l 708 432 q 903 289 903 432 q 859 202 903 235 q 762 160 815 170 q 664 135 708 150 q 621 98 621 121 l 869 98 q 890 90 882 98 q 899 69 899 82 l 899 28 q 890 8 899 17 q 869 0 882 0 l 510 0 q 489 8 497 0 q 481 28 481 17 z "},"¾":{"ha":1055,"x_min":41,"x_max":1014,"o":"m 41 664 q 52 690 41 682 q 72 697 62 697 l 114 697 q 147 681 133 697 q 163 663 161 664 q 233 639 184 639 l 282 639 q 346 671 346 639 q 329 703 346 696 q 273 710 313 710 l 220 710 q 200 718 209 710 q 192 739 192 726 l 192 775 q 200 795 192 786 q 220 804 208 804 l 277 804 q 339 840 339 804 q 277 876 339 876 l 236 876 q 165 852 186 876 q 150 836 154 841 q 140 826 146 831 q 117 818 130 818 l 75 818 q 55 826 66 818 q 45 851 45 833 q 104 939 45 903 q 231 975 164 975 l 272 975 q 467 843 467 975 q 416 757 467 789 q 472 671 472 729 q 278 541 472 540 l 228 541 q 101 576 161 541 q 41 664 41 612 m 174 45 l 736 928 q 814 972 764 972 l 908 972 q 941 954 941 972 q 930 928 941 944 l 368 45 q 290 0 340 0 l 196 0 q 164 19 165 0 q 174 45 164 29 m 538 139 q 557 186 538 164 l 768 411 q 815 429 787 429 l 924 429 q 943 421 935 429 q 951 401 951 412 l 951 174 l 985 174 q 1005 165 997 174 q 1014 146 1014 157 l 1014 103 q 1005 84 1014 92 q 985 75 997 75 l 951 75 l 951 28 q 943 8 951 17 q 924 0 935 0 l 852 0 q 833 8 842 0 q 825 28 825 16 l 825 75 l 567 75 q 547 83 556 75 q 538 103 538 92 l 538 139 m 688 174 l 825 174 l 825 319 l 688 174 z "},"¿":{"ha":909,"x_min":56,"x_max":896,"o":"m 56 68 q 88 186 56 136 q 168 262 121 236 q 262 310 215 289 q 342 355 310 330 q 375 406 375 380 q 387 443 375 431 q 416 454 399 454 l 570 454 q 600 443 588 454 q 611 412 611 431 q 589 310 611 354 q 533 239 567 265 q 461 192 500 214 q 389 155 422 170 q 311 64 311 119 q 348 -17 311 9 q 465 -43 385 -43 l 500 -43 q 654 40 612 -43 q 746 104 685 104 l 827 104 q 877 81 859 104 q 896 29 896 57 q 779 -160 896 -86 q 524 -235 663 -235 l 446 -235 q 56 68 56 -235 m 358 659 q 450 750 358 750 l 533 750 q 602 726 578 750 q 625 659 625 703 l 625 615 q 602 548 625 572 q 533 524 578 524 l 450 524 q 382 548 406 524 q 358 615 358 572 l 358 659 z "},"À":{"ha":1158,"x_min":14,"x_max":1061,"o":"m 17 62 l 187 708 q 637 972 258 972 l 1003 972 q 1045 954 1028 972 q 1061 909 1061 936 l 1061 62 q 1043 18 1061 36 q 997 0 1025 0 l 869 0 q 824 19 843 0 q 806 64 806 38 l 806 235 l 323 235 l 278 64 q 197 0 261 0 l 64 0 q 26 15 37 0 q 15 41 14 29 q 17 62 15 53 m 374 427 l 806 427 l 806 781 l 612 781 q 433 644 469 781 l 374 427 m 554 1332 l 615 1332 q 704 1254 677 1332 l 737 1126 q 743 1093 743 1107 q 693 1048 743 1048 l 661 1048 q 578 1112 615 1048 l 504 1240 q 490 1278 490 1262 q 554 1332 490 1332 z "},"Á":{"ha":1158,"x_min":14,"x_max":1061,"o":"m 17 62 l 187 708 q 637 972 258 972 l 1003 972 q 1045 954 1028 972 q 1061 909 1061 936 l 1061 62 q 1043 18 1061 36 q 997 0 1025 0 l 869 0 q 824 19 843 0 q 806 64 806 38 l 806 235 l 323 235 l 278 64 q 197 0 261 0 l 64 0 q 26 15 37 0 q 15 41 14 29 q 17 62 15 53 m 374 427 l 806 427 l 806 781 l 612 781 q 433 644 469 781 l 374 427 m 603 1126 l 636 1254 q 725 1332 663 1332 l 786 1332 q 844 1303 831 1332 q 850 1277 850 1293 q 836 1240 850 1261 l 762 1112 q 679 1048 725 1048 l 647 1048 q 597 1093 597 1048 q 603 1126 597 1107 z "},"Â":{"ha":1158,"x_min":14,"x_max":1061,"o":"m 17 62 l 187 708 q 637 972 256 972 l 1003 972 q 1045 954 1028 972 q 1061 909 1061 935 l 1061 62 q 1042 18 1061 36 q 997 0 1023 0 l 869 0 q 824 18 842 0 q 806 64 806 36 l 806 235 l 323 235 l 278 64 q 248 18 271 36 q 197 0 224 0 l 64 0 q 26 15 37 0 q 15 42 14 31 q 17 62 15 54 m 374 427 l 806 427 l 806 781 l 612 781 q 499 744 547 781 q 433 644 450 707 l 374 427 m 433 1065 q 429 1083 429 1073 q 441 1104 429 1093 l 547 1202 q 647 1261 610 1261 l 730 1261 q 831 1202 768 1261 l 937 1104 q 946 1065 957 1086 q 909 1044 935 1044 l 811 1044 q 713 1101 772 1044 l 689 1122 l 667 1101 q 568 1044 607 1044 l 469 1044 q 433 1065 444 1044 z "},"Ã":{"ha":1158,"x_min":14,"x_max":1061,"o":"m 17 62 l 187 708 q 637 972 256 972 l 1003 972 q 1045 954 1028 972 q 1061 909 1061 935 l 1061 62 q 1042 18 1061 36 q 997 0 1023 0 l 869 0 q 824 18 842 0 q 806 64 806 36 l 806 235 l 323 235 l 278 64 q 248 18 271 36 q 197 0 224 0 l 64 0 q 26 15 37 0 q 15 42 14 31 q 17 62 15 54 m 374 427 l 806 427 l 806 781 l 612 781 q 499 744 547 781 q 433 644 450 707 l 374 427 m 458 1076 q 502 1211 458 1165 q 595 1257 546 1257 q 696 1229 644 1257 q 772 1202 747 1202 q 811 1226 796 1202 q 846 1250 827 1250 l 901 1250 q 922 1229 922 1250 q 879 1094 922 1140 q 786 1048 836 1048 q 686 1076 736 1048 q 611 1104 636 1104 q 570 1080 586 1104 q 534 1055 554 1055 l 479 1055 q 458 1076 458 1055 z "},"Ä":{"ha":1158,"x_min":18,"x_max":1065,"o":"m 21 62 l 192 708 q 642 972 262 972 l 1007 972 q 1049 954 1032 972 q 1065 909 1065 936 l 1065 62 q 1047 18 1065 36 q 1002 0 1029 0 l 873 0 q 828 19 847 0 q 810 64 810 38 l 810 235 l 328 235 l 282 64 q 201 0 265 0 l 68 0 q 30 15 41 0 q 19 41 18 29 q 21 62 19 53 m 378 427 l 810 427 l 810 781 l 616 781 q 437 644 473 781 l 378 427 m 403 1147 l 403 1174 q 481 1251 403 1252 l 546 1251 q 624 1174 624 1251 l 624 1147 q 546 1069 624 1069 l 481 1069 q 403 1147 403 1069 m 743 1147 l 743 1174 q 821 1251 743 1252 l 886 1251 q 964 1174 964 1251 l 964 1147 q 886 1069 964 1069 l 821 1069 q 743 1147 743 1069 z "},"Å":{"ha":1158,"x_min":14,"x_max":1061,"o":"m 17 62 l 187 708 q 637 972 256 972 l 1003 972 q 1045 954 1028 972 q 1061 909 1061 935 l 1061 62 q 1042 18 1061 36 q 997 0 1023 0 l 869 0 q 824 18 842 0 q 806 64 806 36 l 806 235 l 323 235 l 278 64 q 248 18 271 36 q 197 0 224 0 l 64 0 q 26 15 37 0 q 15 42 14 31 q 17 62 15 54 m 374 427 l 806 427 l 806 781 l 612 781 q 499 744 547 781 q 433 644 450 707 l 374 427 m 799 1336 q 854 1204 854 1289 q 801 1071 854 1120 q 665 1022 747 1022 q 528 1071 582 1022 q 475 1204 475 1120 q 530 1336 475 1289 q 665 1383 582 1383 q 799 1336 747 1383 m 664 1293 q 628 1293 664 1293 q 591 1203 591 1293 q 664 1112 591 1112 q 737 1203 737 1112 q 664 1293 737 1293 z "},"Æ":{"ha":1715,"x_min":14,"x_max":1687,"o":"m 17 62 l 187 708 q 637 972 256 972 l 1624 972 q 1669 954 1650 972 q 1687 908 1687 935 l 1687 844 q 1669 799 1687 818 q 1624 781 1650 781 l 1034 781 l 1034 583 l 1541 583 q 1587 565 1568 583 q 1605 519 1605 546 l 1605 456 q 1587 411 1605 429 q 1541 392 1568 392 l 1034 392 l 1034 192 l 1622 192 q 1667 174 1649 192 q 1685 129 1685 155 l 1685 64 q 1666 19 1685 37 q 1621 0 1647 0 l 842 0 q 797 19 815 0 q 778 65 778 37 l 778 235 l 323 235 l 278 64 q 248 18 271 36 q 197 0 224 0 l 64 0 q 26 15 37 0 q 15 42 14 31 q 17 62 15 54 m 374 427 l 778 427 l 778 781 l 612 781 q 499 744 547 781 q 433 644 450 707 l 374 427 z "},"Ç":{"ha":1135,"x_min":41,"x_max":1100,"o":"m 486 -3 q 151 133 261 13 q 41 495 41 253 q 545 978 41 978 l 696 978 q 968 898 850 978 q 1086 679 1086 818 q 1063 622 1086 639 q 1017 604 1039 604 l 936 604 q 839 679 873 604 q 672 786 789 786 l 551 786 q 350 722 403 786 q 297 486 297 659 q 350 250 297 314 q 551 186 403 186 l 686 186 q 852 293 803 186 q 950 368 887 368 l 1031 368 q 1081 345 1063 368 q 1100 293 1100 321 q 982 74 1100 154 q 710 -5 864 -5 l 625 -5 l 625 -54 q 777 -183 777 -66 q 555 -330 777 -330 l 498 -330 q 471 -302 471 -330 l 471 -245 q 498 -218 471 -218 l 555 -218 q 646 -183 646 -218 q 554 -147 646 -147 l 514 -147 q 486 -119 486 -147 l 486 -3 z "},"È":{"ha":1035,"x_min":97,"x_max":1007,"o":"m 97 65 l 97 909 q 116 954 97 935 q 161 972 135 972 l 943 972 q 988 954 970 972 q 1007 908 1007 935 l 1007 844 q 988 799 1007 818 q 943 781 970 781 l 353 781 l 353 583 l 861 583 q 906 564 886 583 q 925 519 925 545 l 925 456 q 906 411 925 431 q 861 392 886 392 l 353 392 l 353 192 l 942 192 q 986 174 968 192 q 1004 129 1004 155 l 1004 64 q 985 19 1004 37 q 940 0 966 0 l 161 0 q 116 19 135 0 q 97 65 97 37 m 389 1303 q 447 1332 403 1332 l 509 1332 q 597 1254 571 1332 l 631 1126 q 636 1093 636 1107 q 586 1048 636 1048 l 554 1048 q 471 1112 509 1048 l 397 1240 q 383 1278 383 1263 q 389 1303 383 1293 z "},"É":{"ha":1035,"x_min":97,"x_max":1007,"o":"m 97 65 l 97 909 q 116 954 97 935 q 161 972 135 972 l 943 972 q 988 954 970 972 q 1007 908 1007 935 l 1007 844 q 988 799 1007 818 q 943 781 970 781 l 353 781 l 353 583 l 861 583 q 906 564 886 583 q 925 519 925 545 l 925 456 q 906 411 925 431 q 861 392 886 392 l 353 392 l 353 192 l 942 192 q 986 174 968 192 q 1004 129 1004 155 l 1004 64 q 985 19 1004 37 q 940 0 966 0 l 161 0 q 116 19 135 0 q 97 65 97 37 m 496 1126 l 529 1254 q 618 1332 555 1332 l 679 1332 q 737 1303 724 1332 q 743 1277 743 1293 q 729 1240 743 1261 l 656 1112 q 572 1048 618 1048 l 541 1048 q 490 1093 490 1048 q 496 1126 490 1107 z "},"Ê":{"ha":1035,"x_min":97,"x_max":1007,"o":"m 97 65 l 97 909 q 116 954 97 936 q 161 972 135 972 l 943 972 q 988 954 970 972 q 1007 908 1007 935 l 1007 844 q 988 799 1007 818 q 943 781 970 781 l 353 781 l 353 583 l 861 583 q 906 565 888 583 q 925 519 925 546 l 925 456 q 906 411 925 429 q 861 392 888 392 l 353 392 l 353 192 l 942 192 q 986 174 968 192 q 1004 129 1004 155 l 1004 64 q 985 19 1004 37 q 940 0 966 0 l 161 0 q 116 19 135 0 q 97 65 97 37 m 289 1068 q 285 1085 285 1075 q 297 1107 285 1096 l 403 1204 q 503 1264 465 1264 l 586 1264 q 686 1204 624 1264 l 793 1107 q 806 1085 806 1096 q 802 1068 806 1075 q 765 1047 790 1047 l 667 1047 q 568 1104 628 1047 l 545 1125 l 522 1104 q 424 1047 463 1047 l 325 1047 q 289 1068 300 1047 z "},"Ë":{"ha":1035,"x_min":97,"x_max":1007,"o":"m 97 65 l 97 909 q 116 954 97 936 q 161 972 135 972 l 943 972 q 988 954 970 972 q 1007 908 1007 935 l 1007 844 q 988 799 1007 818 q 943 781 970 781 l 353 781 l 353 583 l 861 583 q 906 565 888 583 q 925 519 925 546 l 925 456 q 906 411 925 429 q 861 392 888 392 l 353 392 l 353 192 l 942 192 q 986 174 968 192 q 1004 129 1004 155 l 1004 64 q 985 19 1004 37 q 940 0 966 0 l 161 0 q 116 19 135 0 q 97 65 97 37 m 278 1139 l 278 1165 q 299 1222 278 1202 q 355 1243 319 1243 l 421 1243 q 478 1222 457 1243 q 498 1165 498 1202 l 498 1139 q 478 1082 498 1103 q 421 1061 457 1061 l 355 1061 q 299 1082 319 1061 q 278 1139 278 1103 m 618 1139 l 618 1165 q 639 1222 618 1202 q 696 1243 660 1243 l 761 1243 q 818 1222 798 1243 q 839 1165 839 1202 l 839 1139 q 818 1082 839 1103 q 761 1061 798 1061 l 696 1061 q 639 1082 660 1061 q 618 1139 618 1103 z "},"Ì":{"ha":450,"x_min":36,"x_max":353,"o":"m 41 1303 q 100 1332 56 1332 l 161 1332 q 250 1254 224 1332 l 283 1126 q 289 1093 289 1107 q 239 1048 289 1048 l 207 1048 q 123 1112 161 1048 l 50 1240 q 36 1278 36 1263 q 41 1303 36 1293 m 97 62 l 97 908 q 116 954 97 935 q 161 972 135 972 l 288 972 q 334 954 315 972 q 353 908 353 935 l 353 64 q 333 19 353 39 q 288 0 314 0 l 161 0 q 116 19 135 0 q 97 62 97 37 z "},"Í":{"ha":452,"x_min":97,"x_max":424,"o":"m 97 62 l 97 908 q 116 954 97 935 q 161 972 135 972 l 288 972 q 334 954 315 972 q 353 908 353 935 l 353 64 q 333 19 353 39 q 288 0 314 0 l 161 0 q 116 19 135 0 q 97 62 97 37 m 176 1126 l 210 1254 q 298 1332 236 1332 l 359 1332 q 418 1303 404 1332 q 424 1277 424 1293 q 410 1240 424 1261 l 336 1112 q 253 1048 298 1048 l 221 1048 q 171 1093 171 1048 q 176 1126 171 1107 z "},"Î":{"ha":465,"x_min":-28,"x_max":493,"o":"m -24 1054 q -28 1072 -28 1061 q -16 1093 -28 1082 l 90 1190 q 191 1250 153 1250 l 273 1250 q 374 1190 311 1250 l 481 1093 q 493 1072 493 1082 q 489 1054 493 1061 q 453 1034 478 1033 l 354 1034 q 256 1090 315 1034 l 232 1111 l 210 1090 q 111 1034 150 1034 l 12 1034 q -24 1054 -13 1033 m 104 62 l 104 908 q 123 954 104 935 q 168 972 142 972 l 294 972 q 341 954 322 972 q 359 908 359 935 l 359 64 q 340 19 359 37 q 294 0 321 0 l 168 0 q 123 18 142 0 q 104 62 104 36 z "},"Ï":{"ha":478,"x_min":-41,"x_max":519,"o":"m -41 1125 l -41 1152 q -21 1208 -41 1187 q 36 1229 0 1229 l 102 1229 q 158 1208 138 1229 q 179 1152 179 1187 l 179 1125 q 158 1068 179 1089 q 102 1047 138 1047 l 36 1047 q -21 1068 0 1047 q -41 1125 -41 1089 m 111 62 l 111 908 q 130 954 111 935 q 175 972 149 972 l 301 972 q 348 954 329 972 q 367 908 367 935 l 367 64 q 347 19 367 37 q 301 0 328 0 l 175 0 q 130 18 149 0 q 111 62 111 36 m 298 1125 l 298 1152 q 319 1208 298 1187 q 376 1229 340 1229 l 441 1229 q 499 1208 478 1229 q 519 1152 519 1187 l 519 1125 q 499 1068 519 1089 q 441 1047 478 1047 l 376 1047 q 319 1068 340 1047 q 298 1125 298 1089 z "},"Ð":{"ha":1173,"x_min":0,"x_max":1131,"o":"m 0 444 l 0 514 q 12 544 0 532 q 41 555 24 555 l 125 555 l 125 907 q 144 954 125 935 q 189 972 163 972 l 568 972 q 997 855 863 972 q 1131 486 1131 737 q 997 117 1131 235 q 568 0 863 0 l 189 0 q 144 18 163 0 q 125 62 125 36 l 125 403 l 41 403 q 12 415 24 403 q 0 444 0 427 m 380 192 l 561 192 q 809 258 743 192 q 875 486 875 325 q 809 714 875 647 q 561 781 743 781 l 380 781 l 380 555 l 500 555 q 530 544 518 555 q 542 514 542 532 l 542 444 q 530 415 542 427 q 500 403 518 403 l 380 403 l 380 192 z "},"Ñ":{"ha":1204,"x_min":97,"x_max":1107,"o":"m 97 64 l 97 908 q 115 954 97 935 q 160 972 134 972 l 359 972 q 410 954 383 972 q 453 908 436 935 l 863 278 l 863 909 q 881 954 863 936 q 926 972 900 972 l 1043 972 q 1088 954 1069 972 q 1107 908 1107 936 l 1107 64 q 1088 19 1107 37 q 1043 0 1069 0 l 818 0 q 764 19 791 0 q 720 64 736 37 l 345 646 l 345 64 q 326 19 345 37 q 281 0 307 0 l 161 0 q 116 19 135 0 q 97 64 97 37 m 397 1035 q 441 1170 397 1124 q 534 1215 485 1215 q 635 1187 583 1215 q 710 1160 686 1160 q 750 1184 734 1160 q 785 1208 765 1208 l 840 1208 q 861 1187 861 1208 q 818 1053 861 1099 q 725 1007 775 1007 q 625 1035 675 1007 q 550 1063 575 1063 q 509 1038 525 1063 q 473 1014 493 1014 l 418 1014 q 397 1035 397 1014 z "},"Ò":{"ha":1175,"x_min":41,"x_max":1133,"o":"m 587 -21 q 41 486 41 -21 q 587 993 41 993 q 1133 486 1133 993 q 587 -21 1133 -21 m 587 810 q 297 486 297 810 q 587 163 297 163 q 878 486 878 163 q 587 810 878 810 m 416 1303 q 475 1332 431 1332 l 536 1332 q 625 1254 599 1332 l 659 1126 q 664 1093 664 1107 q 614 1048 664 1048 l 582 1048 q 498 1112 536 1048 l 425 1240 q 411 1278 411 1263 q 416 1303 411 1293 z "},"Ó":{"ha":1175,"x_min":41,"x_max":1133,"o":"m 587 -21 q 41 486 41 -21 q 587 993 41 993 q 1133 486 1133 993 q 587 -21 1133 -21 m 587 810 q 297 486 297 810 q 587 163 297 163 q 878 486 878 163 q 587 810 878 810 m 538 1126 l 571 1254 q 660 1332 597 1332 l 721 1332 q 779 1303 765 1332 q 785 1277 785 1293 q 771 1240 785 1261 l 697 1112 q 614 1048 660 1048 l 582 1048 q 532 1093 532 1048 q 538 1126 532 1107 z "},"Ô":{"ha":1175,"x_min":41,"x_max":1133,"o":"m 995 101 q 925 40 995 101 q 588 -21 856 -21 q 180 101 319 -21 q 41 486 41 222 q 180 871 41 750 q 588 993 319 993 q 995 871 856 993 q 1133 486 1133 750 q 995 101 1133 222 m 809 728 q 775 769 809 728 q 588 810 741 810 q 366 728 435 810 q 297 486 297 647 q 366 244 297 325 q 588 163 435 163 q 809 244 741 163 q 878 486 878 325 q 809 728 878 647 m 378 1093 q 345 1107 353 1093 q 338 1131 338 1121 q 350 1153 338 1140 l 456 1250 q 555 1310 518 1310 l 639 1310 q 739 1250 676 1310 l 846 1153 q 859 1131 859 1140 q 851 1107 859 1121 q 818 1093 843 1093 l 720 1093 q 621 1150 681 1093 l 597 1171 l 575 1150 q 476 1093 515 1093 l 378 1093 z "},"Õ":{"ha":1175,"x_min":41,"x_max":1133,"o":"m 995 101 q 925 40 995 101 q 588 -21 856 -21 q 180 101 319 -21 q 41 486 41 222 q 180 871 41 750 q 588 993 319 993 q 995 871 856 993 q 1133 486 1133 750 q 995 101 1133 222 m 809 728 q 775 769 809 728 q 588 810 741 810 q 366 728 435 810 q 297 486 297 647 q 366 244 297 325 q 588 163 435 163 q 809 244 741 163 q 878 486 878 325 q 809 728 878 647 m 355 1076 q 399 1211 355 1165 q 492 1257 443 1257 q 593 1229 542 1257 q 669 1202 644 1202 q 708 1226 693 1202 q 743 1250 724 1250 l 799 1250 q 819 1229 819 1250 q 776 1094 819 1140 q 683 1048 733 1048 q 583 1076 633 1048 q 508 1104 533 1104 q 468 1080 484 1104 q 432 1055 452 1055 l 376 1055 q 355 1076 355 1055 z "},"Ö":{"ha":1175,"x_min":41,"x_max":1133,"o":"m 587 -21 q 41 486 41 -21 q 587 993 41 993 q 1133 486 1133 993 q 587 -21 1133 -21 m 587 810 q 297 486 297 810 q 587 163 297 163 q 878 486 878 163 q 587 810 878 810 m 311 1152 l 311 1178 q 389 1255 311 1255 l 454 1255 q 532 1178 532 1255 l 532 1152 q 454 1074 532 1074 l 389 1074 q 311 1152 311 1074 m 652 1152 l 652 1178 q 729 1255 652 1255 l 794 1255 q 872 1178 872 1255 l 872 1152 q 794 1074 872 1074 l 729 1074 q 652 1152 652 1074 z "},"×":{"ha":650,"x_min":72,"x_max":575,"o":"m 85 249 q 72 278 72 261 q 85 307 72 294 l 205 427 l 85 547 q 72 576 73 559 q 85 606 72 593 l 142 663 q 172 675 154 675 q 201 663 189 675 l 321 543 l 447 668 q 476 681 459 680 q 505 668 493 681 l 562 611 q 575 582 574 599 q 562 553 575 566 l 436 427 l 562 301 q 575 272 574 289 q 562 243 575 256 l 505 184 q 476 172 493 172 q 447 184 460 172 l 321 311 l 201 192 q 172 179 189 180 q 142 192 154 179 l 85 249 z "},"Ø":{"ha":1175,"x_min":41,"x_max":1133,"o":"m 1088 972 q 1128 940 1128 972 q 1111 908 1128 925 l 1035 828 q 1133 486 1133 689 q 995 101 1133 222 q 587 -21 856 -21 q 288 46 418 -21 q 278 37 285 43 l 267 29 q 243 12 258 20 l 231 5 q 201 0 217 0 l 87 0 q 50 22 56 0 q 49 37 49 26 q 64 64 49 47 l 139 144 q 41 486 41 282 q 180 871 41 750 q 587 993 319 993 q 888 925 762 993 q 974 972 935 972 l 1088 972 m 297 486 q 317 334 297 393 l 736 782 q 587 810 673 810 q 366 728 435 810 q 297 486 297 647 m 437 191 q 587 163 500 163 q 809 244 741 163 q 878 486 878 325 q 857 637 878 572 l 437 191 z "},"Ù":{"ha":1145,"x_min":83,"x_max":1061,"o":"m 83 385 l 83 908 q 102 954 83 935 q 149 972 121 972 l 275 972 q 320 954 301 972 q 339 908 339 935 l 339 383 q 518 186 339 186 l 627 186 q 806 383 806 186 l 806 908 q 824 954 806 935 q 869 972 843 972 l 996 972 q 1042 954 1023 972 q 1061 908 1061 935 l 1061 385 q 954 97 1061 200 q 633 -5 843 -5 l 511 -5 q 192 97 302 -5 q 83 385 83 200 m 403 1275 q 461 1304 416 1304 l 522 1304 q 611 1226 585 1304 l 644 1099 q 650 1065 650 1079 q 600 1021 650 1021 l 568 1021 q 485 1084 522 1021 l 411 1213 q 397 1250 397 1235 q 403 1275 397 1265 z "},"Ú":{"ha":1145,"x_min":83,"x_max":1061,"o":"m 83 385 l 83 908 q 102 954 83 935 q 149 972 121 972 l 275 972 q 320 954 301 972 q 339 908 339 935 l 339 383 q 518 186 339 186 l 627 186 q 806 383 806 186 l 806 908 q 824 954 806 935 q 869 972 843 972 l 996 972 q 1042 954 1023 972 q 1061 908 1061 935 l 1061 385 q 954 97 1061 200 q 633 -5 843 -5 l 511 -5 q 192 97 302 -5 q 83 385 83 200 m 510 1099 l 543 1226 q 632 1304 570 1304 l 693 1304 q 751 1275 737 1304 q 757 1250 757 1265 q 743 1213 757 1234 l 669 1084 q 586 1021 632 1021 l 554 1021 q 504 1065 504 1021 q 510 1099 504 1079 z "},"Û":{"ha":1145,"x_min":83,"x_max":1061,"o":"m 83 385 l 83 908 q 102 954 83 935 q 149 972 121 972 l 275 972 q 320 954 301 972 q 339 908 339 935 l 339 383 q 383 235 339 283 q 518 186 427 186 l 627 186 q 762 235 718 186 q 806 383 806 283 l 806 908 q 824 954 806 935 q 869 972 843 972 l 996 972 q 1042 954 1023 972 q 1061 908 1061 935 l 1061 385 q 952 97 1061 199 q 633 -5 843 -5 l 511 -5 q 192 97 301 -5 q 83 385 83 199 m 315 1038 q 311 1055 311 1044 q 323 1076 311 1065 l 429 1174 q 529 1234 492 1234 l 612 1234 q 713 1174 650 1234 l 819 1076 q 832 1055 832 1065 q 828 1038 832 1044 q 791 1017 817 1017 l 693 1017 q 595 1074 654 1017 l 571 1095 l 549 1074 q 450 1017 489 1017 l 351 1017 q 315 1038 326 1017 z "},"Ü":{"ha":1145,"x_min":83,"x_max":1061,"o":"m 83 385 l 83 908 q 102 954 83 935 q 149 972 121 972 l 275 972 q 320 954 301 972 q 339 908 339 935 l 339 383 q 518 186 339 186 l 627 186 q 806 383 806 186 l 806 908 q 824 954 806 935 q 869 972 843 972 l 996 972 q 1042 954 1023 972 q 1061 908 1061 935 l 1061 385 q 954 97 1061 200 q 633 -5 843 -5 l 511 -5 q 192 97 302 -5 q 83 385 83 200 m 296 1122 l 296 1149 q 374 1226 296 1226 l 439 1226 q 517 1149 517 1226 l 517 1122 q 439 1044 517 1044 l 374 1044 q 296 1122 296 1044 m 636 1122 l 636 1149 q 714 1226 636 1226 l 779 1226 q 857 1149 857 1226 l 857 1122 q 779 1044 857 1044 l 714 1044 q 636 1122 636 1044 z "},"Ý":{"ha":1032,"x_min":14,"x_max":1017,"o":"m 982 972 q 1017 940 1017 972 q 1006 908 1017 926 l 643 347 l 643 62 q 625 18 643 36 q 579 0 607 0 l 452 0 q 406 19 425 0 q 387 62 387 37 l 387 347 l 25 908 q 14 940 16 925 q 17 953 16 947 q 49 972 24 972 l 178 972 q 296 908 254 972 l 515 570 l 734 908 q 852 972 777 972 l 982 972 m 478 1126 l 511 1254 q 600 1332 538 1332 l 661 1332 q 720 1303 705 1332 q 725 1277 725 1293 q 711 1240 725 1261 l 637 1112 q 554 1048 600 1048 l 522 1048 q 472 1093 472 1048 q 478 1126 472 1107 z "},"Þ":{"ha":1053,"x_min":97,"x_max":1011,"o":"m 97 21 l 97 951 q 116 997 97 978 q 163 1015 135 1015 l 288 1015 q 334 997 315 1015 q 353 951 353 978 l 353 885 l 486 885 q 1011 486 1011 885 q 486 87 1011 87 l 353 87 l 353 21 q 333 -24 353 -5 q 288 -43 314 -43 l 163 -43 q 117 -24 136 -43 q 97 21 97 -5 m 346 271 l 485 271 q 687 320 618 271 q 755 486 755 370 q 687 652 755 603 q 485 701 618 701 l 346 701 l 346 271 z "},"ß":{"ha":1088,"x_min":97,"x_max":1046,"o":"m 97 64 l 97 668 q 456 972 97 972 l 525 972 q 798 907 690 972 q 905 710 905 842 q 854 606 905 656 q 803 522 803 555 q 828 479 803 503 q 888 429 852 456 q 960 370 924 401 q 1021 296 996 339 q 1046 205 1046 253 q 956 40 1046 93 q 705 -14 865 -14 q 457 32 545 -14 q 370 180 370 77 q 381 211 370 199 q 411 222 393 222 l 513 222 q 594 181 561 222 q 690 140 628 140 q 811 205 811 140 q 718 314 811 257 l 640 363 q 574 420 602 386 q 547 496 547 454 q 573 568 547 538 q 624 624 599 599 q 650 687 650 648 q 615 757 650 725 q 528 789 581 789 l 454 789 q 366 755 400 789 q 332 664 332 721 l 332 64 q 313 19 332 37 q 268 0 294 0 l 161 0 q 116 19 135 0 q 97 64 97 37 z "},"à":{"ha":905,"x_min":41,"x_max":822,"o":"m 132 49 q 87 80 132 49 q 41 225 41 111 q 131 400 41 339 q 363 461 220 461 l 587 461 q 553 572 587 542 q 438 603 522 603 q 321 562 355 603 q 239 521 288 521 l 138 521 q 96 562 96 521 q 465 757 96 757 q 720 689 627 757 q 822 461 823 611 l 822 41 q 781 0 822 0 l 650 0 q 608 41 608 0 l 608 62 q 362 -14 503 -14 q 132 49 222 -14 m 277 225 q 383 140 277 140 q 587 201 489 140 l 587 307 l 379 307 q 302 283 333 307 q 277 225 277 261 m 336 1096 l 397 1096 q 486 1018 460 1096 l 519 890 q 525 857 525 871 q 475 812 525 812 l 443 812 q 359 876 397 812 l 286 1004 q 273 1042 273 1026 q 336 1096 273 1096 z "},"á":{"ha":905,"x_min":41,"x_max":822,"o":"m 132 49 q 87 80 132 49 q 41 225 41 111 q 131 400 41 339 q 363 461 220 461 l 587 461 q 553 572 587 542 q 438 603 522 603 q 321 562 355 603 q 239 521 288 521 l 138 521 q 96 562 96 521 q 465 757 96 757 q 720 689 627 757 q 822 461 823 611 l 822 41 q 781 0 822 0 l 650 0 q 608 41 608 0 l 608 62 q 362 -14 503 -14 q 132 49 222 -14 m 277 225 q 383 140 277 140 q 587 201 489 140 l 587 307 l 379 307 q 302 283 333 307 q 277 225 277 261 m 412 890 l 446 1018 q 534 1096 472 1096 l 596 1096 q 654 1067 641 1096 q 660 1041 660 1057 q 646 1004 659 1025 l 572 876 q 489 812 535 812 l 457 812 q 407 857 407 812 q 412 890 407 871 z "},"â":{"ha":905,"x_min":41,"x_max":822,"o":"m 131 49 q 86 80 131 49 q 41 225 41 111 q 131 400 41 339 q 363 461 221 461 l 587 461 q 554 572 587 541 q 438 603 521 603 q 321 562 355 603 q 239 521 288 521 l 138 521 q 107 533 119 521 q 96 562 96 545 q 465 757 96 757 q 724 685 627 757 q 822 461 822 612 l 822 41 q 810 12 822 23 q 781 0 799 0 l 650 0 q 620 12 631 0 q 608 41 608 24 l 608 62 q 361 -14 501 -14 q 131 49 221 -14 m 195 832 q 191 850 191 840 q 203 871 191 860 l 309 968 q 408 1028 371 1027 l 492 1028 q 591 968 529 1028 l 699 871 q 711 849 711 859 q 707 832 711 840 q 671 811 696 811 l 572 811 q 473 868 534 811 l 450 889 l 428 868 q 329 811 368 811 l 231 811 q 195 832 205 811 m 379 307 q 304 284 332 307 q 277 224 277 261 q 305 164 277 188 q 386 140 334 140 q 587 201 490 140 l 587 307 l 379 307 z "},"ã":{"ha":905,"x_min":41,"x_max":822,"o":"m 131 49 q 86 80 131 49 q 41 225 41 111 q 131 400 41 339 q 363 461 221 461 l 587 461 q 554 572 587 541 q 438 603 521 603 q 321 562 355 603 q 239 521 288 521 l 138 521 q 107 533 119 521 q 96 562 96 545 q 465 757 96 757 q 724 685 627 757 q 822 461 822 612 l 822 41 q 810 12 822 23 q 781 0 799 0 l 650 0 q 620 12 631 0 q 608 41 608 24 l 608 62 q 361 -14 501 -14 q 131 49 221 -14 m 221 833 q 265 968 221 922 q 358 1014 309 1014 q 458 986 408 1014 q 533 958 509 958 q 573 983 558 958 q 608 1007 589 1007 l 664 1007 q 685 986 685 1007 q 642 851 685 897 q 550 806 599 806 q 449 833 500 806 q 373 861 397 861 q 333 837 349 861 q 297 812 317 812 l 241 812 q 221 833 221 812 m 379 307 q 304 284 332 307 q 277 224 277 261 q 305 164 277 188 q 386 140 334 140 q 587 201 490 140 l 587 307 l 379 307 z "},"ä":{"ha":905,"x_min":41,"x_max":822,"o":"m 132 49 q 87 80 132 49 q 41 225 41 111 q 131 400 41 339 q 363 461 220 461 l 587 461 q 553 572 587 542 q 438 603 522 603 q 321 562 355 603 q 239 521 288 521 l 138 521 q 96 562 96 521 q 465 757 96 757 q 720 689 627 757 q 822 461 823 611 l 822 41 q 781 0 822 0 l 650 0 q 608 41 608 0 l 608 62 q 362 -14 503 -14 q 132 49 222 -14 m 205 933 l 205 960 q 283 1038 205 1038 l 349 1038 q 427 960 427 1038 l 427 933 q 349 856 427 855 l 283 856 q 205 933 205 855 m 277 225 q 383 140 277 140 q 587 201 489 140 l 587 307 l 379 307 q 302 283 333 307 q 277 225 277 261 m 518 933 l 518 960 q 596 1038 518 1038 l 661 1038 q 739 960 739 1038 l 739 933 q 661 856 739 855 l 596 856 q 518 933 518 855 z "},"å":{"ha":905,"x_min":41,"x_max":822,"o":"m 131 49 q 86 80 131 49 q 41 225 41 111 q 131 400 41 339 q 363 461 221 461 l 587 461 q 554 572 587 541 q 438 603 521 603 q 321 562 355 603 q 239 521 288 521 l 138 521 q 107 533 119 521 q 96 562 96 545 q 465 757 96 757 q 724 685 627 757 q 822 461 822 612 l 822 41 q 810 12 822 23 q 781 0 799 0 l 650 0 q 620 12 631 0 q 608 41 608 24 l 608 62 q 361 -14 501 -14 q 131 49 221 -14 m 379 307 q 304 284 332 307 q 277 224 277 261 q 305 164 277 188 q 386 140 334 140 q 587 201 490 140 l 587 307 l 379 307 m 604 1114 q 660 982 660 1066 q 606 848 660 897 q 470 800 553 800 q 334 849 387 800 q 281 982 281 897 q 336 1114 281 1067 q 470 1161 388 1161 q 604 1114 553 1161 m 470 1071 q 434 1071 470 1071 q 397 981 397 1071 q 470 890 397 890 q 543 981 543 890 q 470 1071 543 1071 z "},"æ":{"ha":1417,"x_min":41,"x_max":1375,"o":"m 376 -14 q 133 48 225 -14 q 41 224 41 110 q 131 400 41 339 q 363 461 221 461 l 587 461 q 554 572 587 541 q 437 603 521 603 q 321 562 354 603 q 239 521 288 521 l 138 521 q 107 533 119 521 q 96 562 96 545 q 437 757 96 757 q 708 671 611 757 q 989 757 812 757 q 1271 660 1166 757 q 1375 380 1375 562 l 1375 342 q 1363 312 1375 323 q 1333 300 1352 300 l 822 300 q 870 178 829 216 q 1001 140 911 140 q 1125 181 1092 140 q 1207 222 1158 222 l 1308 222 q 1338 211 1326 222 q 1350 180 1350 199 q 993 -14 1350 -14 q 713 89 819 -14 q 376 -14 612 -14 m 587 298 l 586 307 l 379 307 q 304 284 332 307 q 277 224 277 261 q 305 164 277 187 q 386 140 334 140 q 587 201 517 140 l 587 298 m 822 443 l 1136 443 q 979 603 1129 603 q 822 458 838 603 l 822 443 z "},"ç":{"ha":863,"x_min":41,"x_max":835,"o":"m 41 371 q 146 659 41 561 q 439 757 252 757 q 727 697 627 757 q 828 521 828 637 q 816 491 828 503 q 786 479 804 479 l 685 479 q 607 529 639 479 q 466 593 567 593 q 324 541 364 593 q 283 372 283 489 q 325 202 283 254 q 470 150 367 150 q 614 214 574 150 q 692 264 646 264 l 793 264 q 823 252 811 264 q 835 222 835 240 q 748 55 835 114 q 500 -12 661 -4 l 500 -54 q 652 -183 652 -66 q 431 -330 652 -330 l 374 -330 q 346 -302 346 -330 l 346 -245 q 374 -218 346 -218 l 431 -218 q 521 -183 521 -218 q 429 -147 521 -147 l 389 -147 q 361 -119 361 -147 l 361 -5 q 41 371 41 40 z "},"è":{"ha":875,"x_min":41,"x_max":833,"o":"m 146 85 q 94 135 146 85 q 41 371 41 184 q 147 659 41 557 q 439 757 253 757 q 729 661 625 757 q 833 380 833 564 l 833 342 q 791 300 833 300 l 281 300 q 454 140 294 140 q 583 181 550 140 q 665 222 616 222 l 766 222 q 808 180 808 222 q 437 -14 808 -14 q 146 85 250 -14 m 322 1096 l 383 1096 q 472 1018 446 1096 l 505 890 q 511 857 511 871 q 461 812 511 812 l 429 812 q 346 876 383 812 l 272 1004 q 258 1042 258 1026 q 322 1096 258 1096 m 279 443 l 595 443 q 438 603 589 603 q 279 443 288 603 z "},"é":{"ha":875,"x_min":41,"x_max":833,"o":"m 146 85 q 94 135 146 85 q 41 371 41 184 q 147 659 41 557 q 439 757 253 757 q 729 661 625 757 q 833 380 833 564 l 833 342 q 791 300 833 300 l 281 300 q 454 140 294 140 q 583 181 550 140 q 665 222 616 222 l 766 222 q 808 180 808 222 q 437 -14 808 -14 q 146 85 250 -14 m 279 443 l 595 443 q 438 603 589 603 q 279 443 288 603 m 399 890 l 432 1018 q 521 1096 458 1096 l 582 1096 q 640 1067 627 1096 q 646 1041 646 1057 q 632 1004 646 1025 l 558 876 q 475 812 521 812 l 443 812 q 393 857 393 812 q 399 890 393 871 z "},"ê":{"ha":875,"x_min":41,"x_max":833,"o":"m 146 85 q 94 135 146 85 q 41 371 41 184 q 146 657 41 557 q 438 757 252 757 q 729 660 625 757 q 833 380 833 562 l 833 342 q 822 312 833 323 q 791 300 810 300 l 281 300 q 329 178 288 216 q 460 140 370 140 q 583 181 550 140 q 665 222 616 222 l 766 222 q 797 211 785 222 q 808 180 808 199 q 437 -14 808 -14 q 146 85 250 -14 m 180 836 q 176 853 176 843 q 189 875 176 863 l 294 972 q 395 1032 357 1032 l 478 1032 q 578 972 515 1032 l 685 875 q 697 852 697 863 q 693 836 697 842 q 657 815 682 815 l 558 815 q 460 872 519 815 l 436 893 l 414 872 q 315 815 354 815 l 216 815 q 180 836 191 815 m 279 443 l 595 443 q 438 603 588 603 q 279 443 288 603 z "},"ë":{"ha":875,"x_min":41,"x_max":833,"o":"m 146 85 q 94 135 146 85 q 41 371 41 184 q 146 657 41 557 q 438 757 252 757 q 729 660 625 757 q 833 380 833 562 l 833 342 q 822 312 833 323 q 791 300 810 300 l 281 300 q 329 178 288 216 q 460 140 370 140 q 583 181 550 140 q 665 222 616 222 l 766 222 q 797 211 785 222 q 808 180 808 199 q 437 -14 808 -14 q 146 85 250 -14 m 157 909 l 157 936 q 178 993 157 972 q 235 1014 199 1014 l 300 1014 q 357 993 336 1014 q 378 936 378 972 l 378 909 q 357 853 378 873 q 300 832 336 832 l 235 832 q 178 853 199 832 q 157 909 157 873 m 279 443 l 595 443 q 438 603 588 603 q 279 443 288 603 m 497 909 l 497 936 q 518 993 497 972 q 575 1014 539 1014 l 640 1014 q 697 993 676 1014 q 718 936 718 972 l 718 909 q 697 853 718 873 q 640 832 676 832 l 575 832 q 518 853 539 832 q 497 909 497 873 z "},"ì":{"ha":404,"x_min":21,"x_max":321,"o":"m 85 1096 l 146 1096 q 235 1018 208 1096 l 268 890 q 273 857 273 871 q 224 812 273 812 l 192 812 q 109 876 146 812 l 35 1004 q 21 1042 21 1026 q 85 1096 21 1096 m 86 41 l 86 685 q 127 726 86 726 l 279 726 q 321 685 321 726 l 321 41 q 279 0 321 0 l 127 0 q 86 41 86 0 z "},"í":{"ha":404,"x_min":83,"x_max":390,"o":"m 83 41 l 83 685 q 125 726 83 726 l 277 726 q 318 685 318 726 l 318 41 q 277 0 318 0 l 125 0 q 83 41 83 0 m 143 890 l 176 1018 q 265 1096 203 1096 l 326 1096 q 385 1068 371 1096 q 390 1041 390 1057 q 376 1004 390 1025 l 302 876 q 220 812 265 812 l 187 812 q 138 857 138 812 q 143 890 138 871 z "},"î":{"ha":437,"x_min":-41,"x_max":479,"o":"m -37 836 q -41 853 -41 843 q -29 875 -41 863 l 77 972 q 176 1032 139 1032 l 260 1032 q 359 972 297 1032 l 467 875 q 479 852 479 863 q 475 836 479 842 q 439 815 464 815 l 340 815 q 241 872 302 815 l 218 893 l 196 872 q 97 815 136 815 l -1 815 q -37 836 -26 815 m 102 41 l 102 685 q 113 715 102 703 q 143 726 125 726 l 294 726 q 325 714 313 726 q 336 685 336 703 l 336 41 q 325 12 336 23 q 294 0 313 0 l 143 0 q 113 12 125 0 q 102 41 102 23 z "},"ï":{"ha":450,"x_min":-56,"x_max":505,"o":"m -56 882 l -56 908 q -35 965 -56 945 q 22 986 -14 986 l 87 986 q 144 965 123 986 q 165 908 165 945 l 165 882 q 144 825 165 846 q 87 804 123 804 l 22 804 q -35 825 -14 804 q -56 882 -56 846 m 107 41 l 107 685 q 119 714 107 703 q 149 726 131 726 l 300 726 q 330 714 318 726 q 342 685 342 703 l 342 41 q 330 12 342 24 q 300 0 318 0 l 149 0 q 119 12 131 0 q 107 41 107 24 m 285 882 l 285 908 q 306 965 285 945 q 363 986 326 986 l 428 986 q 485 965 464 986 q 505 908 505 945 l 505 882 q 485 825 505 846 q 428 804 464 804 l 363 804 q 306 825 326 804 q 285 882 285 846 z "},"ð":{"ha":900,"x_min":41,"x_max":859,"o":"m 447 -14 q 349 -14 447 -14 q 146 72 250 -14 q 41 317 41 158 q 141 564 41 476 q 395 652 240 652 q 657 549 582 652 q 481 819 640 725 l 419 721 q 390 699 406 699 q 361 707 375 699 l 329 728 q 310 754 313 737 q 315 786 306 771 l 366 868 q 212 895 290 889 q 195 932 179 897 l 204 989 q 233 1008 209 1008 q 243 1007 238 1008 q 435 978 347 1000 l 493 1072 q 522 1092 505 1092 q 550 1084 538 1092 l 583 1064 q 603 1038 599 1055 q 597 1007 607 1021 l 553 935 q 780 733 701 865 q 859 416 859 600 l 859 389 q 751 99 859 212 q 447 -14 644 -14 m 450 497 q 408 497 450 497 q 322 451 367 497 q 277 319 277 404 q 322 187 277 233 q 450 140 367 140 q 578 187 533 140 q 624 319 624 233 q 578 451 624 404 q 450 497 533 497 z "},"ñ":{"ha":947,"x_min":83,"x_max":864,"o":"m 83 41 l 83 701 q 95 731 83 720 q 125 743 107 743 l 277 743 q 306 731 294 743 q 318 701 318 720 l 318 659 q 567 757 435 757 q 781 676 699 757 q 864 431 864 596 l 864 41 q 852 12 864 24 q 822 0 840 0 l 671 0 q 641 12 653 0 q 629 41 629 24 l 629 431 q 500 593 629 593 q 318 496 415 593 l 318 41 q 306 12 318 24 q 277 0 294 0 l 125 0 q 95 12 107 0 q 83 41 83 24 m 241 847 q 285 982 241 936 q 378 1028 329 1028 q 479 1000 428 1028 q 555 972 530 972 q 594 997 579 972 q 629 1021 610 1021 l 685 1021 q 705 1000 705 1021 q 662 865 705 911 q 569 819 619 819 q 469 847 519 819 q 394 875 419 875 q 354 851 370 875 q 318 827 338 827 l 262 827 q 241 847 241 827 z "},"ò":{"ha":903,"x_min":41,"x_max":861,"o":"m 147 84 q 94 133 147 84 q 41 372 41 182 q 147 660 41 562 q 451 757 253 757 q 755 660 650 757 q 861 372 861 562 q 755 84 861 182 q 451 -14 650 -14 q 147 84 253 -14 m 319 548 q 298 520 319 548 q 277 372 277 493 q 319 196 277 252 q 451 140 361 140 q 584 196 542 140 q 627 372 627 252 q 584 548 627 493 q 451 603 542 603 q 319 548 361 603 m 336 1096 l 397 1096 q 486 1018 460 1096 l 519 890 q 525 857 525 871 q 475 812 525 812 l 443 812 q 359 876 397 812 l 286 1004 q 273 1042 273 1026 q 336 1096 273 1096 z "},"ó":{"ha":903,"x_min":41,"x_max":861,"o":"m 41 372 q 451 757 41 757 q 861 372 861 757 q 756 84 861 182 q 451 -14 651 -14 q 146 84 252 -14 q 41 372 41 182 m 627 372 q 627 487 627 372 q 452 603 627 603 q 277 372 277 603 q 452 140 277 140 q 627 372 627 140 m 399 904 l 432 1032 q 521 1109 458 1110 l 582 1109 q 640 1081 627 1109 q 646 1055 646 1070 q 632 1018 646 1040 l 558 890 q 475 827 521 827 l 443 827 q 393 870 393 827 q 399 904 393 884 z "},"ô":{"ha":903,"x_min":41,"x_max":861,"o":"m 147 84 q 94 133 147 84 q 41 372 41 182 q 147 660 41 562 q 451 757 253 757 q 755 660 650 757 q 861 372 861 562 q 755 84 861 182 q 451 -14 650 -14 q 147 84 253 -14 m 201 863 q 197 881 197 871 q 210 903 197 890 l 315 1000 q 415 1060 378 1060 l 498 1060 q 599 1000 536 1060 l 705 903 q 714 863 726 882 q 677 843 703 843 l 579 843 q 481 900 541 843 l 457 921 l 435 900 q 336 843 375 843 l 237 843 q 201 863 212 843 m 319 548 q 298 520 319 548 q 277 372 277 493 q 319 196 277 252 q 451 140 361 140 q 584 196 542 140 q 627 372 627 252 q 584 548 627 493 q 451 603 542 603 q 319 548 361 603 z "},"õ":{"ha":903,"x_min":41,"x_max":861,"o":"m 147 84 q 94 133 147 84 q 41 372 41 182 q 147 660 41 562 q 451 757 253 757 q 755 660 650 757 q 861 372 861 562 q 755 84 861 182 q 451 -14 650 -14 q 147 84 253 -14 m 205 847 q 249 982 205 936 q 342 1028 293 1028 q 443 1000 391 1028 q 519 972 494 972 q 558 997 543 972 q 593 1021 574 1021 l 648 1021 q 669 1000 669 1021 q 626 865 669 911 q 533 819 583 819 q 433 847 484 819 q 358 875 383 875 q 317 851 334 875 q 282 827 301 827 l 227 827 q 205 847 205 826 m 319 548 q 298 520 319 548 q 277 372 277 493 q 319 196 277 252 q 451 140 361 140 q 584 196 542 140 q 627 372 627 252 q 584 548 627 493 q 451 603 542 603 q 319 548 361 603 z "},"ö":{"ha":903,"x_min":41,"x_max":861,"o":"m 41 372 q 451 757 41 757 q 861 372 861 757 q 756 84 861 182 q 451 -14 651 -14 q 146 84 252 -14 q 41 372 41 182 m 182 913 l 182 939 q 260 1017 182 1017 l 325 1017 q 403 939 403 1017 l 403 913 q 325 835 403 835 l 260 835 q 182 913 182 835 m 627 372 q 627 487 627 372 q 452 603 627 603 q 277 372 277 603 q 452 140 277 140 q 627 372 627 140 m 522 913 l 522 939 q 600 1017 522 1017 l 665 1017 q 743 939 743 1017 l 743 913 q 665 835 743 835 l 600 835 q 522 913 522 835 z "},"÷":{"ha":859,"x_min":28,"x_max":831,"o":"m 28 386 l 28 467 q 40 497 28 485 q 69 509 52 509 l 789 509 q 819 497 807 509 q 831 467 831 485 l 831 386 q 819 356 831 368 q 789 345 807 345 l 69 345 q 40 356 52 345 q 28 386 28 368 m 292 126 l 292 170 q 315 237 292 214 q 383 261 339 261 l 467 261 q 535 237 511 261 q 558 170 558 214 l 558 126 q 535 59 558 83 q 467 35 511 35 l 383 35 q 315 59 339 35 q 292 126 292 83 m 558 684 q 467 591 558 591 l 383 591 q 315 615 339 591 q 292 684 292 639 l 292 726 q 315 794 292 770 q 383 818 339 818 l 467 818 q 535 794 511 818 q 558 726 558 770 l 558 684 z "},"ø":{"ha":920,"x_min":42,"x_max":876,"o":"m 838 743 q 876 711 876 743 q 861 679 876 694 l 802 615 q 869 372 869 522 q 764 84 869 182 q 460 -14 659 -14 q 258 39 355 -14 q 168 0 231 0 l 82 0 q 45 22 50 0 q 42 37 43 26 q 58 64 41 47 l 117 126 q 50 372 50 220 q 156 660 50 562 q 460 757 261 757 q 661 704 564 757 q 751 743 689 743 l 838 743 m 285 372 q 288 310 285 346 l 546 585 q 460 603 511 603 q 327 548 370 603 q 285 372 285 493 m 374 157 q 460 140 408 140 q 592 196 550 140 q 635 372 635 252 q 631 433 635 404 l 374 157 z "},"ù":{"ha":947,"x_min":83,"x_max":864,"o":"m 83 313 l 83 701 q 125 743 83 743 l 277 743 q 318 701 318 743 l 318 313 q 447 150 318 150 q 629 248 532 150 l 629 701 q 671 743 629 743 l 822 743 q 864 701 864 743 l 864 41 q 822 0 864 0 l 671 0 q 629 41 629 0 l 629 85 q 392 -14 511 -14 q 170 62 248 -14 q 83 313 83 149 m 350 1096 l 411 1096 q 500 1018 473 1096 l 533 890 q 539 857 539 871 q 489 812 539 812 l 457 812 q 374 876 411 812 l 300 1004 q 286 1042 286 1026 q 350 1096 286 1096 z "},"ú":{"ha":947,"x_min":83,"x_max":864,"o":"m 83 313 l 83 701 q 125 743 83 743 l 277 743 q 318 701 318 743 l 318 313 q 447 150 318 150 q 629 248 532 150 l 629 701 q 671 743 629 743 l 822 743 q 864 701 864 743 l 864 41 q 822 0 864 0 l 671 0 q 629 41 629 0 l 629 85 q 392 -14 511 -14 q 170 62 248 -14 q 83 313 83 149 m 412 890 l 446 1018 q 534 1096 472 1096 l 596 1096 q 654 1068 640 1096 q 660 1041 660 1057 q 646 1004 660 1025 l 572 876 q 489 812 534 812 l 457 812 q 407 857 407 812 q 412 890 407 871 z "},"û":{"ha":947,"x_min":83,"x_max":864,"o":"m 83 313 l 83 701 q 95 731 83 720 q 125 743 107 743 l 277 743 q 306 731 294 743 q 318 701 318 720 l 318 313 q 447 150 318 150 q 629 248 532 150 l 629 701 q 641 731 629 720 q 671 743 653 743 l 822 743 q 852 731 840 743 q 864 701 864 720 l 864 41 q 852 12 864 24 q 822 0 840 0 l 671 0 q 641 12 653 0 q 629 41 629 24 l 629 85 q 381 -14 513 -14 q 166 67 249 -14 q 83 313 83 147 m 216 864 q 212 881 212 871 q 225 903 212 890 l 330 1000 q 431 1060 393 1060 l 514 1060 q 614 1000 551 1060 l 721 903 q 733 880 733 890 q 729 864 733 869 q 693 843 718 843 l 595 843 q 496 900 555 843 l 472 921 l 450 900 q 351 843 390 843 l 253 843 q 216 864 228 843 z "},"ü":{"ha":947,"x_min":83,"x_max":864,"o":"m 83 313 l 83 701 q 125 743 83 743 l 277 743 q 318 701 318 743 l 318 313 q 447 150 318 150 q 629 248 532 150 l 629 701 q 671 743 629 743 l 822 743 q 864 701 864 743 l 864 41 q 822 0 864 0 l 671 0 q 629 41 629 0 l 629 85 q 392 -14 511 -14 q 170 62 248 -14 q 83 313 83 149 m 204 932 l 204 958 q 282 1036 204 1036 l 347 1036 q 425 958 425 1036 l 425 932 q 347 854 425 854 l 282 854 q 204 932 204 854 m 545 932 l 545 958 q 623 1036 546 1036 l 688 1036 q 765 958 765 1036 l 765 932 q 688 854 765 854 l 623 854 q 545 932 546 854 z "},"ý":{"ha":878,"x_min":21,"x_max":864,"o":"m 24 703 q 21 716 21 709 q 30 733 21 723 q 56 743 39 743 l 197 743 q 258 697 245 743 l 347 410 q 496 222 406 222 l 631 697 q 688 743 642 743 l 831 743 q 856 732 848 743 q 864 714 864 722 q 863 703 864 707 l 685 69 q 568 -171 637 -99 q 385 -243 498 -243 q 203 -229 272 -243 q 161 -187 161 -222 l 161 -113 q 203 -71 161 -71 l 228 -71 q 272 -76 248 -71 q 317 -82 297 -82 q 450 58 412 -82 q 259 127 336 58 q 125 375 182 195 l 24 703 m 396 904 l 429 1032 q 518 1109 456 1110 l 579 1109 q 637 1081 624 1109 q 643 1055 643 1070 q 629 1018 643 1040 l 555 890 q 472 827 518 827 l 440 827 q 390 870 390 827 q 396 904 391 884 z "},"þ":{"ha":920,"x_min":83,"x_max":878,"o":"m 83 -187 l 83 930 q 95 961 83 949 q 125 972 107 972 l 277 972 q 306 961 294 972 q 318 930 318 949 l 318 722 q 514 757 428 757 q 779 658 681 757 q 878 372 878 559 q 779 85 878 184 q 514 -14 681 -14 q 318 21 428 -14 l 318 -187 q 306 -217 318 -205 q 277 -229 294 -229 l 125 -229 q 95 -217 107 -229 q 83 -187 83 -205 m 318 178 q 465 150 406 150 q 597 203 558 150 q 636 372 636 256 q 597 541 636 489 q 465 593 558 593 q 318 566 406 593 l 318 178 z "},"ÿ":{"ha":878,"x_min":22,"x_max":864,"o":"m 228 -71 l 317 -82 q 450 58 412 -82 q 258 128 335 58 q 125 375 180 197 l 24 703 q 22 715 22 708 q 30 732 22 722 q 56 743 39 743 l 197 743 q 235 730 217 743 q 258 697 253 717 l 347 410 q 415 263 380 304 q 496 222 449 222 l 631 697 q 652 730 636 717 q 688 743 668 743 l 831 743 q 856 732 848 743 q 864 714 864 722 q 863 703 864 707 l 685 69 q 567 -171 637 -99 q 387 -243 497 -243 q 230 -235 276 -243 q 173 -215 184 -227 q 161 -187 161 -203 l 161 -113 q 173 -82 161 -94 q 203 -71 184 -71 l 228 -71 m 172 882 l 172 908 q 193 965 172 944 q 250 986 214 986 l 315 986 q 372 965 351 986 q 393 908 393 945 l 393 882 q 372 825 393 846 q 315 804 351 804 l 250 804 q 193 825 214 804 q 172 882 172 846 m 513 882 l 513 908 q 533 965 513 944 q 590 986 554 986 l 656 986 q 712 965 692 986 q 733 908 733 945 l 733 882 q 712 825 733 846 q 656 804 692 804 l 590 804 q 533 825 554 804 q 513 882 513 846 z "},"Č":{"ha":1135,"x_min":41,"x_max":1100,"o":"m 167 115 q 104 175 167 115 q 41 486 41 235 q 167 858 41 737 q 545 978 293 978 l 696 978 q 968 898 850 978 q 1086 679 1086 818 q 1063 622 1086 639 q 1017 604 1039 604 l 936 604 q 839 679 873 604 q 672 786 789 786 l 551 786 q 350 722 403 786 q 297 486 297 659 q 350 250 297 314 q 551 186 403 186 l 686 186 q 852 293 803 186 q 950 368 887 368 l 1031 368 q 1081 345 1063 368 q 1100 293 1100 321 q 982 74 1100 154 q 710 -5 864 -5 l 545 -5 q 167 115 293 -5 m 361 1247 l 460 1247 q 558 1190 498 1247 l 581 1169 l 604 1190 q 703 1247 664 1247 l 802 1247 q 838 1226 827 1247 q 842 1209 842 1219 q 829 1187 842 1199 l 722 1090 q 623 1031 660 1031 l 539 1031 q 439 1090 502 1031 l 334 1187 q 325 1226 314 1206 q 361 1247 336 1247 z "},"č":{"ha":863,"x_min":41,"x_max":835,"o":"m 443 -14 q 348 -14 443 -14 q 147 84 253 -14 q 41 371 41 182 q 146 659 41 561 q 439 757 252 757 q 727 697 627 757 q 828 521 828 637 q 816 491 828 503 q 786 479 804 479 l 685 479 q 607 529 639 479 q 466 593 567 593 q 324 541 364 593 q 283 372 283 489 q 325 202 283 254 q 470 150 367 150 q 614 214 574 150 q 692 264 646 264 l 793 264 q 823 252 811 264 q 835 222 835 240 q 734 46 835 106 q 443 -14 633 -14 m 224 972 q 211 995 211 985 q 219 1018 211 1004 q 252 1032 227 1032 l 350 1032 q 449 975 389 1032 l 471 954 l 494 975 q 593 1032 554 1032 l 692 1032 q 728 1013 717 1032 q 732 995 732 1004 q 720 972 732 985 l 612 875 q 513 815 550 815 l 429 815 q 329 875 392 815 l 224 972 z "},"Ď":{"ha":1145,"x_min":97,"x_max":1103,"o":"m 97 62 l 97 907 q 116 954 97 935 q 161 972 135 972 l 541 972 q 969 855 835 972 q 1103 486 1103 737 q 969 117 1103 235 q 541 0 835 0 l 161 0 q 116 18 135 0 q 97 62 97 36 m 315 1240 q 351 1261 326 1261 l 450 1261 q 549 1204 489 1261 l 571 1183 l 595 1204 q 693 1261 654 1261 l 791 1261 q 828 1240 817 1261 q 819 1202 839 1219 l 713 1104 q 612 1044 650 1044 l 529 1044 q 429 1104 492 1044 l 323 1202 q 311 1224 311 1214 q 315 1240 311 1234 m 353 192 l 533 192 q 781 258 715 192 q 847 486 847 325 q 781 714 847 647 q 533 781 715 781 l 353 781 l 353 192 z "},"ď":{"ha":1055,"x_min":41,"x_max":1100,"o":"m 623 62 q 374 -14 517 -14 q 137 86 232 -14 q 41 372 41 185 q 140 657 41 558 q 406 757 239 757 q 602 722 493 757 l 602 930 q 643 972 602 972 l 794 972 q 836 930 836 972 l 836 41 q 794 0 836 0 l 664 0 q 623 41 623 0 l 623 62 m 454 593 q 323 541 363 593 q 283 372 283 489 q 320 203 283 256 q 430 150 357 150 q 602 211 503 150 l 602 566 q 454 593 511 593 m 908 665 l 911 895 q 930 949 911 925 q 977 972 949 972 l 1031 972 q 1083 954 1067 972 q 1100 919 1100 935 q 1099 896 1100 903 l 1051 652 q 983 602 1040 602 l 964 602 q 921 616 935 602 q 908 665 908 631 z "},"Ě":{"ha":1035,"x_min":97,"x_max":1007,"o":"m 97 65 l 97 909 q 116 954 97 936 q 161 972 135 972 l 943 972 q 988 954 970 972 q 1007 908 1007 935 l 1007 844 q 988 799 1007 818 q 943 781 970 781 l 353 781 l 353 583 l 861 583 q 906 565 888 583 q 925 519 925 546 l 925 456 q 906 411 925 429 q 861 392 888 392 l 353 392 l 353 192 l 942 192 q 986 174 968 192 q 1004 129 1004 155 l 1004 64 q 985 19 1004 37 q 940 0 966 0 l 161 0 q 116 19 135 0 q 97 65 97 37 m 289 1226 q 325 1247 300 1247 l 424 1247 q 522 1190 463 1247 l 545 1169 l 568 1190 q 667 1247 628 1247 l 765 1247 q 802 1226 790 1247 q 806 1208 806 1218 q 793 1187 806 1198 l 686 1090 q 586 1031 624 1031 l 503 1031 q 403 1090 465 1031 l 297 1187 q 285 1208 285 1198 q 289 1226 285 1218 z "},"ě":{"ha":875,"x_min":41,"x_max":833,"o":"m 146 85 q 94 135 146 85 q 41 371 41 184 q 146 657 41 557 q 438 757 252 757 q 729 660 625 757 q 833 380 833 562 l 833 342 q 822 312 833 323 q 791 300 810 300 l 281 300 q 329 178 288 216 q 460 140 370 140 q 583 181 550 140 q 665 222 616 222 l 766 222 q 797 211 785 222 q 808 180 808 199 q 437 -14 808 -14 q 146 85 250 -14 m 203 1012 q 239 1032 214 1032 l 338 1032 q 436 975 376 1032 l 458 954 l 482 975 q 581 1032 542 1032 l 679 1032 q 715 1012 704 1032 q 720 995 720 1004 q 707 972 720 985 l 600 875 q 500 815 538 815 l 416 815 q 317 875 379 815 l 211 972 q 199 995 199 985 q 203 1012 199 1004 m 279 443 l 595 443 q 438 603 588 603 q 279 443 288 603 z "},"ħ":{"ha":1013,"x_min":14,"x_max":929,"o":"m 14 757 l 14 831 q 25 860 14 848 q 56 872 37 872 l 149 872 l 149 930 q 160 961 149 949 q 191 972 172 972 l 342 972 q 371 961 359 972 q 383 930 383 949 l 383 872 l 490 872 q 520 860 509 872 q 532 831 532 848 l 532 757 q 520 727 532 739 q 490 715 509 715 l 383 715 l 383 561 q 632 660 500 660 q 846 579 764 660 q 929 334 929 498 l 929 41 q 917 12 929 24 q 888 0 905 0 l 736 0 q 706 12 718 0 q 694 41 694 24 l 694 334 q 566 496 694 496 q 383 399 481 496 l 383 41 q 371 12 383 24 q 342 0 359 0 l 191 0 q 160 12 172 0 q 149 41 149 24 l 149 715 l 56 715 q 25 727 37 715 q 14 757 14 739 z "},"Ĩ":{"ha":450,"x_min":-7,"x_max":457,"o":"m -7 1076 q 37 1211 -7 1165 q 131 1257 81 1257 q 231 1229 180 1257 q 306 1202 281 1202 q 346 1226 330 1202 q 380 1250 361 1250 l 436 1250 q 457 1229 457 1250 q 414 1094 457 1140 q 321 1048 371 1048 q 221 1076 272 1048 q 145 1104 170 1104 q 105 1080 121 1104 q 69 1055 89 1055 l 14 1055 q -7 1076 -7 1055 m 97 62 l 97 908 q 116 954 97 935 q 161 972 135 972 l 288 972 q 334 954 315 972 q 353 908 353 935 l 353 64 q 333 19 353 37 q 288 0 314 0 l 161 0 q 116 18 135 0 q 97 62 97 36 z "},"ĩ":{"ha":436,"x_min":-14,"x_max":450,"o":"m -14 833 q 30 968 -14 922 q 123 1014 74 1014 q 224 986 172 1014 q 299 958 275 958 q 339 983 323 958 q 374 1007 354 1007 l 429 1007 q 450 986 450 1007 q 407 851 450 897 q 314 806 364 806 q 214 833 264 806 q 139 861 164 861 q 98 837 114 861 q 62 812 82 812 l 7 812 q -14 833 -14 812 m 100 41 l 100 685 q 112 715 100 703 q 142 726 123 726 l 293 726 q 323 714 311 726 q 335 685 335 703 l 335 41 q 323 12 335 23 q 293 0 311 0 l 142 0 q 112 12 123 0 q 100 41 100 23 z "},"ı":{"ha":429,"x_min":97,"x_max":332,"o":"m 97 41 l 97 701 q 109 731 97 720 q 139 743 121 743 l 290 743 q 320 731 309 743 q 332 701 332 720 l 332 41 q 320 12 332 24 q 290 0 309 0 l 139 0 q 109 12 121 0 q 97 41 97 24 z "},"ĳ":{"ha":825,"x_min":83,"x_max":728,"o":"m 83 885 l 83 908 q 104 965 83 945 q 161 986 125 986 l 245 986 q 303 965 282 986 q 323 908 323 945 l 323 885 q 303 828 323 848 q 245 807 282 807 l 161 807 q 104 828 125 807 q 83 885 83 848 m 86 41 l 86 685 q 98 714 86 703 q 127 726 110 726 l 279 726 q 309 714 297 726 q 321 685 321 703 l 321 41 q 309 12 321 24 q 279 0 297 0 l 127 0 q 98 12 110 0 q 86 41 86 24 m 330 -72 l 400 -82 q 464 -44 437 -82 q 490 77 490 -7 l 490 685 q 502 714 490 703 q 532 726 514 726 l 684 726 q 713 714 701 726 q 725 685 725 703 l 725 77 q 463 -243 725 -243 q 310 -229 370 -243 q 268 -187 268 -220 l 268 -114 q 280 -84 268 -96 q 310 -72 292 -72 l 330 -72 m 488 885 l 488 908 q 508 965 488 945 q 566 986 529 986 l 650 986 q 707 965 686 986 q 728 908 728 945 l 728 885 q 707 828 728 848 q 650 807 686 807 l 566 807 q 508 828 529 807 q 488 885 488 848 z "},"Ĵ":{"ha":768,"x_min":0,"x_max":810,"o":"m 86 204 l 200 192 l 249 192 q 386 231 343 192 q 428 361 428 269 l 428 908 q 447 954 428 935 q 492 972 465 972 l 618 972 q 665 954 646 972 q 684 908 684 935 l 684 363 q 568 95 684 189 q 256 0 453 0 l 64 0 q 19 19 37 0 q 0 64 0 37 l 0 140 q 18 185 0 167 q 64 204 36 204 l 86 204 m 329 1057 q 297 1071 304 1057 q 289 1094 289 1084 q 301 1117 289 1104 l 407 1214 q 507 1274 469 1274 l 590 1274 q 690 1214 628 1274 l 798 1117 q 810 1094 810 1104 q 802 1071 810 1084 q 770 1057 794 1057 l 671 1057 q 572 1114 632 1057 l 549 1135 l 526 1114 q 428 1057 467 1057 l 329 1057 z "},"ĵ":{"ha":441,"x_min":-111,"x_max":479,"o":"m -49 -72 l 21 -82 q 85 -44 58 -82 q 111 77 111 -7 l 111 685 q 123 715 111 703 q 153 726 135 726 l 304 726 q 334 714 323 726 q 346 685 346 703 l 346 77 q 83 -243 346 -243 q -69 -229 -9 -243 q -111 -187 -111 -220 l -111 -114 q -99 -84 -111 -96 q -69 -72 -87 -72 l -49 -72 m -33 821 q -37 839 -37 829 q -25 861 -37 849 l 81 958 q 180 1018 143 1018 l 264 1018 q 364 958 301 1018 l 471 861 q 479 821 490 842 q 443 802 469 801 l 345 802 q 245 859 306 802 l 222 879 l 200 859 q 102 802 141 802 l 3 802 q -33 821 -22 801 z "},"ķ":{"ha":847,"x_min":83,"x_max":833,"o":"m 833 30 q 798 0 833 0 l 669 0 q 566 64 604 0 l 479 204 q 318 294 424 294 l 318 41 q 306 12 318 23 q 277 0 294 0 l 125 0 q 95 12 106 0 q 83 41 83 23 l 83 930 q 95 961 83 949 q 125 972 107 972 l 277 972 q 307 961 295 972 q 318 930 318 949 l 318 449 q 479 541 436 449 l 545 679 q 585 726 558 708 q 642 743 611 743 l 770 743 q 804 717 804 743 q 793 679 804 702 l 705 494 q 644 415 683 448 q 561 372 606 382 q 705 250 644 347 l 821 64 q 833 30 832 44 m 355 -252 l 358 -64 q 377 -10 358 -33 q 424 14 396 14 l 478 14 q 530 -5 514 14 q 546 -62 552 -29 l 498 -265 q 431 -315 488 -315 l 411 -315 q 369 -301 382 -315 q 355 -252 355 -286 z "},"ĸ":{"ha":847,"x_min":83,"x_max":833,"o":"m 833 30 q 798 0 833 0 l 669 0 q 566 64 604 0 l 479 204 q 318 294 424 294 l 318 41 q 306 12 318 23 q 277 0 294 0 l 125 0 q 95 12 106 0 q 83 41 83 23 l 83 701 q 95 731 83 720 q 125 743 107 743 l 277 743 q 307 731 295 743 q 318 701 318 720 l 318 449 q 479 541 436 449 l 545 679 q 585 726 558 708 q 642 743 611 743 l 770 743 q 804 717 804 743 q 793 679 804 702 l 705 494 q 644 415 683 448 q 561 372 606 382 q 705 250 644 347 l 821 64 q 833 30 832 44 z "},"Ĺ":{"ha":1021,"x_min":97,"x_max":1007,"o":"m 97 62 l 97 907 q 116 954 97 935 q 161 972 135 972 l 289 972 q 334 954 315 972 q 353 907 353 935 l 353 192 l 943 192 q 988 173 970 192 q 1007 127 1007 154 l 1007 64 q 988 19 1007 37 q 943 0 969 0 l 161 0 q 116 19 135 0 q 97 62 97 37 m 163 1126 l 196 1254 q 285 1332 222 1332 l 346 1332 q 404 1303 391 1332 q 410 1277 410 1293 q 396 1240 410 1261 l 322 1112 q 239 1048 285 1048 l 207 1048 q 157 1093 157 1048 q 163 1126 157 1107 z "},"ĺ":{"ha":401,"x_min":83,"x_max":396,"o":"m 83 41 l 83 930 q 125 972 83 972 l 277 972 q 318 930 318 972 l 318 41 q 277 0 318 0 l 125 0 q 83 41 83 0 m 149 1140 l 182 1268 q 271 1346 208 1346 l 332 1346 q 390 1318 376 1346 q 396 1291 396 1307 q 382 1254 396 1275 l 309 1126 q 225 1063 271 1063 l 193 1063 q 143 1105 143 1063 q 149 1140 143 1121 z "},"Ľ":{"ha":1021,"x_min":97,"x_max":1007,"o":"m 97 62 l 97 907 q 116 954 97 935 q 161 972 135 972 l 289 972 q 334 954 315 972 q 353 907 353 935 l 353 192 l 943 192 q 988 173 970 192 q 1007 127 1007 154 l 1007 64 q 988 19 1007 37 q 943 0 969 0 l 161 0 q 116 19 135 0 q 97 62 97 37 m 428 665 l 431 895 q 449 949 431 925 q 496 972 468 972 l 550 972 q 603 954 586 972 q 619 919 619 935 q 618 896 619 903 l 571 652 q 503 602 560 602 l 484 602 q 441 616 454 602 q 428 665 428 631 z "},"ľ":{"ha":542,"x_min":83,"x_max":586,"o":"m 83 41 l 83 930 q 125 972 83 972 l 277 972 q 318 930 318 972 l 318 41 q 277 0 318 0 l 125 0 q 83 41 83 0 m 395 665 l 397 895 q 416 949 397 925 q 463 972 435 972 l 517 972 q 569 954 553 972 q 586 919 586 935 q 585 896 586 903 l 538 652 q 469 602 526 602 l 450 602 q 408 616 421 602 q 395 665 395 631 z "},"ŀ":{"ha":653,"x_min":83,"x_max":611,"o":"m 83 41 l 83 930 q 95 961 83 949 q 125 972 107 972 l 277 972 q 306 961 294 972 q 318 930 318 949 l 318 41 q 306 12 318 24 q 277 0 294 0 l 125 0 q 95 12 107 0 q 83 41 83 24 m 390 440 l 390 467 q 468 545 390 545 l 533 545 q 611 467 611 545 l 611 440 q 533 363 611 363 l 468 363 q 390 440 390 363 z "},"Ł":{"ha":1063,"x_min":0,"x_max":1048,"o":"m 0 330 l 0 439 q 41 494 0 475 l 139 542 l 139 907 q 158 954 139 935 q 203 972 176 972 l 330 972 q 376 954 357 972 q 395 907 395 935 l 395 665 l 498 717 q 527 715 514 724 q 541 689 541 707 l 541 581 q 498 525 541 545 l 395 473 l 395 192 l 985 192 q 1030 173 1011 192 q 1048 127 1048 154 l 1048 64 q 1030 19 1048 37 q 985 0 1011 0 l 203 0 q 158 18 176 0 q 139 62 139 36 l 139 350 l 41 302 q 13 304 26 296 q 0 330 0 313 z "},"ł":{"ha":526,"x_min":0,"x_max":526,"o":"m 0 338 l 0 446 q 41 501 0 481 l 139 549 l 139 930 q 151 961 139 949 q 180 972 163 972 l 332 972 q 362 961 350 972 q 374 930 374 949 l 374 663 l 485 717 q 513 715 500 724 q 526 689 526 707 l 526 581 q 485 525 526 545 l 374 471 l 374 41 q 362 12 374 23 q 332 0 350 0 l 180 0 q 151 12 162 0 q 139 41 139 24 l 139 357 l 41 310 q 13 311 26 303 q 0 338 0 319 z "},"Ń":{"ha":1204,"x_min":97,"x_max":1107,"o":"m 97 64 l 97 908 q 115 954 97 935 q 160 972 134 972 l 359 972 q 410 954 383 972 q 453 908 436 935 l 863 278 l 863 909 q 881 954 863 936 q 926 972 900 972 l 1043 972 q 1088 954 1069 972 q 1107 908 1107 936 l 1107 64 q 1088 19 1107 37 q 1043 0 1069 0 l 818 0 q 764 19 791 0 q 720 64 736 37 l 345 646 l 345 64 q 326 19 345 37 q 281 0 307 0 l 161 0 q 116 19 135 0 q 97 64 97 37 m 561 1092 l 595 1219 q 684 1297 621 1297 l 745 1297 q 803 1270 789 1297 q 808 1242 808 1258 q 794 1206 808 1226 l 721 1078 q 637 1014 684 1014 l 606 1014 q 555 1059 555 1014 q 561 1092 555 1072 z "},"ń":{"ha":947,"x_min":83,"x_max":864,"o":"m 83 41 l 83 701 q 95 731 83 720 q 125 743 107 743 l 277 743 q 306 731 294 743 q 318 701 318 720 l 318 659 q 567 757 435 757 q 781 676 699 757 q 864 431 864 596 l 864 41 q 852 12 864 24 q 822 0 840 0 l 671 0 q 641 12 653 0 q 629 41 629 24 l 629 431 q 500 593 629 593 q 318 496 415 593 l 318 41 q 306 12 318 24 q 277 0 294 0 l 125 0 q 95 12 107 0 q 83 41 83 24 m 433 890 l 467 1018 q 555 1096 493 1096 l 616 1096 q 675 1068 661 1096 q 681 1041 681 1057 q 667 1004 681 1025 l 593 876 q 510 812 555 812 l 478 812 q 428 857 428 812 q 433 890 428 871 z "},"Ň":{"ha":1204,"x_min":97,"x_max":1107,"o":"m 97 64 l 97 908 q 115 954 97 935 q 160 972 134 972 l 359 972 q 410 954 383 972 q 453 908 436 935 l 863 278 l 863 909 q 881 954 863 936 q 926 972 900 972 l 1043 972 q 1088 954 1069 972 q 1107 908 1107 936 l 1107 64 q 1088 19 1107 37 q 1043 0 1069 0 l 818 0 q 764 19 791 0 q 720 64 736 37 l 345 646 l 345 64 q 326 19 345 37 q 281 0 307 0 l 161 0 q 116 19 135 0 q 97 64 97 37 m 359 1213 q 396 1234 371 1234 l 494 1234 q 593 1177 533 1234 l 615 1156 l 639 1177 q 737 1234 699 1234 l 836 1234 q 872 1213 861 1234 q 876 1195 876 1206 q 864 1174 876 1185 l 757 1076 q 657 1017 694 1017 l 574 1017 q 473 1076 536 1017 l 368 1174 q 355 1196 355 1186 q 359 1213 355 1206 z "},"ň":{"ha":947,"x_min":83,"x_max":864,"o":"m 83 41 l 83 701 q 95 731 83 720 q 125 743 107 743 l 277 743 q 306 731 294 743 q 318 701 318 720 l 318 659 q 567 757 435 757 q 781 676 699 757 q 864 431 864 596 l 864 41 q 852 12 864 24 q 822 0 840 0 l 671 0 q 641 12 653 0 q 629 41 629 24 l 629 431 q 500 593 629 593 q 318 496 415 593 l 318 41 q 306 12 318 24 q 277 0 294 0 l 125 0 q 95 12 107 0 q 83 41 83 24 m 231 997 q 267 1018 241 1018 l 366 1018 q 464 961 404 1018 l 486 940 l 510 961 q 608 1018 570 1018 l 707 1018 q 743 997 732 1018 q 747 981 747 990 q 734 958 747 971 l 628 861 q 528 802 566 802 l 444 802 q 345 861 407 802 l 239 958 q 227 981 227 971 q 231 997 227 990 z "},"Œ":{"ha":1687,"x_min":41,"x_max":1659,"o":"m 176 117 q 109 176 176 117 q 41 486 41 235 q 176 855 41 737 q 604 972 310 972 l 1596 972 q 1641 954 1622 972 q 1659 908 1659 935 l 1659 844 q 1641 799 1659 818 q 1596 781 1622 781 l 1006 781 l 1006 583 l 1514 583 q 1559 565 1540 583 q 1578 519 1578 546 l 1578 456 q 1559 411 1578 429 q 1514 392 1540 392 l 1006 392 l 1006 192 l 1594 192 q 1639 174 1621 192 q 1657 129 1657 155 l 1657 64 q 1638 19 1657 37 q 1593 0 1619 0 l 604 0 q 176 117 310 0 m 363 714 q 330 680 363 714 q 297 486 297 647 q 363 258 297 325 q 611 192 429 192 l 750 192 l 750 781 l 611 781 q 363 714 429 781 z "},"œ":{"ha":1458,"x_min":41,"x_max":1417,"o":"m 147 84 q 94 133 147 84 q 41 372 41 182 q 147 660 41 562 q 448 757 253 757 q 743 642 642 757 q 1025 757 842 757 q 1312 660 1208 757 q 1417 380 1417 562 l 1417 342 q 1405 312 1417 323 q 1375 300 1393 300 l 864 300 q 912 178 871 216 q 1043 140 953 140 q 1166 181 1133 140 q 1249 222 1200 222 l 1350 222 q 1380 211 1369 222 q 1392 180 1392 199 q 1021 -14 1392 -14 q 743 100 840 -14 q 447 -14 642 -14 q 147 84 253 -14 m 319 548 q 298 520 319 548 q 277 372 277 493 q 319 196 277 252 q 451 140 361 140 q 584 196 542 140 q 627 372 627 252 q 584 548 627 493 q 451 603 542 603 q 319 548 361 603 m 863 443 l 1178 443 q 1021 603 1171 603 q 863 443 871 603 z "},"Ŕ":{"ha":1122,"x_min":97,"x_max":1107,"o":"m 1107 29 q 1072 0 1107 0 l 909 0 q 806 64 844 0 l 690 244 q 518 355 619 355 l 353 355 l 353 64 q 334 19 353 37 q 289 0 315 0 l 161 0 q 117 19 136 0 q 97 64 97 39 l 97 908 q 115 954 97 936 q 160 972 134 972 l 720 972 q 974 889 873 972 q 1074 664 1074 806 q 818 416 1074 467 q 972 260 890 389 l 1096 64 q 1107 29 1107 46 m 353 547 l 642 547 q 765 575 711 547 q 818 664 818 603 q 765 753 818 725 q 642 781 711 781 l 353 781 l 353 547 m 482 1126 l 515 1254 q 604 1332 542 1332 l 665 1332 q 724 1303 710 1332 q 729 1277 729 1293 q 715 1240 729 1261 l 642 1112 q 558 1048 604 1048 l 526 1048 q 476 1093 476 1048 q 482 1126 476 1107 z "},"ŕ":{"ha":675,"x_min":83,"x_max":661,"o":"m 83 41 l 83 701 q 125 743 83 743 l 277 743 q 318 701 318 743 l 318 659 q 619 757 454 757 q 661 715 661 757 l 661 612 q 619 571 661 571 l 493 575 q 318 475 401 575 l 318 41 q 277 0 318 0 l 125 0 q 83 41 83 0 m 301 904 l 335 1032 q 424 1109 361 1110 l 485 1109 q 543 1081 530 1109 q 549 1055 549 1070 q 534 1018 549 1040 l 461 890 q 378 827 424 827 l 346 827 q 296 870 296 827 q 301 904 296 884 z "},"Ŗ":{"ha":1122,"x_min":97,"x_max":1107,"o":"m 1107 29 q 1072 0 1107 0 l 909 0 q 853 19 884 0 q 806 64 822 37 l 690 244 q 518 355 619 355 l 353 355 l 353 64 q 334 19 353 37 q 289 0 315 0 l 161 0 q 116 19 135 0 q 97 64 97 37 l 97 908 q 115 954 97 935 q 160 972 134 972 l 720 972 q 974 889 875 972 q 1074 664 1074 806 q 818 416 1074 467 q 893 365 859 401 q 972 260 928 329 l 1096 64 q 1107 29 1107 45 m 353 547 l 642 547 q 765 575 711 547 q 818 664 818 603 q 765 753 818 725 q 642 781 711 781 l 353 781 l 353 547 m 478 -252 l 481 -64 q 499 -10 481 -33 q 546 14 518 14 l 600 14 q 656 -7 636 14 q 669 -40 669 -24 q 668 -62 669 -56 l 621 -265 q 553 -315 610 -315 l 533 -315 q 491 -301 504 -315 q 478 -252 478 -286 z "},"ŗ":{"ha":675,"x_min":83,"x_max":661,"o":"m 597 571 l 493 575 q 318 475 401 575 l 318 41 q 306 12 318 23 q 277 0 294 0 l 125 0 q 95 12 106 0 q 83 41 83 23 l 83 701 q 95 731 83 720 q 125 743 107 743 l 277 743 q 307 731 295 743 q 318 701 318 720 l 318 659 q 451 733 387 709 q 619 757 515 757 q 649 745 637 757 q 661 715 661 733 l 661 612 q 649 583 661 594 q 619 571 637 571 l 597 571 m 98 -321 l 102 -134 q 120 -79 102 -103 q 167 -56 139 -56 l 221 -56 q 274 -74 257 -56 q 290 -109 290 -93 q 289 -132 290 -124 l 241 -335 q 174 -385 231 -385 l 154 -385 q 112 -370 125 -385 q 98 -321 98 -355 z "},"Ř":{"ha":1122,"x_min":97,"x_max":1107,"o":"m 1107 29 q 1072 0 1107 0 l 909 0 q 853 19 884 0 q 806 64 822 37 l 690 244 q 518 355 619 355 l 353 355 l 353 64 q 334 19 353 37 q 289 0 315 0 l 161 0 q 116 19 135 0 q 97 64 97 37 l 97 908 q 115 954 97 935 q 160 972 134 972 l 720 972 q 974 889 875 972 q 1074 664 1074 806 q 818 416 1074 467 q 893 365 859 401 q 972 260 928 329 l 1096 64 q 1107 29 1107 45 m 318 1226 q 354 1247 329 1247 l 453 1247 q 551 1190 492 1247 l 574 1169 l 597 1190 q 696 1247 657 1247 l 794 1247 q 831 1226 819 1247 q 835 1208 835 1218 q 822 1187 835 1198 l 715 1090 q 615 1031 653 1031 l 532 1031 q 432 1090 494 1031 l 326 1187 q 314 1208 314 1198 q 318 1226 314 1218 m 353 547 l 642 547 q 765 575 711 547 q 818 664 818 603 q 765 753 818 725 q 642 781 711 781 l 353 781 l 353 547 z "},"ř":{"ha":675,"x_min":83,"x_max":661,"o":"m 597 571 l 493 575 q 318 475 401 575 l 318 41 q 306 12 318 23 q 277 0 294 0 l 125 0 q 95 12 106 0 q 83 41 83 23 l 83 701 q 95 731 83 720 q 125 743 107 743 l 277 743 q 307 731 295 743 q 318 701 318 720 l 318 659 q 451 733 387 709 q 619 757 515 757 q 649 745 637 757 q 661 715 661 733 l 661 612 q 649 583 661 594 q 619 571 637 571 l 597 571 m 158 1046 l 257 1046 q 355 989 296 1046 l 378 968 l 401 989 q 500 1046 461 1046 l 599 1046 q 635 1025 624 1046 q 639 1008 639 1018 q 627 986 639 998 l 519 889 q 419 829 457 829 l 336 829 q 236 889 299 829 l 131 986 q 122 1026 111 1006 q 158 1046 133 1046 z "},"Š":{"ha":1082,"x_min":41,"x_max":1040,"o":"m 41 249 q 65 306 41 289 q 111 323 89 323 l 192 323 q 285 257 253 323 q 428 191 317 191 l 665 186 q 785 264 785 186 q 639 357 785 323 q 495 388 574 372 q 339 426 416 403 q 196 480 261 449 q 91 566 131 511 q 50 694 50 621 q 147 904 50 831 q 481 978 244 978 l 653 974 q 904 902 792 974 q 1015 724 1015 831 q 991 666 1015 684 q 946 648 968 648 l 865 648 q 772 715 804 648 q 629 782 741 782 l 425 786 q 306 708 306 786 q 381 638 306 665 q 565 590 457 611 q 781 541 672 570 q 965 445 889 511 q 1040 278 1040 378 q 943 68 1040 142 q 610 -5 846 -5 l 404 -1 q 153 70 265 -1 q 41 249 41 142 m 294 1248 q 330 1268 305 1268 l 429 1268 q 528 1211 468 1268 l 550 1190 l 574 1211 q 672 1268 633 1268 l 771 1268 q 807 1248 796 1268 q 811 1231 811 1240 q 799 1208 811 1221 l 692 1111 q 591 1051 629 1051 l 509 1051 q 408 1111 471 1051 l 302 1208 q 290 1231 290 1221 q 294 1248 290 1240 z "},"š":{"ha":831,"x_min":41,"x_max":789,"o":"m 41 538 q 395 757 41 757 q 766 562 766 757 q 755 533 766 545 q 725 521 743 521 l 624 521 q 542 562 575 521 q 411 603 509 603 q 277 538 277 603 q 329 487 277 507 q 457 451 382 467 q 608 412 533 436 q 736 337 684 389 q 789 205 789 285 q 416 -14 789 -14 q 43 180 43 -14 q 55 211 43 199 q 85 222 66 222 l 186 222 q 268 181 235 222 q 399 140 301 140 q 554 205 554 140 q 502 256 554 236 q 373 293 449 277 q 222 332 297 309 q 94 408 147 355 q 41 538 41 460 m 165 972 q 153 995 153 985 q 160 1018 153 1004 q 193 1032 168 1032 l 292 1032 q 390 975 330 1032 l 412 954 l 436 975 q 534 1032 496 1032 l 633 1032 q 669 1013 659 1032 q 673 995 673 1004 q 661 972 673 985 l 554 875 q 454 815 492 815 l 371 815 q 271 875 334 815 l 165 972 z "},"Ť":{"ha":1017,"x_min":14,"x_max":1003,"o":"m 14 844 l 14 908 q 32 954 14 936 q 78 972 50 972 l 939 972 q 985 954 966 972 q 1003 908 1003 936 l 1003 844 q 985 799 1003 817 q 939 781 966 781 l 636 781 l 636 62 q 617 18 636 36 q 572 0 599 0 l 444 0 q 399 18 418 0 q 380 62 380 36 l 380 781 l 78 781 q 32 799 50 781 q 14 844 14 817 m 260 1220 q 296 1240 271 1240 l 395 1240 q 493 1183 433 1240 l 515 1162 l 539 1183 q 637 1240 599 1240 l 736 1240 q 772 1220 761 1240 q 777 1203 777 1213 q 764 1181 777 1193 l 657 1083 q 557 1023 595 1023 l 473 1023 q 374 1083 436 1023 l 268 1181 q 256 1203 256 1193 q 260 1220 256 1213 z "},"ť":{"ha":625,"x_min":83,"x_max":600,"o":"m 437 147 l 530 155 l 555 155 q 597 114 597 155 l 597 41 q 555 0 597 5 q 375 -14 490 -14 q 83 292 83 -14 l 83 930 q 125 972 83 972 l 277 972 q 318 930 318 972 l 318 704 l 507 704 q 549 663 549 704 l 549 582 q 507 541 549 541 l 318 541 l 318 292 q 437 147 318 147 m 408 832 l 411 1061 q 430 1115 411 1092 q 476 1139 449 1139 l 530 1139 q 584 1120 567 1139 q 600 1086 600 1101 q 599 1063 600 1071 l 551 818 q 484 768 541 768 l 464 768 q 421 783 435 768 q 408 832 408 798 z "},"Ů":{"ha":1145,"x_min":83,"x_max":1061,"o":"m 83 385 l 83 908 q 102 954 83 935 q 149 972 121 972 l 275 972 q 320 954 301 972 q 339 908 339 935 l 339 383 q 518 186 339 186 l 627 186 q 806 383 806 186 l 806 908 q 824 954 806 935 q 869 972 843 972 l 996 972 q 1042 954 1023 972 q 1061 908 1061 935 l 1061 385 q 954 97 1061 200 q 633 -5 843 -5 l 511 -5 q 192 97 302 -5 q 83 385 83 200 m 715 1280 q 771 1149 771 1234 q 718 1015 771 1064 q 581 966 664 966 q 445 1015 498 966 q 392 1149 392 1064 q 447 1280 392 1234 q 581 1328 498 1328 q 715 1280 664 1328 m 582 1238 q 545 1238 582 1238 q 509 1147 509 1238 q 582 1057 509 1057 q 654 1147 654 1057 q 582 1238 654 1238 z "},"ů":{"ha":947,"x_min":83,"x_max":864,"o":"m 83 313 l 83 701 q 125 743 83 743 l 277 743 q 318 701 318 743 l 318 313 q 447 150 318 150 q 629 248 532 150 l 629 701 q 671 743 629 743 l 822 743 q 864 701 864 743 l 864 41 q 822 0 864 0 l 671 0 q 629 41 629 0 l 629 85 q 392 -14 511 -14 q 170 62 248 -14 q 83 313 83 149 m 619 1074 q 675 942 675 1026 q 622 808 675 857 q 486 760 568 760 q 349 808 403 760 q 296 942 296 857 q 351 1074 296 1026 q 486 1121 403 1121 q 619 1074 568 1121 m 485 1031 q 449 1031 485 1031 q 412 940 412 1031 q 485 850 412 850 q 558 940 558 850 q 485 1031 558 1031 z "},"Ÿ":{"ha":1031,"x_min":14,"x_max":1017,"o":"m 14 940 q 49 972 14 972 l 178 972 q 296 908 254 972 l 515 570 l 734 908 q 852 972 777 972 l 982 972 q 1017 940 1017 972 q 1006 908 1017 925 l 643 347 l 643 62 q 624 18 643 36 q 579 0 606 0 l 452 0 q 406 18 425 0 q 387 62 387 36 l 387 347 l 25 908 q 14 940 14 925 m 235 1097 l 235 1124 q 256 1181 235 1160 q 313 1202 277 1202 l 378 1202 q 435 1181 414 1202 q 456 1124 456 1160 l 456 1097 q 435 1040 456 1061 q 378 1019 414 1019 l 313 1019 q 256 1040 277 1019 q 235 1097 235 1061 m 575 1097 l 575 1124 q 596 1181 575 1160 q 653 1202 616 1202 l 718 1202 q 775 1181 754 1202 q 796 1124 796 1160 l 796 1097 q 775 1040 796 1061 q 718 1019 754 1019 l 653 1019 q 596 1040 616 1019 q 575 1097 575 1061 z "},"Ž":{"ha":996,"x_min":35,"x_max":961,"o":"m 35 844 l 35 908 q 53 954 35 936 q 98 972 72 972 l 890 972 q 936 954 917 972 q 954 908 954 936 l 954 832 q 942 779 954 804 q 920 742 930 753 l 890 711 l 357 192 l 897 192 q 943 174 925 192 q 961 127 961 155 l 961 64 q 943 18 961 36 q 897 0 925 0 l 110 0 q 65 18 83 0 q 46 64 46 36 l 46 139 q 110 268 46 204 l 627 781 l 98 781 q 53 799 72 781 q 35 844 35 817 m 275 1291 l 374 1291 q 472 1234 412 1291 l 494 1213 l 518 1234 q 616 1291 578 1291 l 715 1291 q 751 1270 741 1291 q 755 1253 755 1263 q 743 1231 755 1242 l 636 1133 q 536 1074 574 1074 l 453 1074 q 353 1133 416 1074 l 248 1231 q 239 1271 228 1251 q 275 1291 250 1291 z "},"ž":{"ha":777,"x_min":35,"x_max":742,"o":"m 35 621 l 35 701 q 46 731 35 720 q 77 743 58 743 l 694 743 q 724 731 713 743 q 736 701 736 720 l 736 636 q 688 538 736 586 l 318 164 l 700 164 q 730 152 718 164 q 742 122 742 140 l 742 41 q 730 12 742 24 q 700 0 718 0 l 77 0 q 46 12 58 0 q 35 41 35 24 l 35 107 q 83 205 35 157 l 440 579 l 77 579 q 46 591 58 579 q 35 621 35 603 m 132 1025 q 168 1046 143 1046 l 267 1046 q 366 989 306 1046 l 387 968 l 411 989 q 510 1046 471 1046 l 608 1046 q 644 1025 633 1046 q 648 1008 648 1018 q 636 986 648 999 l 529 889 q 429 829 467 829 l 346 829 q 245 889 309 829 l 140 986 q 127 1008 127 999 q 132 1025 127 1018 z "},"ƒ":{"ha":823,"x_min":-138,"x_max":892,"o":"m 804 814 l 713 825 q 531 789 578 825 q 464 639 484 753 l 461 628 l 707 628 q 735 616 725 628 q 742 586 745 604 l 728 505 q 710 475 725 487 q 677 464 696 464 l 432 464 l 364 77 q 46 -243 309 -243 q -104 -229 -47 -243 q -138 -197 -139 -221 q -138 -187 -139 -192 l -125 -114 q -108 -84 -122 -96 q -77 -72 -94 -72 l -56 -72 l 12 -82 q 82 -44 48 -82 q 129 77 115 -7 l 229 639 q 362 907 261 828 q 679 986 463 986 q 857 972 790 986 q 884 958 874 970 q 892 930 893 946 l 878 856 q 861 826 875 838 q 829 814 847 814 l 804 814 z "},"ˆ":{"ha":550,"x_min":13,"x_max":533,"o":"m 17 1086 q 13 1103 13 1093 q 25 1125 13 1113 l 131 1222 q 231 1282 193 1282 l 314 1282 q 414 1222 351 1282 l 521 1125 q 533 1103 533 1113 q 529 1086 533 1093 q 493 1065 518 1065 l 395 1065 q 296 1122 356 1065 l 272 1143 l 250 1122 q 151 1065 191 1065 l 53 1065 q 17 1086 28 1065 z "},"ˇ":{"ha":550,"x_min":13,"x_max":533,"o":"m 17 1262 q 53 1282 28 1282 l 151 1282 q 250 1225 190 1282 l 272 1204 l 296 1225 q 395 1282 355 1282 l 493 1282 q 529 1262 518 1282 q 533 1244 533 1255 q 521 1222 533 1234 l 414 1125 q 314 1065 351 1065 l 231 1065 q 131 1125 193 1065 l 25 1222 q 13 1244 13 1234 q 17 1262 13 1255 z "},"˜":{"ha":519,"x_min":28,"x_max":492,"o":"m 28 861 q 72 996 28 950 q 164 1042 115 1042 q 265 1014 214 1042 q 341 986 317 986 q 381 1010 366 986 q 415 1035 396 1035 l 471 1035 q 492 1014 492 1035 q 449 879 492 925 q 356 833 406 833 q 256 861 306 833 q 180 889 205 889 q 139 865 155 889 q 104 840 123 840 l 49 840 q 28 861 28 840 z "},"Ё":{"ha":1035,"x_min":97,"x_max":1007,"o":"m 97 65 l 97 909 q 116 954 97 936 q 161 972 135 972 l 943 972 q 988 954 970 972 q 1007 908 1007 935 l 1007 844 q 988 799 1007 818 q 943 781 970 781 l 353 781 l 353 583 l 861 583 q 906 565 888 583 q 925 519 925 546 l 925 456 q 906 411 925 429 q 861 392 888 392 l 353 392 l 353 192 l 942 192 q 986 174 968 192 q 1004 129 1004 155 l 1004 64 q 985 19 1004 37 q 940 0 966 0 l 161 0 q 116 19 135 0 q 97 65 97 37 m 268 1122 l 268 1149 q 289 1205 268 1185 q 346 1226 310 1226 l 411 1226 q 468 1205 447 1226 q 489 1149 489 1185 l 489 1122 q 468 1065 489 1086 q 411 1044 447 1044 l 346 1044 q 289 1065 310 1044 q 268 1122 268 1086 m 608 1122 l 608 1149 q 629 1205 608 1185 q 686 1226 650 1226 l 751 1226 q 808 1205 787 1226 q 829 1149 829 1185 l 829 1122 q 808 1065 829 1086 q 751 1044 787 1044 l 686 1044 q 629 1065 650 1044 q 608 1122 608 1086 z "},"Ђ":{"ha":1065,"x_min":14,"x_max":1038,"o":"m 624 164 l 693 154 q 755 186 728 154 q 782 278 782 218 l 782 313 q 607 476 782 476 q 400 379 484 476 l 400 64 q 381 19 400 37 q 336 0 363 0 l 210 0 q 163 19 182 0 q 144 64 144 37 l 144 783 l 56 783 q 25 795 37 783 q 14 825 14 807 l 14 930 q 25 961 14 949 q 56 972 37 972 l 489 972 q 519 961 507 972 q 530 930 530 949 l 530 825 q 519 795 530 807 q 489 783 507 783 l 400 783 l 400 583 q 659 668 498 668 q 928 579 819 668 q 1038 313 1038 490 l 1038 278 q 755 -14 1038 -14 q 614 -9 644 -14 q 561 35 561 0 l 561 122 q 573 152 561 140 q 603 164 585 164 l 624 164 z "},"Ѓ":{"ha":895,"x_min":97,"x_max":880,"o":"m 97 62 l 97 908 q 115 954 97 936 q 161 972 134 972 l 817 972 q 862 954 844 972 q 880 908 880 936 l 880 844 q 862 799 880 817 q 817 781 844 781 l 353 781 l 353 62 q 334 18 353 36 q 289 0 315 0 l 161 0 q 116 18 135 0 q 97 62 97 36 m 396 1120 l 450 1299 q 490 1354 460 1331 q 553 1377 519 1377 l 608 1377 q 688 1348 664 1377 q 699 1313 699 1332 q 686 1271 699 1295 l 591 1105 q 485 1028 547 1028 l 458 1028 q 389 1082 389 1028 q 396 1120 389 1099 z "},"Є":{"ha":1135,"x_min":41,"x_max":1100,"o":"m 167 115 q 104 175 167 115 q 41 486 41 235 q 167 858 41 737 q 545 978 293 978 l 696 978 q 880 946 793 978 q 1027 847 968 914 q 1086 693 1086 781 q 1063 635 1086 653 q 1017 618 1039 618 l 936 618 q 839 693 875 618 q 672 786 793 786 l 551 786 q 366 740 422 786 q 301 579 309 693 l 665 579 q 710 561 692 579 q 729 515 729 542 l 729 458 q 710 413 729 432 q 665 395 692 395 l 301 395 q 365 233 307 279 q 551 186 422 186 l 686 186 q 852 279 807 186 q 950 354 888 355 l 1031 354 q 1082 331 1063 354 q 1100 279 1100 307 q 1041 125 1100 192 q 895 26 982 58 q 710 -5 807 -5 l 545 -5 q 167 115 293 -5 z "},"Ѕ":{"ha":1082,"x_min":41,"x_max":1040,"o":"m 41 249 q 65 306 41 289 q 111 323 89 323 l 192 323 q 285 257 253 323 q 428 191 317 191 l 665 186 q 785 264 785 186 q 639 357 785 323 q 495 388 574 372 q 339 426 416 403 q 196 480 261 449 q 91 566 131 511 q 50 694 50 621 q 147 904 50 831 q 481 978 244 978 l 653 974 q 904 902 792 974 q 1015 724 1015 831 q 991 666 1015 684 q 946 648 968 648 l 865 648 q 772 715 804 648 q 629 782 741 782 l 425 786 q 306 708 306 786 q 381 638 306 665 q 565 590 457 611 q 781 541 672 570 q 965 445 889 511 q 1040 278 1040 378 q 943 68 1040 142 q 610 -5 846 -5 l 404 -1 q 153 70 265 -1 q 41 249 41 142 z "},"І":{"ha":450,"x_min":97,"x_max":353,"o":"m 97 62 l 97 908 q 116 954 97 935 q 161 972 135 972 l 288 972 q 334 954 315 972 q 353 908 353 935 l 353 64 q 333 19 353 37 q 288 0 314 0 l 161 0 q 116 18 135 0 q 97 62 97 36 z "},"Ї":{"ha":450,"x_min":-28,"x_max":478,"o":"m -28 1122 l -28 1149 q -7 1205 -28 1185 q 50 1226 14 1226 l 104 1226 q 161 1205 140 1226 q 182 1149 182 1185 l 182 1122 q 161 1065 182 1086 q 104 1044 140 1044 l 50 1044 q -7 1065 14 1044 q -28 1122 -28 1086 m 97 62 l 97 908 q 116 954 97 935 q 161 972 135 972 l 288 972 q 334 954 315 972 q 353 908 353 935 l 353 64 q 333 19 353 37 q 288 0 314 0 l 161 0 q 116 18 135 0 q 97 62 97 36 m 268 1122 l 268 1149 q 289 1205 268 1185 q 346 1226 310 1226 l 400 1226 q 457 1205 436 1226 q 478 1149 478 1185 l 478 1122 q 457 1065 478 1086 q 400 1044 436 1044 l 346 1044 q 289 1065 310 1044 q 268 1122 268 1086 z "},"Ј":{"ha":766,"x_min":0,"x_max":684,"o":"m 86 204 l 200 192 l 249 192 q 386 231 343 192 q 428 361 428 269 l 428 908 q 447 954 428 935 q 492 972 465 972 l 618 972 q 665 954 646 972 q 684 908 684 935 l 684 363 q 568 95 684 189 q 256 0 453 0 l 64 0 q 19 19 37 0 q 0 64 0 37 l 0 140 q 18 185 0 167 q 64 204 36 204 l 86 204 z "},"Љ":{"ha":1715,"x_min":15,"x_max":1687,"o":"m 17 57 l 189 708 q 639 972 258 972 l 957 972 q 997 953 981 972 q 1014 908 1014 933 l 1014 642 l 1318 642 q 1583 557 1478 642 q 1687 321 1687 472 q 1583 85 1687 170 q 1318 0 1478 0 l 822 0 q 777 19 795 0 q 758 64 758 37 l 758 781 l 614 781 q 500 744 549 781 q 435 644 452 707 l 279 64 q 249 18 273 36 q 199 0 225 0 l 61 0 q 26 15 37 0 q 15 40 15 30 q 17 57 16 50 m 1014 192 l 1318 192 q 1432 321 1432 192 q 1318 450 1432 450 l 1014 450 l 1014 192 z "},"Њ":{"ha":1733,"x_min":97,"x_max":1706,"o":"m 97 64 l 97 908 q 116 954 97 935 q 163 972 135 972 l 289 972 q 334 954 315 972 q 353 908 353 935 l 353 616 l 775 616 l 775 908 q 794 954 775 935 q 839 972 812 972 l 965 972 q 1012 954 993 972 q 1031 908 1031 935 l 1031 616 l 1336 616 q 1600 534 1495 616 q 1706 309 1706 452 q 1600 83 1706 165 q 1336 0 1495 0 l 839 0 q 794 18 812 0 q 775 62 775 36 l 775 425 l 353 425 l 353 62 q 334 18 353 36 q 289 0 315 0 l 163 0 q 117 19 136 0 q 97 64 97 37 m 1031 192 l 1336 192 q 1421 223 1393 192 q 1450 309 1450 254 q 1421 394 1450 363 q 1336 425 1393 425 l 1031 425 l 1031 192 z "},"Ћ":{"ha":1079,"x_min":14,"x_max":1038,"o":"m 14 825 l 14 930 q 25 961 14 949 q 56 972 37 972 l 489 972 q 519 961 507 972 q 530 930 530 949 l 530 825 q 519 795 530 807 q 489 783 507 783 l 400 783 l 400 583 q 659 668 498 668 q 928 579 819 668 q 1038 313 1038 490 l 1038 64 q 1018 19 1038 37 q 972 0 999 0 l 846 0 q 801 19 819 0 q 782 64 782 37 l 782 313 q 607 476 782 477 q 400 379 484 476 l 400 64 q 381 19 400 37 q 336 0 363 0 l 210 0 q 163 19 182 0 q 144 64 144 37 l 144 783 l 56 783 q 25 795 37 783 q 14 825 14 807 z "},"Ќ":{"ha":1104,"x_min":97,"x_max":1103,"o":"m 1103 30 q 1068 0 1103 0 l 913 0 q 856 19 886 0 q 808 64 825 37 l 689 253 q 603 357 646 322 q 498 392 559 392 l 353 392 l 353 62 q 334 18 353 36 q 289 0 315 0 l 161 0 q 116 19 135 0 q 97 65 97 39 l 97 908 q 116 954 97 935 q 161 974 135 974 l 289 974 q 334 954 315 974 q 353 908 353 935 l 353 583 l 498 583 q 603 616 558 583 q 689 721 648 648 l 794 908 q 892 974 830 973 l 1048 974 q 1081 945 1081 974 q 1069 908 1081 930 l 922 642 q 851 545 890 583 q 747 492 811 507 q 839 435 792 482 q 922 334 886 389 l 1092 64 q 1103 30 1103 44 m 486 1092 l 541 1271 q 580 1326 550 1303 q 643 1349 610 1349 l 699 1349 q 778 1319 754 1349 q 789 1285 789 1305 q 777 1243 789 1266 l 682 1078 q 575 1000 637 1000 l 549 1000 q 479 1054 479 1000 q 486 1092 479 1070 z "},"Ў":{"ha":1082,"x_min":19,"x_max":1067,"o":"m 302 204 l 416 192 l 431 192 q 615 368 566 192 l 557 368 q 290 438 386 368 q 126 664 195 507 l 20 908 q 19 954 8 935 q 57 972 31 972 l 200 972 q 290 911 265 972 l 368 722 q 455 600 403 640 q 593 559 507 559 l 676 559 l 799 909 q 832 956 808 939 q 884 972 856 972 l 1021 972 q 1057 958 1047 972 q 1067 932 1067 943 q 1064 911 1067 921 l 843 278 q 704 72 797 144 q 444 0 611 0 l 281 0 q 235 19 254 0 q 216 64 216 37 l 216 140 q 235 185 216 167 q 281 204 253 204 l 302 204 m 338 1222 q 375 1257 338 1257 l 431 1257 q 478 1222 464 1257 q 566 1174 498 1173 q 653 1222 633 1174 q 700 1257 667 1257 l 755 1257 q 793 1222 793 1257 q 730 1075 793 1129 q 565 1021 668 1021 q 400 1075 463 1021 q 338 1222 338 1129 z "},"Џ":{"ha":1202,"x_min":97,"x_max":1104,"o":"m 97 64 l 97 908 q 116 954 97 935 q 161 972 135 972 l 289 972 q 334 954 315 972 q 353 908 353 935 l 353 192 l 848 192 l 848 908 q 867 954 848 935 q 913 972 886 972 l 1039 972 q 1085 954 1065 972 q 1104 908 1104 935 l 1104 64 q 1085 19 1104 37 q 1040 0 1067 0 l 715 0 l 715 -186 q 696 -231 715 -212 q 650 -250 676 -250 l 550 -250 q 505 -231 524 -250 q 486 -186 486 -212 l 486 0 l 160 0 q 115 19 134 0 q 97 64 97 37 z "},"А":{"ha":1158,"x_min":14,"x_max":1061,"o":"m 17 62 l 187 708 q 637 972 256 972 l 1003 972 q 1045 954 1028 972 q 1061 909 1061 935 l 1061 62 q 1042 18 1061 36 q 997 0 1023 0 l 869 0 q 824 18 842 0 q 806 64 806 36 l 806 235 l 323 235 l 278 64 q 248 18 271 36 q 197 0 224 0 l 64 0 q 26 15 37 0 q 15 42 14 31 q 17 62 15 54 m 374 427 l 806 427 l 806 781 l 612 781 q 499 744 547 781 q 433 644 450 707 l 374 427 z "},"Б":{"ha":1099,"x_min":97,"x_max":1057,"o":"m 97 62 l 97 908 q 115 954 97 936 q 161 972 134 972 l 925 972 q 970 954 951 972 q 989 908 989 935 l 989 844 q 971 799 989 818 q 926 781 953 781 l 353 781 l 353 616 l 688 616 q 955 539 852 616 q 1057 308 1057 461 q 955 78 1057 155 q 688 0 852 0 l 158 0 q 115 18 132 0 q 97 62 97 36 m 353 192 l 688 192 q 802 309 802 192 q 688 425 802 425 l 353 425 l 353 192 z "},"В":{"ha":1146,"x_min":97,"x_max":1104,"o":"m 97 908 q 116 954 97 935 q 161 972 135 972 l 713 972 q 1012 856 916 972 q 1065 691 1065 791 q 974 517 1065 591 q 1104 300 1104 447 q 1000 76 1104 153 q 745 0 896 0 l 161 0 q 116 19 135 0 q 97 64 97 37 l 97 908 m 353 183 l 741 183 q 821 214 793 183 q 848 300 848 245 q 821 385 848 354 q 741 416 793 416 l 353 416 l 353 183 m 353 595 l 715 595 q 784 620 758 595 q 810 691 810 646 q 784 763 810 737 q 715 789 758 789 l 353 789 l 353 595 z "},"Г":{"ha":895,"x_min":97,"x_max":880,"o":"m 97 62 l 97 908 q 115 954 97 936 q 161 972 134 972 l 817 972 q 862 954 844 972 q 880 908 880 936 l 880 844 q 862 799 880 817 q 817 781 844 781 l 353 781 l 353 62 q 334 18 353 36 q 289 0 315 0 l 161 0 q 116 18 135 0 q 97 62 97 36 z "},"Д":{"ha":1211,"x_min":0,"x_max":1114,"o":"m 0 64 l 0 129 q 19 174 0 155 q 64 192 37 192 l 117 192 l 243 705 q 684 972 309 972 l 1050 972 q 1095 954 1076 972 q 1114 909 1114 936 l 1114 62 q 1095 18 1114 36 q 1050 0 1076 0 l 64 0 q 19 19 37 0 q 0 64 0 37 m 378 192 l 859 192 l 859 781 l 656 781 q 549 745 591 781 q 492 647 507 710 l 378 192 z "},"Е":{"ha":1035,"x_min":97,"x_max":1007,"o":"m 97 65 l 97 909 q 116 954 97 936 q 161 972 135 972 l 943 972 q 988 954 970 972 q 1007 908 1007 935 l 1007 844 q 988 799 1007 818 q 943 781 970 781 l 353 781 l 353 583 l 861 583 q 906 565 888 583 q 925 519 925 546 l 925 456 q 906 411 925 429 q 861 392 888 392 l 353 392 l 353 192 l 942 192 q 986 174 968 192 q 1004 129 1004 155 l 1004 64 q 985 19 1004 37 q 940 0 966 0 l 161 0 q 116 19 135 0 q 97 65 97 37 z "},"Ж":{"ha":1528,"x_min":0,"x_max":1526,"o":"m 24 946 q 56 974 24 974 l 212 974 q 310 908 273 974 l 415 721 q 501 616 456 648 q 606 583 546 583 l 636 583 l 636 908 q 655 954 636 935 q 700 974 673 974 l 828 974 q 873 954 854 974 q 892 908 892 935 l 892 583 l 922 583 q 1027 616 982 583 q 1112 721 1072 648 l 1218 908 q 1315 974 1254 974 l 1472 974 q 1504 956 1499 974 l 1504 946 q 1493 908 1504 929 l 1346 642 q 1274 545 1314 583 q 1171 492 1235 507 q 1262 435 1215 482 q 1346 334 1310 389 l 1515 64 q 1526 17 1533 34 q 1492 0 1518 0 l 1336 0 q 1279 19 1310 0 q 1232 64 1249 37 l 1112 253 q 1026 357 1069 322 q 922 392 983 392 l 892 392 l 892 62 q 873 18 892 36 q 828 0 854 0 l 700 0 q 655 18 673 0 q 636 62 636 36 l 636 392 l 606 392 q 502 357 545 392 q 415 253 458 322 l 296 64 q 249 19 279 37 q 192 0 218 0 l 36 0 q 3 18 9 0 q 0 34 0 24 q 12 64 0 45 l 182 334 q 266 435 218 389 q 357 492 313 482 q 253 545 293 507 q 182 642 214 583 l 35 908 q 24 946 24 929 z "},"З":{"ha":1084,"x_min":35,"x_max":1043,"o":"m 35 265 q 58 323 35 305 q 104 340 82 340 l 184 340 q 282 265 247 340 q 339 208 299 229 q 428 186 379 186 l 640 186 q 751 210 714 186 q 787 290 787 233 q 751 371 787 347 q 640 395 714 395 l 465 395 q 420 413 439 395 q 401 458 401 432 l 401 514 q 419 558 401 539 q 463 578 437 578 l 615 578 q 735 602 697 578 q 774 682 774 627 q 735 762 774 737 q 615 786 697 786 l 450 786 q 298 703 340 786 q 207 639 268 639 l 126 639 q 75 663 94 639 q 57 714 57 686 q 174 904 57 829 q 427 978 290 978 l 635 978 q 1029 681 1029 978 q 936 486 1029 557 q 1043 290 1043 420 q 945 64 1043 134 q 664 -5 847 -5 l 404 -5 q 151 70 267 -5 q 35 265 35 146 z "},"И":{"ha":1183,"x_min":97,"x_max":1086,"o":"m 97 64 l 97 908 q 115 954 97 936 q 161 972 134 972 l 281 972 q 326 954 307 972 q 345 909 345 936 l 345 231 l 730 908 q 773 954 746 935 q 823 972 800 972 l 1023 972 q 1068 954 1050 972 q 1086 908 1086 935 l 1086 64 q 1067 19 1086 37 q 1022 0 1048 0 l 903 0 q 858 19 876 0 q 839 64 839 37 l 839 693 l 485 64 q 441 19 469 37 q 386 0 412 0 l 161 0 q 116 19 135 0 q 97 64 97 37 z "},"Й":{"ha":1183,"x_min":97,"x_max":1086,"o":"m 97 64 l 97 908 q 115 954 97 936 q 161 972 134 972 l 281 972 q 326 954 307 972 q 345 909 345 936 l 345 231 l 730 908 q 773 954 746 935 q 823 972 800 972 l 1023 972 q 1068 954 1050 972 q 1086 908 1086 935 l 1086 64 q 1067 19 1086 37 q 1022 0 1048 0 l 903 0 q 858 19 876 0 q 839 64 839 37 l 839 693 l 485 64 q 441 19 469 37 q 386 0 412 0 l 161 0 q 116 19 135 0 q 97 64 97 37 m 364 1250 q 401 1284 364 1284 l 457 1284 q 504 1250 490 1284 q 592 1202 524 1202 q 679 1250 660 1202 q 726 1284 693 1284 l 782 1284 q 819 1250 819 1284 q 757 1103 819 1157 q 592 1048 694 1048 q 427 1103 489 1048 q 364 1250 364 1157 z "},"К":{"ha":1104,"x_min":97,"x_max":1103,"o":"m 1103 30 q 1068 0 1103 0 l 913 0 q 856 19 886 0 q 808 64 825 37 l 689 253 q 603 357 646 322 q 498 392 559 392 l 353 392 l 353 62 q 334 18 353 36 q 289 0 315 0 l 161 0 q 116 19 135 0 q 97 65 97 39 l 97 908 q 116 954 97 935 q 161 974 135 974 l 289 974 q 334 954 315 974 q 353 908 353 935 l 353 583 l 498 583 q 603 616 558 583 q 689 721 648 648 l 794 908 q 892 974 830 973 l 1048 974 q 1081 945 1081 974 q 1069 908 1081 930 l 922 642 q 851 545 890 583 q 747 492 811 507 q 839 435 792 482 q 922 334 886 389 l 1092 64 q 1103 30 1103 44 z "},"Л":{"ha":1132,"x_min":15,"x_max":1035,"o":"m 17 57 l 189 708 q 639 972 258 972 l 978 972 q 1018 953 1002 972 q 1035 908 1035 933 l 1035 64 q 1017 19 1035 37 q 972 0 999 0 l 843 0 q 798 19 817 0 q 779 64 779 37 l 779 781 l 614 781 q 500 744 549 781 q 435 644 452 707 l 279 64 q 249 18 273 36 q 199 0 225 0 l 61 0 q 26 15 37 0 q 15 40 15 30 q 17 57 16 50 z "},"М":{"ha":1436,"x_min":97,"x_max":1339,"o":"m 97 65 l 97 907 q 115 954 97 935 q 160 972 134 972 l 436 972 q 486 954 463 972 q 518 908 510 935 l 718 329 l 918 908 q 950 954 926 935 q 1000 972 974 972 l 1276 972 q 1321 954 1303 972 q 1339 907 1339 935 l 1339 65 q 1320 19 1339 37 q 1275 0 1301 0 l 1153 0 q 1108 19 1126 0 q 1089 65 1089 37 l 1089 728 l 850 61 q 817 18 840 36 q 766 0 793 0 l 669 0 q 620 18 643 0 q 586 61 596 36 l 347 728 l 347 65 q 329 19 347 37 q 283 0 310 0 l 161 0 q 116 19 135 0 q 97 65 97 37 z "},"Н":{"ha":1173,"x_min":97,"x_max":1075,"o":"m 97 64 l 97 908 q 116 954 97 935 q 163 972 135 972 l 289 972 q 334 954 315 972 q 353 908 353 935 l 353 603 l 819 603 l 819 908 q 838 954 819 935 q 884 972 857 972 l 1010 972 q 1056 954 1038 972 q 1075 908 1075 935 l 1075 64 q 1056 19 1075 37 q 1010 0 1036 0 l 884 0 q 838 18 857 0 q 819 62 819 36 l 819 411 l 353 411 l 353 62 q 334 18 353 36 q 289 0 315 0 l 163 0 q 117 19 136 0 q 97 64 97 37 z "},"О":{"ha":1175,"x_min":41,"x_max":1133,"o":"m 995 101 q 925 40 995 101 q 588 -21 856 -21 q 180 101 319 -21 q 41 486 41 222 q 180 871 41 750 q 588 993 319 993 q 995 871 856 993 q 1133 486 1133 750 q 995 101 1133 222 m 809 728 q 775 769 809 728 q 588 810 741 810 q 366 728 435 810 q 297 486 297 647 q 366 244 297 325 q 588 163 435 163 q 809 244 741 163 q 878 486 878 325 q 809 728 878 647 z "},"П":{"ha":1202,"x_min":97,"x_max":1104,"o":"m 97 64 l 97 908 q 115 954 97 935 q 160 972 134 972 l 1040 972 q 1085 954 1067 972 q 1104 908 1104 935 l 1104 64 q 1085 19 1104 37 q 1039 0 1065 0 l 913 0 q 867 19 886 0 q 848 64 848 37 l 848 781 l 353 781 l 353 64 q 334 19 353 37 q 289 0 315 0 l 161 0 q 116 19 135 0 q 97 64 97 37 z "},"Р":{"ha":1116,"x_min":97,"x_max":1088,"o":"m 97 64 l 97 908 q 115 954 97 935 q 160 972 134 972 l 677 972 q 1088 594 1088 972 q 677 216 1088 216 l 353 216 l 353 64 q 334 19 353 37 q 289 0 315 0 l 161 0 q 116 19 135 0 q 97 64 97 37 m 353 408 l 600 408 q 773 447 714 408 q 832 594 832 485 q 773 742 832 704 q 600 781 714 781 l 353 781 l 353 408 z "},"С":{"ha":1135,"x_min":41,"x_max":1100,"o":"m 167 115 q 104 175 167 115 q 41 486 41 235 q 167 858 41 737 q 545 978 293 978 l 696 978 q 968 898 850 978 q 1086 679 1086 818 q 1063 622 1086 639 q 1017 604 1039 604 l 936 604 q 839 679 873 604 q 672 786 789 786 l 551 786 q 350 722 403 786 q 297 486 297 659 q 350 250 297 314 q 551 186 403 186 l 686 186 q 852 293 803 186 q 950 368 887 368 l 1031 368 q 1081 345 1063 368 q 1100 293 1100 321 q 982 74 1100 154 q 710 -5 864 -5 l 545 -5 q 167 115 293 -5 z "},"Т":{"ha":1017,"x_min":14,"x_max":1003,"o":"m 14 844 l 14 908 q 32 954 14 936 q 78 972 50 972 l 939 972 q 985 954 966 972 q 1003 908 1003 936 l 1003 844 q 985 799 1003 817 q 939 781 966 781 l 636 781 l 636 62 q 617 18 636 36 q 572 0 599 0 l 444 0 q 399 18 418 0 q 380 62 380 36 l 380 781 l 78 781 q 32 799 50 781 q 14 844 14 817 z "},"У":{"ha":1082,"x_min":19,"x_max":1067,"o":"m 302 204 l 416 192 l 431 192 q 615 368 566 192 l 557 368 q 290 438 386 368 q 126 664 195 507 l 20 908 q 19 954 8 935 q 57 972 31 972 l 200 972 q 290 911 265 972 l 368 722 q 455 600 403 640 q 593 559 507 559 l 676 559 l 799 909 q 832 956 808 939 q 884 972 856 972 l 1021 972 q 1057 958 1047 972 q 1067 932 1067 943 q 1064 911 1067 921 l 843 278 q 704 72 797 144 q 444 0 611 0 l 281 0 q 235 19 254 0 q 216 64 216 37 l 216 140 q 235 185 216 167 q 281 204 253 204 l 302 204 z "},"Ф":{"ha":1322,"x_min":28,"x_max":1295,"o":"m 533 885 l 533 951 q 552 997 533 978 q 599 1015 571 1015 l 724 1015 q 770 997 751 1015 q 789 951 789 978 l 789 885 q 1158 790 1021 885 q 1295 486 1295 694 q 1158 183 1295 278 q 789 87 1021 87 l 789 21 q 769 -24 789 -5 q 724 -43 750 -43 l 599 -43 q 553 -24 572 -43 q 533 21 533 -5 l 533 87 q 164 183 301 87 q 28 486 28 278 q 164 790 28 694 q 533 885 301 885 m 541 271 l 541 701 q 352 648 421 701 q 283 486 283 595 q 352 324 283 378 q 541 271 421 271 m 782 271 q 970 324 901 271 q 1039 486 1039 378 q 970 648 1039 595 q 782 701 901 701 l 782 271 z "},"Х":{"ha":1042,"x_min":14,"x_max":1028,"o":"m 52 0 q 14 31 18 0 q 28 64 14 45 l 370 500 l 47 908 q 33 941 33 926 q 71 972 33 972 l 216 972 q 335 908 284 972 l 521 672 l 707 908 q 825 972 757 972 l 971 972 q 1008 941 1008 972 q 994 908 1008 926 l 672 500 l 1014 64 q 1028 35 1028 46 q 1025 20 1028 24 q 990 0 1018 0 l 846 0 q 728 64 778 0 l 521 328 l 314 64 q 196 0 264 0 l 52 0 z "},"Ц":{"ha":1202,"x_min":97,"x_max":1202,"o":"m 97 64 l 97 909 q 116 954 97 936 q 161 972 135 972 l 289 972 q 334 954 315 972 q 353 908 353 935 l 353 192 l 808 192 l 808 909 q 827 954 808 936 q 872 972 846 972 l 1000 972 q 1045 954 1026 972 q 1064 908 1064 935 l 1064 192 l 1137 192 q 1183 173 1164 192 q 1202 127 1202 154 l 1202 64 q 1183 19 1202 37 q 1137 0 1164 0 l 161 0 q 116 19 135 0 q 97 64 97 37 z "},"Ч":{"ha":1090,"x_min":56,"x_max":993,"o":"m 56 681 l 56 908 q 75 954 56 935 q 121 972 94 972 l 248 972 q 292 954 273 972 q 311 908 311 935 l 311 681 q 475 517 311 517 l 737 517 l 737 908 q 756 954 737 935 q 802 972 775 972 l 928 972 q 974 954 956 972 q 993 908 993 935 l 993 64 q 974 19 993 37 q 928 0 954 0 l 802 0 q 756 18 775 0 q 737 62 737 36 l 737 325 l 475 325 q 169 413 282 325 q 56 681 56 501 z "},"Ш":{"ha":1556,"x_min":97,"x_max":1458,"o":"m 97 64 l 97 908 q 116 954 97 935 q 161 972 135 972 l 289 972 q 334 954 315 972 q 353 909 353 936 l 353 192 l 650 192 l 650 909 q 669 954 650 936 q 714 972 688 972 l 842 972 q 887 954 868 972 q 905 908 905 935 l 905 192 l 1203 192 l 1203 909 q 1222 954 1203 936 q 1267 972 1240 972 l 1394 972 q 1439 954 1421 972 q 1458 908 1458 935 l 1458 64 q 1439 19 1458 37 q 1394 0 1421 0 l 161 0 q 116 19 135 0 q 97 64 97 37 z "},"Щ":{"ha":1596,"x_min":97,"x_max":1596,"o":"m 97 64 l 97 908 q 116 954 97 935 q 161 972 135 972 l 289 972 q 334 954 315 972 q 353 909 353 936 l 353 192 l 650 192 l 650 909 q 669 954 650 936 q 714 972 688 972 l 842 972 q 887 954 868 972 q 905 908 905 935 l 905 192 l 1203 192 l 1203 909 q 1222 954 1203 936 q 1267 972 1240 972 l 1394 972 q 1439 954 1421 972 q 1458 908 1458 935 l 1458 192 l 1532 192 q 1577 173 1558 192 q 1596 127 1596 154 l 1596 64 q 1577 19 1596 37 q 1532 0 1558 0 l 161 0 q 116 19 135 0 q 97 64 97 37 z "},"Ъ":{"ha":1215,"x_min":0,"x_max":1187,"o":"m 0 844 l 0 908 q 19 954 0 935 q 64 972 37 972 l 433 972 q 478 954 460 972 q 497 908 497 935 l 497 642 l 818 642 q 1083 557 978 642 q 1187 321 1187 472 q 1083 85 1187 170 q 818 0 978 0 l 302 0 q 259 19 277 0 q 241 65 241 39 l 241 781 l 64 781 q 19 799 37 781 q 0 844 0 818 m 497 192 l 818 192 q 932 321 932 192 q 818 450 932 450 l 497 450 l 497 192 z "},"Ы":{"ha":1493,"x_min":97,"x_max":1396,"o":"m 97 65 l 97 908 q 115 954 97 936 q 161 972 134 972 l 289 972 q 334 954 315 972 q 353 908 353 935 l 353 642 l 632 642 q 897 557 791 642 q 1002 321 1002 472 q 897 85 1002 170 q 632 0 791 0 l 158 0 q 115 19 134 0 q 97 65 97 39 m 353 192 l 632 192 q 746 321 746 192 q 632 450 746 450 l 353 450 l 353 192 m 1137 62 l 1137 908 q 1156 954 1137 935 q 1202 972 1175 972 l 1331 972 q 1377 954 1358 972 q 1396 908 1396 935 l 1396 64 q 1376 19 1396 37 q 1331 0 1357 0 l 1202 0 q 1156 18 1175 0 q 1137 62 1137 36 z "},"Ь":{"ha":1084,"x_min":97,"x_max":1057,"o":"m 97 65 l 97 908 q 115 954 97 936 q 161 972 134 972 l 289 972 q 334 954 315 972 q 353 908 353 935 l 353 642 l 688 642 q 952 557 848 642 q 1057 321 1057 472 q 952 85 1057 170 q 688 0 847 0 l 158 0 q 115 19 133 0 q 97 65 97 39 m 353 192 l 688 192 q 802 321 802 192 q 688 450 802 450 l 353 450 l 353 192 z "},"Э":{"ha":1135,"x_min":35,"x_max":1093,"o":"m 35 279 q 58 337 35 319 q 104 354 82 354 l 184 354 q 282 279 245 354 q 448 186 328 186 l 583 186 q 770 233 712 186 q 833 395 828 279 l 469 395 q 424 413 443 395 q 406 458 406 432 l 406 515 q 424 561 406 542 q 469 579 443 579 l 833 579 q 770 740 827 693 q 583 786 713 786 l 463 786 q 296 693 342 786 q 199 618 260 618 l 118 618 q 67 642 86 618 q 49 693 49 665 q 108 847 49 781 q 254 946 167 914 q 439 978 342 978 l 590 978 q 967 858 842 978 q 1093 486 1093 737 q 967 115 1093 235 q 590 -5 842 -5 l 425 -5 q 240 26 328 -5 q 94 125 153 58 q 35 279 35 192 z "},"Ю":{"ha":1547,"x_min":97,"x_max":1506,"o":"m 97 64 l 97 908 q 116 954 97 935 q 163 972 135 972 l 292 972 q 337 954 318 972 q 355 908 355 935 l 355 604 l 482 604 q 990 993 539 993 q 1506 486 1506 993 q 990 -21 1506 -21 q 478 411 515 -21 l 355 411 l 355 62 q 337 18 355 36 q 292 0 318 0 l 163 0 q 117 19 136 0 q 97 64 97 37 m 990 810 q 860 810 990 810 q 730 486 730 810 q 990 163 730 163 q 1250 486 1250 163 q 990 810 1250 810 z "},"Я":{"ha":1104,"x_min":43,"x_max":1007,"o":"m 43 39 q 52 64 43 50 l 239 372 q 47 656 47 456 q 152 890 47 807 q 415 972 257 972 l 946 972 q 989 954 971 972 q 1007 909 1007 936 l 1007 62 q 988 18 1007 36 q 943 0 970 0 l 815 0 q 770 19 789 0 q 751 64 751 37 l 751 345 l 509 345 l 346 62 q 248 0 311 0 l 77 0 q 43 39 43 0 m 415 781 q 302 661 302 781 q 415 542 302 542 l 751 542 l 751 781 l 415 781 z "},"а":{"ha":905,"x_min":41,"x_max":822,"o":"m 131 49 q 86 80 131 49 q 41 225 41 111 q 131 400 41 339 q 363 461 221 461 l 587 461 q 554 572 587 541 q 438 603 521 603 q 321 562 355 603 q 239 521 288 521 l 138 521 q 107 533 119 521 q 96 562 96 545 q 465 757 96 757 q 724 685 627 757 q 822 461 822 612 l 822 41 q 810 12 822 23 q 781 0 799 0 l 650 0 q 620 12 631 0 q 608 41 608 24 l 608 62 q 361 -14 501 -14 q 131 49 221 -14 m 379 307 q 304 284 332 307 q 277 224 277 261 q 305 164 277 188 q 386 140 334 140 q 587 201 490 140 l 587 307 l 379 307 z "},"б":{"ha":893,"x_min":41,"x_max":859,"o":"m 41 361 l 41 458 q 123 813 41 692 q 403 953 205 935 l 777 986 q 783 986 777 986 q 808 979 798 986 q 821 951 821 968 l 821 863 q 806 821 821 840 q 771 800 791 802 l 486 777 q 287 710 345 765 q 229 534 229 656 q 484 652 313 652 q 757 565 656 652 q 859 318 859 478 q 754 72 859 158 q 450 -14 650 -14 q 41 361 41 -14 m 450 497 q 408 497 450 497 q 322 451 367 497 q 277 319 277 404 q 322 187 277 233 q 450 140 367 140 q 578 187 533 140 q 624 319 624 233 q 578 451 624 404 q 450 497 533 497 z "},"в":{"ha":890,"x_min":83,"x_max":856,"o":"m 83 41 l 83 701 q 95 731 83 720 q 125 743 107 743 l 530 743 q 740 693 660 743 q 821 542 821 643 q 737 390 821 441 q 856 213 856 330 q 779 48 856 96 q 559 0 703 0 l 125 0 q 95 12 107 0 q 83 41 83 24 m 318 151 l 543 151 q 601 172 581 151 q 621 228 621 193 q 601 283 621 262 q 543 304 581 304 l 318 304 l 318 151 m 318 453 l 517 453 q 567 472 547 453 q 586 522 586 492 q 567 572 586 553 q 517 591 547 591 l 318 591 l 318 453 z "},"г":{"ha":688,"x_min":83,"x_max":673,"o":"m 83 41 l 83 701 q 95 731 83 720 q 125 743 107 743 l 632 743 q 662 731 650 743 q 673 701 673 720 l 673 621 q 662 591 673 603 q 632 579 650 579 l 318 579 l 318 41 q 306 12 318 24 q 277 0 294 0 l 125 0 q 95 12 107 0 q 83 41 83 24 z "},"д":{"ha":975,"x_min":14,"x_max":892,"o":"m 14 41 l 14 122 q 25 152 14 140 q 56 164 37 164 l 109 164 l 201 538 q 542 743 253 743 l 850 743 q 880 731 868 743 q 892 701 892 720 l 892 41 q 880 12 892 24 q 850 0 868 0 l 56 0 q 25 12 37 0 q 14 41 14 24 m 330 164 l 657 164 l 657 579 l 534 579 q 410 479 436 579 l 330 164 z "},"е":{"ha":875,"x_min":41,"x_max":833,"o":"m 146 85 q 94 135 146 85 q 41 371 41 184 q 146 657 41 557 q 438 757 252 757 q 729 660 625 757 q 833 380 833 562 l 833 342 q 822 312 833 323 q 791 300 810 300 l 281 300 q 329 178 288 216 q 460 140 370 140 q 583 181 550 140 q 665 222 616 222 l 766 222 q 797 211 785 222 q 808 180 808 199 q 437 -14 808 -14 q 146 85 250 -14 m 279 443 l 595 443 q 438 603 588 603 q 279 443 288 603 z "},"ж":{"ha":1210,"x_min":16,"x_max":1194,"o":"m 18 18 q 16 34 16 24 q 26 64 16 45 l 127 250 q 272 372 182 351 q 183 418 221 385 q 127 494 146 452 l 54 679 q 45 715 46 701 q 78 743 45 743 l 205 743 q 265 726 239 743 q 302 679 292 708 l 354 541 q 488 449 389 449 l 488 701 q 499 731 488 720 q 529 743 511 743 l 681 743 q 710 731 699 743 q 722 701 722 720 l 722 449 q 856 541 821 449 l 907 679 q 945 726 918 708 q 1004 743 971 743 l 1132 743 q 1164 715 1164 743 q 1156 679 1164 701 l 1082 494 q 1026 418 1064 452 q 937 372 989 385 q 1082 250 1028 351 l 1183 64 q 1194 34 1194 45 q 1192 18 1194 24 q 1160 0 1186 0 l 1032 0 q 928 64 961 0 l 856 204 q 722 294 810 294 l 722 41 q 710 12 722 24 q 681 0 699 0 l 529 0 q 499 12 511 0 q 488 41 488 24 l 488 294 q 354 204 400 294 l 282 64 q 178 0 249 0 l 50 0 q 18 18 24 0 z "},"з":{"ha":848,"x_min":28,"x_max":814,"o":"m 28 191 q 40 220 28 209 q 69 232 52 232 l 171 232 q 243 186 217 232 q 343 140 269 140 l 481 140 q 579 221 579 140 q 481 301 579 302 l 313 301 q 282 313 294 301 q 271 343 271 325 l 271 414 q 282 444 271 432 q 313 456 294 456 l 468 456 q 535 476 513 456 q 558 529 558 496 q 535 583 558 562 q 468 603 513 603 l 343 603 q 294 591 319 603 q 257 557 269 579 q 184 511 231 511 l 83 511 q 53 523 65 511 q 41 553 41 534 q 131 701 41 644 q 346 757 220 757 l 482 757 q 709 704 625 757 q 793 545 793 652 q 696 390 793 437 q 814 201 814 330 q 734 38 814 89 q 497 -14 654 -14 l 346 -14 q 119 42 210 -14 q 28 191 28 98 z "},"и":{"ha":939,"x_min":83,"x_max":856,"o":"m 83 41 l 83 701 q 95 731 83 720 q 125 743 107 743 l 267 743 q 297 731 285 743 q 309 701 309 720 l 309 256 l 547 694 q 581 729 558 715 q 624 743 603 743 l 814 743 q 844 731 832 743 q 856 701 856 720 l 856 41 q 844 12 856 23 q 814 0 832 0 l 672 0 q 642 12 654 0 q 631 41 631 24 l 631 486 l 392 49 q 359 15 381 29 q 315 0 336 0 l 125 0 q 95 12 106 0 q 83 41 83 23 z "},"й":{"ha":939,"x_min":83,"x_max":856,"o":"m 83 41 l 83 701 q 95 731 83 720 q 125 743 107 743 l 267 743 q 297 731 285 743 q 309 701 309 720 l 309 256 l 547 694 q 581 729 558 715 q 624 743 603 743 l 814 743 q 844 731 832 743 q 856 701 856 720 l 856 41 q 844 12 856 23 q 814 0 832 0 l 672 0 q 642 12 654 0 q 631 41 631 24 l 631 486 l 392 49 q 359 15 381 29 q 315 0 336 0 l 125 0 q 95 12 106 0 q 83 41 83 23 m 241 1000 q 279 1035 241 1035 l 330 1035 q 378 1000 363 1035 q 470 945 400 945 q 561 1000 539 945 q 608 1035 574 1035 l 660 1035 q 697 1000 697 1035 q 634 870 697 921 q 470 819 571 819 q 305 870 368 819 q 241 1000 241 921 z "},"к":{"ha":847,"x_min":83,"x_max":833,"o":"m 833 30 q 798 0 833 0 l 669 0 q 566 64 604 0 l 479 204 q 318 294 424 294 l 318 41 q 306 12 318 23 q 277 0 294 0 l 125 0 q 95 12 106 0 q 83 41 83 23 l 83 701 q 95 731 83 720 q 125 743 107 743 l 277 743 q 307 731 295 743 q 318 701 318 720 l 318 449 q 479 541 436 449 l 545 679 q 585 726 558 708 q 642 743 611 743 l 770 743 q 804 717 804 743 q 793 679 804 702 l 705 494 q 644 415 683 448 q 561 372 606 382 q 705 250 644 347 l 821 64 q 833 30 832 44 z "},"л":{"ha":924,"x_min":14,"x_max":840,"o":"m 16 45 l 138 538 q 478 743 189 743 l 799 743 q 828 731 817 743 q 840 701 840 720 l 840 41 q 828 12 840 24 q 799 0 817 0 l 647 0 q 617 12 629 0 q 606 41 606 24 l 606 579 l 478 579 q 358 479 383 579 l 252 50 q 228 14 245 28 q 189 0 210 0 l 50 0 q 23 11 32 0 q 14 31 14 22 q 16 45 14 39 z "},"м":{"ha":1169,"x_min":83,"x_max":1086,"o":"m 83 41 l 83 701 q 95 731 83 720 q 125 743 107 743 l 358 743 q 419 693 398 743 l 585 289 l 750 693 q 811 743 771 743 l 1044 743 q 1075 731 1063 743 q 1086 701 1086 720 l 1086 41 q 1075 12 1086 23 q 1044 0 1063 0 l 897 0 q 867 12 879 0 q 856 41 856 24 l 856 465 l 682 47 q 618 0 661 0 l 551 0 q 488 47 509 0 l 314 465 l 314 41 q 302 12 314 23 q 272 0 290 0 l 125 0 q 95 12 106 0 q 83 41 83 23 z "},"н":{"ha":933,"x_min":83,"x_max":850,"o":"m 83 41 l 83 701 q 95 731 83 720 q 125 743 107 743 l 277 743 q 307 731 295 743 q 318 701 318 720 l 318 458 l 615 458 l 615 701 q 627 731 615 720 q 657 743 639 743 l 808 743 q 838 731 827 743 q 850 701 850 720 l 850 41 q 838 12 850 23 q 808 0 827 0 l 657 0 q 627 12 639 0 q 615 41 615 24 l 615 294 l 318 294 l 318 41 q 306 12 318 23 q 277 0 294 0 l 125 0 q 95 12 106 0 q 83 41 83 23 z "},"о":{"ha":903,"x_min":41,"x_max":861,"o":"m 147 84 q 94 133 147 84 q 41 372 41 182 q 147 660 41 562 q 451 757 253 757 q 755 660 650 757 q 861 372 861 562 q 755 84 861 182 q 451 -14 650 -14 q 147 84 253 -14 m 319 548 q 298 520 319 548 q 277 372 277 493 q 319 196 277 252 q 451 140 361 140 q 584 196 542 140 q 627 372 627 252 q 584 548 627 493 q 451 603 542 603 q 319 548 361 603 z "},"п":{"ha":933,"x_min":83,"x_max":850,"o":"m 83 41 l 83 701 q 95 731 83 720 q 125 743 107 743 l 808 743 q 838 731 827 743 q 850 701 850 720 l 850 41 q 838 12 850 23 q 808 0 827 0 l 657 0 q 627 12 639 0 q 615 41 615 24 l 615 579 l 318 579 l 318 41 q 306 12 318 23 q 277 0 294 0 l 125 0 q 95 12 106 0 q 83 41 83 23 z "},"р":{"ha":920,"x_min":83,"x_max":878,"o":"m 83 -187 l 83 701 q 95 731 83 720 q 125 743 107 743 l 256 743 q 285 731 273 743 q 297 701 297 720 l 297 681 q 546 757 404 757 q 783 657 688 757 q 878 371 878 557 q 779 85 878 184 q 514 -14 681 -14 q 318 21 428 -14 l 318 -187 q 306 -217 318 -205 q 277 -229 294 -229 l 125 -229 q 95 -217 107 -229 q 83 -187 83 -205 m 318 178 q 465 150 406 150 q 597 203 558 150 q 636 372 636 256 q 599 540 636 488 q 489 593 562 593 q 318 532 415 593 l 318 178 z "},"с":{"ha":863,"x_min":41,"x_max":835,"o":"m 443 -14 q 348 -14 443 -14 q 147 84 253 -14 q 41 371 41 182 q 146 659 41 561 q 439 757 252 757 q 727 697 627 757 q 828 521 828 637 q 816 491 828 503 q 786 479 804 479 l 685 479 q 607 529 639 479 q 466 593 567 593 q 324 541 364 593 q 283 372 283 489 q 325 202 283 254 q 470 150 367 150 q 614 214 574 150 q 692 264 646 264 l 793 264 q 823 252 811 264 q 835 222 835 240 q 734 46 835 106 q 443 -14 633 -14 z "},"т":{"ha":779,"x_min":14,"x_max":765,"o":"m 14 621 l 14 701 q 25 731 14 720 q 56 743 37 743 l 724 743 q 753 731 742 743 q 765 701 765 720 l 765 621 q 753 591 765 603 q 724 579 742 579 l 507 579 l 507 41 q 495 12 507 24 q 465 0 484 0 l 314 0 q 284 12 296 0 q 272 41 272 24 l 272 579 l 56 579 q 25 591 37 579 q 14 621 14 603 z "},"у":{"ha":878,"x_min":22,"x_max":864,"o":"m 228 -71 l 317 -82 q 450 58 412 -82 q 258 128 335 58 q 125 375 180 197 l 24 703 q 22 715 22 708 q 30 732 22 722 q 56 743 39 743 l 197 743 q 235 730 217 743 q 258 697 253 717 l 347 410 q 415 263 380 304 q 496 222 449 222 l 631 697 q 652 730 636 717 q 688 743 668 743 l 831 743 q 856 732 848 743 q 864 714 864 722 q 863 703 864 707 l 685 69 q 567 -171 637 -99 q 387 -243 497 -243 q 230 -235 276 -243 q 173 -215 184 -227 q 161 -187 161 -203 l 161 -113 q 173 -82 161 -94 q 203 -71 184 -71 l 228 -71 z "},"ф":{"ha":1112,"x_min":28,"x_max":1084,"o":"m 133 99 q 81 146 133 99 q 28 372 28 193 q 133 644 28 551 q 439 743 239 737 l 439 930 q 451 961 439 949 q 481 972 463 972 l 632 972 q 662 961 650 972 q 673 930 673 949 l 673 743 q 979 645 873 738 q 1084 372 1084 551 q 979 99 1084 193 q 673 0 873 5 l 673 -187 q 662 -217 673 -205 q 632 -229 650 -229 l 481 -229 q 451 -217 463 -229 q 439 -187 439 -205 l 439 0 q 133 99 239 5 m 307 541 q 285 514 307 541 q 262 372 262 488 q 307 203 262 257 q 443 149 351 150 l 443 595 q 307 541 351 593 m 669 149 q 805 203 761 150 q 850 372 850 257 q 805 540 850 488 q 669 595 761 593 l 669 149 z "},"х":{"ha":867,"x_min":21,"x_max":846,"o":"m 24 21 q 21 38 21 28 q 32 60 21 47 l 268 372 l 47 684 q 45 734 26 712 q 68 743 53 743 l 215 743 q 321 684 281 743 l 433 513 l 546 684 q 652 743 586 743 l 799 743 q 822 734 814 743 q 819 684 841 712 l 599 372 l 835 60 q 846 37 846 47 q 843 21 846 26 q 814 0 838 0 l 669 0 q 564 60 607 0 l 433 236 l 302 60 q 197 0 260 0 l 53 0 q 24 21 29 0 z "},"ц":{"ha":964,"x_min":83,"x_max":950,"o":"m 83 41 l 83 701 q 95 731 83 720 q 125 743 107 743 l 277 743 q 307 731 295 743 q 318 701 318 720 l 318 164 l 607 164 l 607 701 q 619 731 607 720 q 648 743 631 743 l 800 743 q 830 731 819 743 q 842 701 842 720 l 842 164 l 908 164 q 938 152 926 164 q 950 122 950 140 l 950 41 q 938 12 950 23 q 908 0 926 0 l 125 0 q 95 12 106 0 q 83 41 83 23 z "},"ч":{"ha":861,"x_min":41,"x_max":778,"o":"m 41 701 q 53 731 41 720 q 83 743 65 743 l 235 743 q 265 731 253 743 q 277 701 277 720 l 277 501 q 303 427 277 450 q 371 403 329 403 l 543 403 l 543 701 q 555 731 543 720 q 585 743 567 743 l 736 743 q 766 731 754 743 q 778 701 778 720 l 778 41 q 766 12 778 24 q 736 0 754 0 l 585 0 q 555 12 567 0 q 543 41 543 24 l 543 239 l 371 239 q 121 298 201 239 q 41 501 41 357 l 41 701 z "},"ш":{"ha":1296,"x_min":83,"x_max":1213,"o":"m 83 41 l 83 701 q 95 731 83 720 q 125 743 107 743 l 277 743 q 306 731 294 743 q 318 701 318 720 l 318 164 l 530 164 l 530 701 q 542 731 530 720 q 572 743 554 743 l 724 743 q 753 731 742 743 q 765 701 765 720 l 765 164 l 978 164 l 978 701 q 990 731 978 720 q 1019 743 1002 743 l 1171 743 q 1201 731 1189 743 q 1213 701 1213 720 l 1213 41 q 1201 12 1213 24 q 1171 0 1189 0 l 125 0 q 95 12 107 0 q 83 41 83 24 z "},"щ":{"ha":1335,"x_min":83,"x_max":1321,"o":"m 83 41 l 83 701 q 95 731 83 720 q 125 743 107 743 l 277 743 q 307 731 295 743 q 318 701 318 720 l 318 164 l 530 164 l 530 701 q 542 731 530 720 q 572 743 554 743 l 724 743 q 753 731 742 743 q 765 701 765 720 l 765 164 l 978 164 l 978 701 q 990 731 978 720 q 1019 743 1002 743 l 1171 743 q 1201 731 1189 743 q 1213 701 1213 720 l 1213 164 l 1279 164 q 1309 152 1297 164 q 1321 122 1321 140 l 1321 41 q 1309 12 1321 23 q 1279 0 1297 0 l 125 0 q 95 12 106 0 q 83 41 83 23 z "},"ъ":{"ha":975,"x_min":14,"x_max":940,"o":"m 14 621 l 14 701 q 25 731 14 720 q 56 743 37 743 l 404 743 q 434 731 422 743 q 446 701 446 720 l 446 497 l 637 497 q 861 440 782 497 q 940 249 940 383 q 861 57 940 114 q 637 0 782 0 l 253 0 q 223 12 235 0 q 211 41 211 24 l 211 579 l 56 579 q 25 591 37 579 q 14 621 14 603 m 446 154 l 616 154 q 682 178 659 154 q 705 249 705 203 q 682 319 705 294 q 616 343 659 343 l 446 343 l 446 154 z "},"ы":{"ha":1196,"x_min":83,"x_max":1112,"o":"m 83 41 l 83 701 q 95 731 83 720 q 125 743 107 743 l 277 743 q 307 731 295 743 q 318 701 318 720 l 318 497 l 479 497 q 703 440 624 497 q 782 249 782 383 q 703 57 782 114 q 479 0 624 0 l 125 0 q 95 12 106 0 q 83 41 83 23 m 314 151 l 458 151 q 547 249 547 151 q 458 346 547 346 l 314 346 l 314 151 m 878 41 l 878 701 q 889 731 878 720 q 920 743 901 743 l 1071 743 q 1101 731 1089 743 q 1112 701 1112 720 l 1112 41 q 1101 12 1112 23 q 1071 0 1089 0 l 920 0 q 889 12 901 0 q 878 41 878 23 z "},"ь":{"ha":861,"x_min":83,"x_max":827,"o":"m 83 41 l 83 701 q 95 731 83 720 q 125 743 107 743 l 277 743 q 306 731 294 743 q 318 701 318 720 l 318 497 l 524 497 q 747 440 668 497 q 827 249 827 383 q 747 57 827 114 q 524 0 668 0 l 125 0 q 95 12 107 0 q 83 41 83 24 m 318 154 l 503 154 q 568 178 545 154 q 591 249 591 203 q 568 319 591 294 q 503 343 545 343 l 318 343 l 318 154 z "},"э":{"ha":863,"x_min":28,"x_max":821,"o":"m 28 207 q 40 237 28 225 q 69 249 52 249 l 171 249 q 253 199 214 249 q 386 150 293 150 q 523 185 479 150 q 574 293 566 220 l 334 293 q 303 305 315 293 q 292 335 292 317 l 292 406 q 303 435 292 424 q 334 447 315 447 l 574 447 q 401 593 559 593 q 260 544 300 593 q 178 494 221 494 l 77 494 q 46 506 58 494 q 35 536 35 518 q 136 700 35 643 q 426 757 237 757 q 717 659 614 757 q 821 371 821 561 q 716 83 821 180 q 421 -14 612 -14 q 129 43 231 -14 q 28 207 28 100 z "},"ю":{"ha":1238,"x_min":83,"x_max":1196,"o":"m 83 41 l 83 701 q 95 731 83 720 q 125 743 107 743 l 277 743 q 306 731 294 743 q 318 701 318 720 l 318 458 l 418 458 q 539 681 436 604 q 814 757 642 757 q 1092 658 987 757 q 1196 371 1196 559 q 1092 85 1196 183 q 813 -14 987 -14 q 536 65 639 -14 q 416 294 433 144 l 318 294 l 318 41 q 306 12 318 24 q 277 0 294 0 l 125 0 q 95 12 107 0 q 83 41 83 24 m 961 372 q 961 487 961 372 q 804 603 961 603 q 647 372 647 603 q 804 140 647 140 q 961 372 961 140 z "},"я":{"ha":878,"x_min":48,"x_max":794,"o":"m 50 504 q 353 743 50 743 l 753 743 q 783 731 771 743 q 794 701 794 720 l 794 41 q 783 12 794 23 q 753 0 771 0 l 602 0 q 571 12 583 0 q 559 41 559 24 l 559 265 l 427 265 l 311 60 q 205 0 278 0 l 83 0 q 51 18 58 0 q 48 34 48 24 q 58 60 48 44 l 195 288 q 50 504 50 341 m 309 566 q 297 555 309 566 q 285 504 285 543 q 308 442 285 465 q 374 419 332 419 l 559 419 l 559 589 l 374 589 q 309 566 332 589 z "},"ё":{"ha":875,"x_min":41,"x_max":833,"o":"m 146 85 q 94 135 146 85 q 41 371 41 184 q 146 657 41 557 q 438 757 252 757 q 729 660 625 757 q 833 380 833 562 l 833 342 q 822 312 833 323 q 791 300 810 300 l 281 300 q 329 178 288 216 q 460 140 370 140 q 583 181 550 140 q 665 222 616 222 l 766 222 q 797 211 785 222 q 808 180 808 199 q 437 -14 808 -14 q 146 85 250 -14 m 157 882 l 157 908 q 178 965 157 944 q 235 986 199 986 l 300 986 q 357 965 336 986 q 378 908 378 945 l 378 882 q 357 825 378 846 q 300 804 336 804 l 235 804 q 178 825 199 804 q 157 882 157 846 m 279 443 l 595 443 q 438 603 588 603 q 279 443 288 603 m 497 882 l 497 908 q 518 965 497 944 q 575 986 539 986 l 640 986 q 697 965 676 986 q 718 908 718 945 l 718 882 q 697 825 718 846 q 640 804 676 804 l 575 804 q 518 825 539 804 q 497 882 497 846 z "},"ђ":{"ha":1013,"x_min":14,"x_max":929,"o":"m 534 -72 l 604 -82 q 668 -44 642 -82 q 694 77 694 -7 l 694 334 q 566 496 694 496 q 383 399 481 496 l 383 41 q 371 12 383 24 q 342 0 359 0 l 191 0 q 160 12 172 0 q 149 41 149 24 l 149 715 l 56 715 q 25 727 37 715 q 14 757 14 739 l 14 831 q 25 860 14 848 q 56 872 37 872 l 149 872 l 149 930 q 160 961 149 949 q 191 972 172 972 l 342 972 q 371 961 359 972 q 383 930 383 949 l 383 872 l 490 872 q 520 860 509 872 q 532 831 532 848 l 532 757 q 520 727 532 739 q 490 715 509 715 l 383 715 l 383 561 q 632 660 500 660 q 846 579 764 660 q 929 334 929 498 l 929 77 q 667 -243 929 -243 q 514 -229 574 -243 q 472 -187 472 -220 l 472 -114 q 484 -84 472 -96 q 514 -72 496 -72 l 534 -72 z "},"ѓ":{"ha":688,"x_min":83,"x_max":673,"o":"m 83 41 l 83 701 q 95 731 83 720 q 125 743 107 743 l 632 743 q 662 731 650 743 q 673 701 673 720 l 673 621 q 662 591 673 603 q 632 579 650 579 l 318 579 l 318 41 q 306 12 318 24 q 277 0 294 0 l 125 0 q 95 12 107 0 q 83 41 83 24 m 289 886 l 336 1042 q 376 1097 346 1074 q 439 1120 406 1120 l 486 1120 q 567 1089 542 1120 q 578 1056 578 1074 q 564 1014 578 1038 l 476 872 q 370 794 428 794 l 351 794 q 282 848 282 794 q 289 886 282 865 z "},"є":{"ha":863,"x_min":41,"x_max":835,"o":"m 41 371 q 41 466 41 371 q 145 659 41 561 q 437 757 249 757 q 727 700 625 757 q 828 536 828 643 q 816 506 828 518 q 786 494 804 494 l 685 494 q 607 539 642 494 q 461 593 562 593 q 289 447 302 593 l 529 447 q 559 435 547 447 q 571 406 571 424 l 571 335 q 559 305 571 317 q 529 293 547 293 l 289 293 q 340 185 297 220 q 476 150 383 150 q 609 199 570 150 q 692 249 648 249 l 793 249 q 823 237 811 249 q 835 207 835 225 q 733 43 835 100 q 441 -14 632 -14 q 146 83 250 -14 q 41 371 41 180 z "},"ѕ":{"ha":831,"x_min":41,"x_max":789,"o":"m 41 538 q 395 757 41 757 q 766 562 766 757 q 755 533 766 545 q 725 521 743 521 l 624 521 q 542 562 575 521 q 411 603 509 603 q 277 538 277 603 q 329 487 277 507 q 457 451 382 467 q 608 412 533 436 q 736 337 684 389 q 789 205 789 285 q 416 -14 789 -14 q 43 180 43 -14 q 55 211 43 199 q 85 222 66 222 l 186 222 q 268 181 235 222 q 399 140 301 140 q 554 205 554 140 q 502 256 554 236 q 373 293 449 277 q 222 332 297 309 q 94 408 147 355 q 41 538 41 460 z "},"і":{"ha":407,"x_min":83,"x_max":323,"o":"m 83 885 l 83 908 q 104 965 83 944 q 161 986 125 986 l 245 986 q 302 965 281 986 q 323 908 323 945 l 323 885 q 303 828 323 849 q 245 807 282 807 l 161 807 q 104 828 125 807 q 83 885 83 849 m 86 41 l 86 685 q 98 715 86 703 q 127 726 110 726 l 279 726 q 309 714 298 726 q 321 685 321 703 l 321 41 q 309 12 321 23 q 279 0 297 0 l 127 0 q 98 12 109 0 q 86 41 86 23 z "},"ї":{"ha":427,"x_min":-28,"x_max":454,"o":"m -28 885 l -28 908 q -7 965 -28 945 q 50 986 14 986 l 100 986 q 157 965 136 986 q 178 908 178 945 l 178 885 q 157 828 178 848 q 100 807 136 807 l 50 807 q -7 828 14 807 q -28 885 -28 848 m 96 41 l 96 685 q 107 714 96 703 q 138 726 119 726 l 289 726 q 319 714 307 726 q 330 685 330 703 l 330 41 q 319 12 330 24 q 289 0 307 0 l 138 0 q 107 12 119 0 q 96 41 96 24 m 249 889 l 249 913 q 270 969 249 949 q 326 990 290 990 l 376 990 q 433 969 412 990 q 454 913 454 949 l 454 889 q 433 832 454 852 q 376 811 412 811 l 326 811 q 270 832 290 811 q 249 889 249 852 z "},"ј":{"ha":418,"x_min":-125,"x_max":335,"o":"m -62 -72 l 7 -82 q 71 -44 44 -82 q 97 77 97 -7 l 97 685 q 109 715 97 703 q 139 726 121 726 l 290 726 q 320 714 309 726 q 332 685 332 703 l 332 77 q 69 -243 332 -243 q -83 -229 -24 -243 q -125 -187 -125 -220 l -125 -114 q -113 -84 -125 -96 q -83 -72 -102 -72 l -62 -72 m 94 885 l 94 908 q 115 965 94 944 q 172 986 136 986 l 257 986 q 314 965 293 986 q 335 908 335 945 l 335 885 q 314 828 335 849 q 257 807 293 807 l 172 807 q 115 828 136 807 q 94 885 94 849 z "},"љ":{"ha":1335,"x_min":14,"x_max":1307,"o":"m 16 45 l 138 538 q 478 743 189 743 l 771 743 q 801 731 789 743 q 812 701 812 720 l 812 497 l 1004 497 q 1228 440 1149 497 q 1307 249 1307 383 q 1228 57 1307 114 q 1004 0 1149 0 l 619 0 q 589 12 601 0 q 578 41 578 24 l 578 579 l 478 579 q 358 479 384 579 l 252 50 q 228 14 246 28 q 189 0 210 0 l 50 0 q 23 11 32 0 q 14 31 14 22 q 16 45 14 39 m 812 154 l 983 154 q 1048 178 1025 154 q 1072 249 1072 203 q 1048 319 1072 294 q 983 343 1025 343 l 812 343 l 812 154 z "},"њ":{"ha":1344,"x_min":83,"x_max":1317,"o":"m 83 41 l 83 701 q 95 731 83 720 q 125 743 107 743 l 277 743 q 307 731 295 743 q 318 701 318 720 l 318 472 l 587 472 l 587 701 q 599 731 587 720 q 629 743 611 743 l 781 743 q 810 731 799 743 q 822 701 822 720 l 822 472 l 1014 472 q 1317 236 1316 472 q 1014 0 1317 0 l 629 0 q 599 12 611 0 q 587 41 587 24 l 587 309 l 318 309 l 318 41 q 306 12 318 23 q 277 0 294 0 l 125 0 q 95 12 106 0 q 83 41 83 23 m 822 154 l 993 154 q 1058 176 1034 154 q 1082 236 1082 197 q 1058 297 1082 275 q 993 318 1035 318 l 822 318 l 822 154 z "},"ћ":{"ha":1013,"x_min":14,"x_max":929,"o":"m 14 757 l 14 831 q 25 860 14 848 q 56 872 37 872 l 149 872 l 149 930 q 160 961 149 949 q 191 972 172 972 l 342 972 q 371 961 359 972 q 383 930 383 949 l 383 872 l 490 872 q 520 860 509 872 q 532 831 532 848 l 532 757 q 520 727 532 739 q 490 715 509 715 l 383 715 l 383 561 q 632 660 500 660 q 846 579 764 660 q 929 334 929 498 l 929 41 q 917 12 929 24 q 888 0 905 0 l 736 0 q 706 12 718 0 q 694 41 694 24 l 694 334 q 566 496 694 496 q 383 399 481 496 l 383 41 q 371 12 383 24 q 342 0 359 0 l 191 0 q 160 12 172 0 q 149 41 149 24 l 149 715 l 56 715 q 25 727 37 715 q 14 757 14 739 z "},"ќ":{"ha":847,"x_min":83,"x_max":833,"o":"m 833 30 q 798 0 833 0 l 669 0 q 566 64 604 0 l 479 204 q 318 294 424 294 l 318 41 q 306 12 318 23 q 277 0 294 0 l 125 0 q 95 12 106 0 q 83 41 83 23 l 83 701 q 95 731 83 720 q 125 743 107 743 l 277 743 q 307 731 295 743 q 318 701 318 720 l 318 449 q 479 541 436 449 l 545 679 q 585 726 558 708 q 642 743 611 743 l 770 743 q 804 717 804 743 q 793 679 804 702 l 705 494 q 644 415 683 448 q 561 372 606 382 q 705 250 644 347 l 821 64 q 833 30 832 44 m 363 876 l 410 1032 q 449 1087 419 1064 q 513 1109 479 1109 l 559 1109 q 640 1079 615 1109 q 651 1045 651 1064 q 637 1004 651 1027 l 550 863 q 443 785 501 785 l 425 785 q 356 838 356 785 q 363 876 356 854 z "},"ў":{"ha":878,"x_min":22,"x_max":864,"o":"m 228 -71 l 317 -82 q 450 58 412 -82 q 258 128 335 58 q 125 375 180 197 l 24 703 q 22 715 22 708 q 30 732 22 722 q 56 743 39 743 l 197 743 q 235 730 217 743 q 258 697 253 717 l 347 410 q 415 263 380 304 q 496 222 449 222 l 631 697 q 652 730 636 717 q 688 743 668 743 l 831 743 q 856 732 848 743 q 864 714 864 722 q 863 703 864 707 l 685 69 q 567 -171 637 -99 q 387 -243 497 -243 q 230 -235 276 -243 q 173 -215 184 -227 q 161 -187 161 -203 l 161 -113 q 173 -82 161 -94 q 203 -71 184 -71 l 228 -71 m 224 986 q 261 1021 224 1021 l 313 1021 q 359 986 346 1021 q 451 930 382 930 q 543 986 521 930 q 590 1021 557 1021 l 642 1021 q 679 986 679 1021 q 616 856 679 907 q 451 806 553 806 q 287 856 350 806 q 224 986 224 907 z "},"џ":{"ha":933,"x_min":83,"x_max":850,"o":"m 83 41 l 83 701 q 95 731 83 720 q 125 743 107 743 l 277 743 q 307 731 295 743 q 318 701 318 720 l 318 164 l 615 164 l 615 701 q 627 731 615 720 q 657 743 639 743 l 808 743 q 838 731 827 743 q 850 701 850 720 l 850 41 q 838 12 850 23 q 808 0 827 0 l 572 0 l 572 -176 q 561 -207 572 -195 q 530 -218 549 -218 l 403 -218 q 373 -207 385 -218 q 361 -176 361 -195 l 361 0 l 125 0 q 95 12 106 0 q 83 41 83 23 z "},"Ґ":{"ha":895,"x_min":97,"x_max":880,"o":"m 97 62 l 97 908 q 115 954 97 936 q 161 972 134 972 l 648 972 l 648 1057 q 667 1101 648 1083 q 713 1120 686 1120 l 817 1120 q 862 1101 843 1120 q 880 1057 880 1083 l 880 844 q 862 799 880 817 q 817 781 844 781 l 353 781 l 353 62 q 334 18 353 36 q 289 0 315 0 l 161 0 q 116 18 135 0 q 97 62 97 36 z "},"ґ":{"ha":688,"x_min":83,"x_max":673,"o":"m 83 41 l 83 701 q 95 731 83 720 q 125 743 107 743 l 467 743 l 467 829 q 478 859 467 847 q 509 871 490 871 l 632 871 q 662 859 650 871 q 673 829 673 847 l 673 621 q 662 591 673 603 q 632 579 650 579 l 318 579 l 318 41 q 306 12 318 24 q 277 0 294 0 l 125 0 q 95 12 107 0 q 83 41 83 24 z "},"–":{"ha":518,"x_min":28,"x_max":490,"o":"m 28 363 l 28 465 q 40 495 28 484 q 69 507 52 507 l 449 507 q 478 495 467 507 q 490 465 490 484 l 490 363 q 478 333 490 345 q 449 321 467 321 l 69 321 q 40 333 52 321 q 28 363 28 345 z "},"—":{"ha":852,"x_min":28,"x_max":825,"o":"m 28 386 l 28 467 q 40 497 28 485 q 69 509 52 509 l 783 509 q 813 497 802 509 q 825 467 825 485 l 825 386 q 813 356 825 368 q 783 345 802 345 l 69 345 q 39 356 51 345 q 28 386 28 368 z "},"‘":{"ha":374,"x_min":65,"x_max":342,"o":"m 65 690 l 146 895 q 188 950 160 928 q 253 972 216 972 l 279 972 q 336 950 322 972 q 342 880 350 928 l 301 663 q 264 608 296 631 q 199 585 233 585 l 143 585 q 67 613 89 585 q 65 690 46 642 z "},"’":{"ha":374,"x_min":29,"x_max":318,"o":"m 231 972 q 318 908 318 972 q 309 867 318 890 l 228 663 q 185 607 214 629 q 121 585 157 585 l 94 585 q 40 603 52 585 q 29 640 29 621 q 32 676 29 659 l 72 895 q 109 949 78 926 q 175 972 140 972 l 231 972 z "},"‚":{"ha":374,"x_min":29,"x_max":318,"o":"m 231 220 q 318 155 318 220 q 309 114 318 138 l 228 -90 q 185 -146 214 -123 q 121 -168 157 -168 l 94 -168 q 40 -150 52 -168 q 29 -113 29 -132 q 32 -77 29 -94 l 72 142 q 109 197 78 174 q 175 220 140 220 l 231 220 z "},"“":{"ha":665,"x_min":56,"x_max":636,"o":"m 279 972 q 345 913 348 972 q 342 880 345 897 l 301 663 q 264 608 296 631 q 199 585 233 585 l 143 585 q 66 612 89 585 q 56 647 56 628 q 65 690 56 667 l 146 895 q 188 950 160 928 q 253 972 216 972 l 279 972 m 357 690 l 437 895 q 480 950 452 928 q 545 972 509 972 l 571 972 q 625 954 614 972 q 636 917 636 936 q 633 880 636 897 l 593 663 q 556 608 587 631 q 490 585 525 585 l 435 585 q 358 612 380 585 q 347 647 347 628 q 357 690 347 667 z "},"”":{"ha":665,"x_min":29,"x_max":609,"o":"m 231 972 q 318 908 318 972 q 309 867 318 890 l 228 663 q 185 607 214 629 q 121 585 157 585 l 94 585 q 40 603 52 585 q 29 640 29 621 q 32 676 29 659 l 72 895 q 109 949 78 926 q 175 972 140 972 l 231 972 m 323 676 l 364 895 q 401 949 370 926 q 467 972 432 972 l 522 972 q 599 945 576 972 q 609 910 610 929 q 600 867 608 890 l 519 663 q 477 607 505 629 q 412 585 449 585 l 386 585 q 329 607 343 585 q 319 640 319 621 q 323 676 319 659 z "},"„":{"ha":665,"x_min":29,"x_max":609,"o":"m 231 220 q 318 155 318 220 q 309 114 318 138 l 228 -90 q 185 -146 214 -123 q 121 -168 157 -168 l 94 -168 q 40 -150 52 -168 q 29 -113 29 -132 q 32 -77 29 -94 l 72 142 q 109 197 78 174 q 175 220 140 220 l 231 220 m 323 -77 l 364 142 q 401 197 370 174 q 467 220 432 220 l 522 220 q 599 192 576 220 q 609 157 610 176 q 600 114 608 138 l 519 -90 q 477 -146 505 -123 q 412 -168 449 -168 l 386 -168 q 329 -146 343 -168 q 319 -113 319 -132 q 323 -77 319 -94 z "},"†":{"ha":749,"x_min":41,"x_max":707,"o":"m 41 579 l 41 660 q 53 689 41 677 q 83 701 65 701 l 257 701 l 257 930 q 269 961 257 949 q 298 972 281 972 l 450 972 q 480 961 468 972 q 492 930 492 949 l 492 701 l 665 701 q 695 689 684 701 q 707 660 707 677 l 707 579 q 695 549 707 561 q 665 538 684 538 l 492 538 l 492 -187 q 480 -217 492 -205 q 450 -229 468 -229 l 298 -229 q 269 -217 281 -229 q 257 -187 257 -205 l 257 538 l 83 538 q 53 549 65 538 q 41 579 41 561 z "},"‡":{"ha":749,"x_min":41,"x_max":707,"o":"m 41 41 l 41 122 q 53 152 41 140 q 83 164 65 164 l 257 164 l 257 579 l 83 579 q 53 591 65 579 q 41 621 41 603 l 41 701 q 53 731 41 720 q 83 743 65 743 l 257 743 l 257 930 q 269 961 257 949 q 298 972 281 972 l 450 972 q 480 961 468 972 q 492 930 492 949 l 492 743 l 665 743 q 695 731 684 743 q 707 701 707 720 l 707 621 q 695 591 707 603 q 665 579 684 579 l 492 579 l 492 164 l 665 164 q 695 152 684 164 q 707 122 707 140 l 707 41 q 695 12 707 24 q 665 0 684 0 l 492 0 l 492 -187 q 480 -217 492 -205 q 450 -229 468 -229 l 298 -229 q 269 -217 281 -229 q 257 -187 257 -205 l 257 0 l 83 0 q 53 12 65 0 q 41 41 41 24 z "},"•":{"ha":555,"x_min":41,"x_max":514,"o":"m 109 259 q 75 289 109 259 q 41 424 41 319 q 109 588 41 528 q 278 648 176 648 q 447 588 379 648 q 514 424 514 528 q 447 259 514 319 q 278 199 379 199 q 109 259 176 199 z "},"…":{"ha":1031,"x_min":56,"x_max":975,"o":"m 231 220 q 322 127 322 220 l 322 85 q 299 17 322 41 q 231 -7 275 -7 l 147 -7 q 79 17 103 -7 q 56 85 56 41 l 56 127 q 79 196 56 172 q 147 220 103 220 l 231 220 m 382 85 l 382 127 q 406 196 382 172 q 473 220 431 220 l 557 220 q 624 196 600 220 q 648 127 648 172 l 648 85 q 624 17 648 41 q 557 -7 600 -7 l 473 -7 q 406 17 431 -7 q 382 85 382 41 m 708 85 l 708 127 q 732 196 708 172 q 800 220 755 220 l 884 220 q 951 196 928 220 q 975 127 975 172 l 975 85 q 951 17 975 41 q 884 -7 928 -7 l 800 -7 q 732 17 755 -7 q 708 85 708 41 z "},"‰":{"ha":1625,"x_min":41,"x_max":1584,"o":"m 109 597 q 75 627 109 597 q 41 761 41 657 q 109 926 41 865 q 278 986 176 986 q 447 926 379 986 q 514 761 514 865 q 447 597 514 657 q 278 536 379 536 q 109 597 176 536 m 92 38 q 104 64 92 48 l 781 908 q 899 972 831 972 l 1007 972 q 1041 951 1034 972 q 1043 935 1043 945 q 1031 908 1043 924 l 354 64 q 236 0 304 0 l 127 0 q 92 38 92 0 m 221 833 q 210 820 221 833 q 200 761 200 807 q 221 689 200 715 q 278 663 241 663 q 335 689 314 663 q 355 761 355 715 q 335 833 355 807 q 278 860 314 860 q 221 833 241 860 m 677 48 q 643 78 677 48 q 610 213 610 109 q 677 377 610 317 q 846 437 745 437 q 1015 377 947 437 q 1082 213 1082 317 q 1015 48 1082 109 q 846 -12 947 -12 q 677 48 745 -12 m 789 285 q 779 272 789 285 q 768 213 768 258 q 789 140 768 167 q 846 114 810 114 q 903 140 882 114 q 924 213 924 167 q 903 285 924 258 q 846 311 882 311 q 789 285 810 311 m 1178 48 q 1145 78 1178 48 q 1111 213 1111 109 q 1178 377 1111 317 q 1347 437 1246 437 q 1516 377 1449 437 q 1584 213 1584 317 q 1516 48 1584 109 q 1347 -12 1449 -12 q 1178 48 1246 -12 m 1290 285 q 1280 272 1290 285 q 1270 213 1270 258 q 1290 140 1270 167 q 1347 114 1311 114 q 1404 140 1383 114 q 1425 213 1425 167 q 1404 285 1425 258 q 1347 311 1383 311 q 1290 285 1311 311 z "},"‹":{"ha":583,"x_min":41,"x_max":528,"o":"m 41 354 l 41 387 q 82 461 41 432 l 468 734 q 510 741 492 750 q 528 707 528 732 l 528 590 q 468 498 528 540 l 288 371 l 468 243 q 528 151 528 201 l 528 35 q 510 1 528 9 q 468 7 492 -8 l 82 281 q 41 354 41 309 z "},"›":{"ha":583,"x_min":56,"x_max":542,"o":"m 56 35 l 56 151 q 115 243 56 201 l 296 371 l 115 498 q 56 590 56 540 l 56 707 q 74 741 56 732 q 91 745 81 745 q 115 734 100 745 l 501 461 q 542 387 541 432 l 542 354 q 501 281 542 309 l 115 7 q 90 -3 100 -3 q 74 1 80 -3 q 56 35 56 9 z "},"€":{"ha":1202,"x_min":0,"x_max":1166,"o":"m 0 436 l 0 468 l 764 468 l 764 436 q 752 406 764 418 q 722 395 741 395 l 368 395 q 431 233 374 279 q 618 186 489 186 l 753 186 q 920 279 873 186 q 1017 354 956 354 l 1097 354 q 1148 331 1130 354 q 1166 279 1166 307 q 1107 125 1166 192 q 961 26 1048 58 q 777 -5 873 -5 l 611 -5 q 113 395 153 -5 l 41 395 q 12 406 24 395 q 0 436 0 418 m 21 505 l 21 538 q 33 567 21 555 q 62 579 45 579 l 113 579 q 611 978 157 978 l 762 978 q 947 946 860 978 q 1094 847 1035 914 q 1153 693 1153 781 q 1129 635 1153 653 q 1083 618 1105 618 l 1003 618 q 905 693 942 618 q 739 786 860 786 l 618 786 q 432 740 489 786 q 368 579 375 693 l 743 579 q 773 567 761 579 q 785 538 785 555 l 785 505 l 21 505 z "},"№":{"ha":1632,"x_min":97,"x_max":1604,"o":"m 97 64 l 97 908 q 115 954 97 935 q 160 972 134 972 l 359 972 q 410 953 383 972 q 453 908 437 933 l 835 288 l 835 909 q 853 954 835 936 q 899 972 872 972 l 1015 972 q 1060 954 1042 972 q 1079 908 1079 936 l 1079 64 q 1060 19 1079 37 q 1015 0 1042 0 l 790 0 q 736 19 764 0 q 692 64 708 37 l 345 636 l 345 64 q 326 19 345 37 q 281 0 307 0 l 161 0 q 116 19 135 0 q 97 64 97 37 m 1199 597 q 1166 627 1199 597 q 1132 761 1132 657 q 1199 926 1132 865 q 1368 986 1267 986 q 1537 926 1470 986 q 1604 761 1604 865 q 1537 597 1604 657 q 1368 536 1470 536 q 1199 597 1267 536 m 1162 368 l 1162 449 q 1174 479 1162 467 q 1204 490 1186 490 l 1532 490 q 1562 478 1550 490 q 1573 449 1573 467 l 1573 368 q 1562 338 1573 350 q 1532 326 1550 326 l 1204 326 q 1174 338 1186 326 q 1162 368 1162 350 m 1311 833 q 1301 820 1311 833 q 1291 761 1291 807 q 1311 689 1291 715 q 1368 663 1332 663 q 1425 689 1404 663 q 1446 761 1446 715 q 1425 833 1446 807 q 1368 860 1404 860 q 1311 833 1332 860 z "},"™":{"ha":1120,"x_min":0,"x_max":1078,"o":"m 0 900 l 0 947 q 24 972 0 972 l 422 972 q 447 947 447 972 l 447 900 q 422 875 447 875 l 293 875 l 293 551 q 286 534 293 542 q 268 526 278 526 l 178 526 q 160 534 167 526 q 153 551 153 542 l 153 875 l 24 875 q 0 900 0 875 m 481 551 l 481 947 q 505 972 481 972 l 644 972 q 681 943 668 972 l 779 700 l 878 943 q 914 972 890 972 l 1053 972 q 1078 947 1078 972 l 1078 551 q 1071 534 1078 542 q 1053 526 1064 526 l 965 526 q 948 534 956 526 q 940 551 940 542 l 940 806 l 838 555 q 799 526 822 526 l 760 526 q 721 555 736 526 l 618 806 l 618 551 q 610 534 618 542 q 593 526 603 526 l 505 526 q 488 534 494 526 q 481 551 481 542 z "},"":{"ha":743,"x_min":0,"x_max":743,"o":"m 0 743 l 743 743 l 743 0 l 0 0 l 0 743 z "}}}
